Oglavie-Regular.ufo
<glyph name="exclam" format="2">
  <advance width="192"/>
  <unicode hex="0021"/>
  <outline>
    <contour>
      <point x="160" y="63" type="curve" smooth="yes"/>
      <point x="160" y="20"/>
      <point x="131" y="-15"/>
      <point x="96" y="-15" type="curve" smooth="yes"/>
      <point x="61" y="-15"/>
      <point x="32" y="20"/>
      <point x="32" y="63" type="curve" smooth="yes"/>
      <point x="32" y="106"/>
      <point x="61" y="141"/>
      <point x="96" y="141" type="curve" smooth="yes"/>
      <point x="131" y="141"/>
      <point x="160" y="106"/>
    </contour>
    <contour>
      <point x="22" y="800" type="line"/>
      <point x="160" y="800" type="line"/>
      <point x="160" y="786" type="line"/>
      <point x="100" y="196" type="line"/>
      <point x="82" y="196" type="line"/>
      <point x="22" y="786" type="line"/>
    </contour>
  </outline>
</glyph>
<glyph name="quotedbl" format="2">
  <advance width="262"/>
  <unicode hex="0022"/>
  <outline>
    <contour>
      <point x="242" y="793" type="line"/>
      <point x="176" y="576" type="line"/>
      <point x="120" y="576" type="line"/>
      <point x="120" y="583" type="line"/>
      <point x="170" y="800" type="line"/>
      <point x="242" y="800" type="line"/>
    </contour>
    <contour>
      <point x="142" y="793" type="line"/>
      <point x="76" y="576" type="line"/>
      <point x="20" y="576" type="line"/>
      <point x="20" y="583" type="line"/>
      <point x="70" y="800" type="line"/>
      <point x="142" y="800" type="line"/>
    </contour>
  </outline>
</glyph>
<glyph name="quotesingle" format="2">
  <advance width="162"/>
  <unicode hex="0027"/>
  <outline>
    <contour>
      <point x="142" y="793" type="line"/>
      <point x="76" y="576" type="line"/>
      <point x="20" y="576" type="line"/>
      <point x="20" y="583" type="line"/>
      <point x="70" y="800" type="line"/>
      <point x="142" y="800" type="line"/>
    </contour>
  </outline>
</glyph>
<glyph name="parenleft" format="2">
  <advance width="200"/>
  <unicode hex="0028"/>
  <outline>
    <contour>
      <point x="50" y="780" type="line" smooth="yes"/>
      <point x="50" y="835"/>
      <point x="95" y="880"/>
      <point x="150" y="880" type="curve" smooth="yes"/>
      <point x="220" y="880" type="line"/>
      <point x="220" y="860" type="line"/>
      <point x="180" y="860" type="line" smooth="yes"/>
      <point x="154" y="860"/>
      <point x="150" y="836"/>
      <point x="150" y="810" type="curve" smooth="yes"/>
      <point x="150" y="-10" type="line" smooth="yes"/>
      <point x="150" y="-36"/>
      <point x="154" y="-60"/>
      <point x="180" y="-60" type="curve" smooth="yes"/>
      <point x="220" y="-60" type="line"/>
      <point x="220" y="-80" type="line"/>
      <point x="150" y="-80" type="line" smooth="yes"/>
      <point x="95" y="-80"/>
      <point x="50" y="-35"/>
      <point x="50" y="20" type="curve" smooth="yes"/>
    </contour>
  </outline>
</glyph>
<glyph name="parenright" format="2">
  <advance width="200"/>
  <unicode hex="0029"/>
  <outline>
    <contour>
      <point x="150" y="20" type="line" smooth="yes"/>
      <point x="150" y="-35"/>
      <point x="105" y="-80"/>
      <point x="50" y="-80" type="curve" smooth="yes"/>
      <point x="-20" y="-80" type="line"/>
      <point x="-20" y="-60" type="line"/>
      <point x="20" y="-60" type="line" smooth="yes"/>
      <point x="46" y="-60"/>
      <point x="50" y="-36"/>
      <point x="50" y="-10" type="curve" smooth="yes"/>
      <point x="50" y="810" type="line" smooth="yes"/>
      <point x="50" y="836"/>
      <point x="46" y="860"/>
      <point x="20" y="860" type="curve" smooth="yes"/>
      <point x="-20" y="860" type="line"/>
      <point x="-20" y="880" type="line"/>
      <point x="50" y="880" type="line" smooth="yes"/>
      <point x="105" y="880"/>
      <point x="150" y="835"/>
      <point x="150" y="780" type="curve" smooth="yes"/>
    </contour>
  </outline>
</glyph>
<glyph name="asterisk" format="2">
  <advance width="387"/>
  <unicode hex="002A"/>
  <outline>
    <contour>
      <point x="376" y="629" type="line"/>
      <point x="280" y="595" type="line"/>
      <point x="326" y="502" type="line"/>
      <point x="233" y="547" type="line"/>
      <point x="198" y="451" type="line"/>
      <point x="164" y="547" type="line"/>
      <point x="73" y="502" type="line"/>
      <point x="117" y="595" type="line"/>
      <point x="21" y="629" type="line"/>
      <point x="115" y="663" type="line"/>
      <point x="71" y="755" type="line"/>
      <point x="164" y="710" type="line"/>
      <point x="198" y="806" type="line"/>
      <point x="233" y="710" type="line"/>
      <point x="326" y="755" type="line"/>
      <point x="280" y="663" type="line"/>
    </contour>
    <contour>
      <point x="329" y="629" type="line"/>
      <point x="258" y="654" type="line"/>
      <point x="292" y="722" type="line"/>
      <point x="223" y="690" type="line"/>
      <point x="198" y="759" type="line"/>
      <point x="173" y="689" type="line"/>
      <point x="105" y="721" type="line"/>
      <point x="137" y="654" type="line"/>
      <point x="68" y="629" type="line"/>
      <point x="138" y="603" type="line"/>
      <point x="105" y="535" type="line"/>
      <point x="173" y="568" type="line"/>
      <point x="198" y="498" type="line"/>
      <point x="223" y="568" type="line"/>
      <point x="292" y="535" type="line"/>
      <point x="258" y="603" type="line"/>
    </contour>
  </outline>
</glyph>
<glyph name="comma" format="2">
  <advance width="224"/>
  <unicode hex="002C"/>
  <outline>
    <contour>
      <point x="20" y="-9" type="line"/>
      <point x="111" y="128" type="line"/>
      <point x="141" y="111"/>
      <point x="192" y="51"/>
      <point x="192" y="-28" type="curve" smooth="yes"/>
      <point x="192" y="-100"/>
      <point x="145" y="-161"/>
      <point x="105" y="-191" type="curve"/>
      <point x="95" y="-182" type="line"/>
      <point x="120" y="-154"/>
      <point x="140" y="-125"/>
      <point x="140" y="-87" type="curve" smooth="yes"/>
      <point x="140" y="-34"/>
      <point x="96" y="10"/>
      <point x="69" y="29" type="curve"/>
      <point x="36" y="-21" type="line"/>
    </contour>
  </outline>
</glyph>
<glyph name="hyphen" format="2">
  <advance width="235"/>
  <unicode hex="002D"/>
  <outline>
    <contour>
      <point x="200" y="380" type="line"/>
      <point x="35" y="380" type="line"/>
      <point x="35" y="420" type="line"/>
      <point x="200" y="420" type="line"/>
    </contour>
  </outline>
</glyph>
<glyph name="period" format="2">
  <advance width="228"/>
  <unicode hex="002E"/>
  <outline>
    <contour>
      <point x="114" y="141" type="curve" smooth="yes"/>
      <point x="149" y="141"/>
      <point x="178" y="106"/>
      <point x="178" y="63" type="curve" smooth="yes"/>
      <point x="178" y="20"/>
      <point x="149" y="-15"/>
      <point x="114" y="-15" type="curve" smooth="yes"/>
      <point x="79" y="-15"/>
      <point x="50" y="20"/>
      <point x="50" y="63" type="curve" smooth="yes"/>
      <point x="50" y="106"/>
      <point x="79" y="141"/>
    </contour>
  </outline>
</glyph>
<glyph name="slash" format="2">
  <advance width="266"/>
  <unicode hex="002F"/>
  <outline>
    <contour>
      <point x="239" y="850" type="line"/>
      <point x="76" y="-50" type="line"/>
      <point x="27" y="-50" type="line"/>
      <point x="190" y="850" type="line"/>
    </contour>
  </outline>
</glyph>
<glyph name="colon" format="2">
  <advance width="208"/>
  <unicode hex="003A"/>
  <outline>
    <contour>
      <point x="104" y="471" type="curve" smooth="yes"/>
      <point x="139" y="471"/>
      <point x="168" y="436"/>
      <point x="168" y="393" type="curve" smooth="yes"/>
      <point x="168" y="350"/>
      <point x="139" y="315"/>
      <point x="104" y="315" type="curve" smooth="yes"/>
      <point x="69" y="315"/>
      <point x="40" y="350"/>
      <point x="40" y="393" type="curve" smooth="yes"/>
      <point x="40" y="436"/>
      <point x="69" y="471"/>
    </contour>
    <contour>
      <point x="104" y="171" type="curve" smooth="yes"/>
      <point x="139" y="171"/>
      <point x="168" y="136"/>
      <point x="168" y="93" type="curve" smooth="yes"/>
      <point x="168" y="50"/>
      <point x="139" y="15"/>
      <point x="104" y="15" type="curve" smooth="yes"/>
      <point x="69" y="15"/>
      <point x="40" y="50"/>
      <point x="40" y="93" type="curve" smooth="yes"/>
      <point x="40" y="136"/>
      <point x="69" y="171"/>
    </contour>
  </outline>
</glyph>
<glyph name="semicolon" format="2">
  <advance width="224"/>
  <unicode hex="003B"/>
  <outline>
    <contour>
      <point x="21" y="91" type="line"/>
      <point x="112" y="228" type="line"/>
      <point x="142" y="211"/>
      <point x="193" y="151"/>
      <point x="193" y="72" type="curve" smooth="yes"/>
      <point x="193" y="0"/>
      <point x="146" y="-61"/>
      <point x="106" y="-91" type="curve"/>
      <point x="96" y="-82" type="line"/>
      <point x="121" y="-54"/>
      <point x="141" y="-25"/>
      <point x="141" y="13" type="curve" smooth="yes"/>
      <point x="141" y="65"/>
      <point x="97" y="110"/>
      <point x="70" y="129" type="curve"/>
      <point x="37" y="79" type="line"/>
    </contour>
    <contour>
      <point x="108" y="501" type="curve" smooth="yes"/>
      <point x="143" y="501"/>
      <point x="172" y="466"/>
      <point x="172" y="423" type="curve" smooth="yes"/>
      <point x="172" y="380"/>
      <point x="143" y="345"/>
      <point x="108" y="345" type="curve" smooth="yes"/>
      <point x="73" y="345"/>
      <point x="44" y="380"/>
      <point x="44" y="423" type="curve" smooth="yes"/>
      <point x="44" y="466"/>
      <point x="73" y="501"/>
    </contour>
  </outline>
</glyph>
<glyph name="bracketleft" format="2">
  <advance width="200"/>
  <unicode hex="005B"/>
  <outline>
    <contour>
      <point x="50" y="870" type="line"/>
      <point x="220" y="870" type="line"/>
      <point x="220" y="850" type="line"/>
      <point x="150" y="850" type="line"/>
      <point x="150" y="-50" type="line"/>
      <point x="220" y="-50" type="line"/>
      <point x="220" y="-70" type="line"/>
      <point x="50" y="-70" type="line"/>
    </contour>
  </outline>
</glyph>
<glyph name="bracketright" format="2">
  <advance width="200"/>
  <unicode hex="005D"/>
  <outline>
    <contour>
      <point x="150" y="-70" type="line"/>
      <point x="-20" y="-70" type="line"/>
      <point x="-20" y="-50" type="line"/>
      <point x="50" y="-50" type="line"/>
      <point x="50" y="850" type="line"/>
      <point x="-20" y="850" type="line"/>
      <point x="-20" y="870" type="line"/>
      <point x="150" y="870" type="line"/>
    </contour>
  </outline>
</glyph>
<glyph name="grave" format="2">
  <advance width="162"/>
  <unicode hex="0060"/>
  <outline>
    <contour>
      <point x="142" y="576" type="line"/>
      <point x="86" y="576" type="line"/>
      <point x="20" y="793" type="line"/>
      <point x="20" y="800" type="line"/>
      <point x="92" y="800" type="line"/>
      <point x="142" y="583" type="line"/>
    </contour>
  </outline>
</glyph>
<glyph name="guillemotleft" format="2">
  <advance width="270"/>
  <unicode hex="00AB"/>
  <outline>
    <contour>
      <point x="145" y="147" type="line"/>
      <point x="119" y="147" type="line"/>
      <point x="28" y="398" type="line"/>
      <point x="28" y="402" type="line"/>
      <point x="119" y="649" type="line"/>
      <point x="145" y="649" type="line"/>
      <point x="101" y="400" type="line"/>
    </contour>
    <contour>
      <point x="245" y="147" type="line"/>
      <point x="219" y="147" type="line"/>
      <point x="128" y="398" type="line"/>
      <point x="128" y="402" type="line"/>
      <point x="219" y="649" type="line"/>
      <point x="245" y="649" type="line"/>
      <point x="201" y="400" type="line"/>
    </contour>
  </outline>
</glyph>
<glyph name="paragraph" format="2">
  <advance width="360"/>
  <unicode hex="00B6"/>
  <outline>
    <contour>
      <point x="150" y="0" type="line"/>
      <point x="130" y="0" type="line"/>
      <point x="130" y="290" type="line"/>
      <point x="120" y="290" type="line" smooth="yes"/>
      <point x="69" y="290"/>
      <point x="40" y="319"/>
      <point x="40" y="374" type="curve" smooth="yes"/>
      <point x="40" y="716" type="line" smooth="yes"/>
      <point x="40" y="771"/>
      <point x="69" y="800"/>
      <point x="120" y="800" type="curve" smooth="yes"/>
      <point x="360" y="800" type="line"/>
      <point x="360" y="780" type="line"/>
      <point x="310" y="780" type="line"/>
      <point x="310" y="0" type="line"/>
      <point x="210" y="0" type="line"/>
      <point x="210" y="780" type="line"/>
      <point x="150" y="780" type="line"/>
    </contour>
  </outline>
</glyph>
<glyph name="periodcentered" format="2">
  <advance width="159"/>
  <unicode hex="00B7"/>
  <outline>
    <contour>
      <point x="37" y="400" type="curve" smooth="yes"/>
      <point x="37" y="425"/>
      <point x="57" y="445"/>
      <point x="81" y="445" type="curve" smooth="yes"/>
      <point x="105" y="445"/>
      <point x="125" y="425"/>
      <point x="125" y="400" type="curve" smooth="yes"/>
      <point x="125" y="375"/>
      <point x="105" y="355"/>
      <point x="81" y="355" type="curve" smooth="yes"/>
      <point x="57" y="355"/>
      <point x="37" y="375"/>
    </contour>
  </outline>
</glyph>
<glyph name="guillemotright" format="2">
  <advance width="270"/>
  <unicode hex="00BB"/>
  <outline>
    <contour>
      <point x="242" y="398" type="line"/>
      <point x="151" y="147" type="line"/>
      <point x="125" y="147" type="line"/>
      <point x="169" y="400" type="line"/>
      <point x="125" y="649" type="line"/>
      <point x="151" y="649" type="line"/>
      <point x="242" y="402" type="line"/>
    </contour>
    <contour>
      <point x="142" y="398" type="line"/>
      <point x="51" y="147" type="line"/>
      <point x="25" y="147" type="line"/>
      <point x="69" y="400" type="line"/>
      <point x="25" y="649" type="line"/>
      <point x="51" y="649" type="line"/>
      <point x="142" y="402" type="line"/>
    </contour>
  </outline>
</glyph>
<glyph name="gravecomb" format="2">
  <advance width="1"/>
  <unicode hex="0300"/>
  <anchor x="-93" y="696" name="_Stack"/>
  <anchor x="-94" y="858" name="Stack"/>
  <anchor x="-94" y="694" name="_Above"/>
  <outline>
    <contour>
      <point x="-91" y="733" type="line"/>
      <point x="-91" y="694" type="line"/>
      <point x="-98" y="694" type="line"/>
      <point x="-263" y="765" type="line"/>
      <point x="-263" y="810" type="line"/>
      <point x="-256" y="810" type="line"/>
    </contour>
  </outline>
</glyph>
<glyph name="acutecomb" format="2">
  <advance width="1"/>
  <unicode hex="0301"/>
  <anchor x="-125" y="934" name="Stack"/>
  <anchor x="-148" y="691" name="_Stack"/>
  <anchor x="-150" y="690" name="_Above"/>
  <outline>
    <contour>
      <point x="-148" y="691" type="line"/>
      <point x="-184" y="691" type="line"/>
      <point x="-184" y="698" type="line"/>
      <point x="-144" y="873" type="line"/>
      <point x="-102" y="873" type="line"/>
      <point x="-102" y="866" type="line"/>
    </contour>
  </outline>
</glyph>
<glyph name="uni0306" format="2">
  <advance width="0"/>
  <unicode hex="0306"/>
  <anchor x="-137" y="872" name="Stack"/>
  <anchor x="-151" y="664" name="_Stack"/>
  <anchor x="-148" y="656" name="_Above"/>
  <outline>
    <contour>
      <point x="-70" y="800" type="curve"/>
      <point x="-54" y="800" type="line"/>
      <point x="-54" y="800"/>
      <point x="-54" y="799"/>
      <point x="-54" y="798" type="curve" smooth="yes"/>
      <point x="-54" y="791"/>
      <point x="-57" y="771"/>
      <point x="-61" y="760" type="curve" smooth="yes"/>
      <point x="-75" y="715"/>
      <point x="-101" y="662"/>
      <point x="-147" y="662" type="curve" smooth="yes"/>
      <point x="-179" y="662"/>
      <point x="-200" y="702"/>
      <point x="-200" y="738" type="curve" smooth="yes"/>
      <point x="-200" y="765"/>
      <point x="-190" y="793"/>
      <point x="-185" y="802" type="curve"/>
      <point x="-169" y="802" type="line"/>
      <point x="-173" y="792"/>
      <point x="-178" y="778"/>
      <point x="-178" y="761" type="curve" smooth="yes"/>
      <point x="-178" y="740"/>
      <point x="-158" y="722"/>
      <point x="-138" y="722" type="curve" smooth="yes"/>
      <point x="-97" y="722"/>
      <point x="-71" y="767"/>
    </contour>
  </outline>
</glyph>
<glyph name="uni0308" format="2">
  <advance width="0"/>
  <unicode hex="0308"/>
  <anchor x="-144" y="855" name="Stack"/>
  <anchor x="-131" y="678" name="_Stack"/>
  <anchor x="-132" y="678" name="_Above"/>
  <outline>
    <contour>
      <point x="-190" y="771" type="line"/>
      <point x="-153" y="688" type="line"/>
      <point x="-153" y="680" type="line"/>
      <point x="-196" y="680" type="line"/>
      <point x="-233" y="763" type="line"/>
      <point x="-233" y="771" type="line"/>
    </contour>
    <contour>
      <point x="-100" y="771" type="line"/>
      <point x="-63" y="688" type="line"/>
      <point x="-63" y="680" type="line"/>
      <point x="-106" y="680" type="line"/>
      <point x="-143" y="763" type="line"/>
      <point x="-143" y="771" type="line"/>
    </contour>
  </outline>
</glyph>
<glyph name="uni030F" format="2">
  <advance width="0"/>
  <unicode hex="030F"/>
  <anchor x="-127" y="838" name="Stack"/>
  <anchor x="-100" y="662" name="_Stack"/>
  <anchor x="-100" y="662" name="_Above"/>
  <outline>
    <contour>
      <point x="-33" y="664" type="line"/>
      <point x="-69" y="664" type="line"/>
      <point x="-156" y="780" type="line"/>
      <point x="-156" y="787" type="line"/>
      <point x="-114" y="787" type="line"/>
      <point x="-33" y="671" type="line"/>
    </contour>
    <contour>
      <point x="-123" y="664" type="line"/>
      <point x="-159" y="664" type="line"/>
      <point x="-246" y="780" type="line"/>
      <point x="-246" y="787" type="line"/>
      <point x="-204" y="787" type="line"/>
      <point x="-123" y="671" type="line"/>
    </contour>
  </outline>
</glyph>
<glyph name="uni0311" format="2">
  <advance width="1"/>
  <unicode hex="0311"/>
  <anchor x="-153" y="855" name="Stack"/>
  <anchor x="-152" y="662" name="_Stack"/>
  <anchor x="-151" y="662" name="_Above"/>
  <outline>
    <contour>
      <point x="-156" y="751" type="curve" smooth="yes"/>
      <point x="-194" y="751"/>
      <point x="-209" y="712"/>
      <point x="-209" y="675" type="curve" smooth="yes"/>
      <point x="-209" y="664" type="line"/>
      <point x="-247" y="664" type="line"/>
      <point x="-247" y="674" type="line" smooth="yes"/>
      <point x="-247" y="734"/>
      <point x="-214" y="788"/>
      <point x="-156" y="788" type="curve" smooth="yes"/>
      <point x="-98" y="788"/>
      <point x="-65" y="734"/>
      <point x="-65" y="674" type="curve" smooth="yes"/>
      <point x="-65" y="664" type="line"/>
      <point x="-103" y="664" type="line"/>
      <point x="-103" y="675" type="line" smooth="yes"/>
      <point x="-103" y="712"/>
      <point x="-118" y="751"/>
    </contour>
  </outline>
</glyph>
<glyph name="uni033E" format="2">
  <advance width="1"/>
  <unicode hex="033E"/>
  <anchor x="-99" y="908" name="Stack"/>
  <anchor x="-98" y="652" name="_Stack"/>
  <anchor x="-98" y="652" name="_Yerik"/>
  <outline>
    <contour>
      <point x="-58" y="707" type="line"/>
      <point x="-169" y="649" type="line"/>
      <point x="-179" y="667" type="line"/>
      <point x="-125" y="695" type="line"/>
      <point x="-158" y="807" type="line"/>
      <point x="-51" y="862" type="line"/>
      <point x="-41" y="844" type="line"/>
      <point x="-90" y="818" type="line"/>
    </contour>
  </outline>
</glyph>
<glyph name="afii10055" format="2">
  <advance width="200"/>
  <unicode hex="0406"/>
  <anchor x="130" y="852" name="Yerik"/>
  <anchor x="97" y="852" name="Above"/>
  <outline>
    <contour>
      <point x="150" y="0" type="line"/>
      <point x="50" y="0" type="line"/>
      <point x="50" y="800" type="line"/>
      <point x="150" y="800" type="line"/>
    </contour>
  </outline>
</glyph>
<glyph name="afii10056" format="2">
  <advance width="200"/>
  <unicode hex="0407"/>
  <anchor x="98" y="990" name="Yerik"/>
  <anchor x="98" y="990" name="Above"/>
  <outline>
    <contour>
      <point x="150" y="0" type="line"/>
      <point x="50" y="0" type="line"/>
      <point x="50" y="800" type="line"/>
      <point x="150" y="800" type="line"/>
    </contour>
    <contour>
      <point x="66" y="945" type="line"/>
      <point x="103" y="862" type="line"/>
      <point x="103" y="854" type="line"/>
      <point x="60" y="854" type="line"/>
      <point x="23" y="937" type="line"/>
      <point x="23" y="945" type="line"/>
    </contour>
    <contour>
      <point x="156" y="945" type="line"/>
      <point x="193" y="862" type="line"/>
      <point x="193" y="854" type="line"/>
      <point x="150" y="854" type="line"/>
      <point x="113" y="937" type="line"/>
      <point x="113" y="945" type="line"/>
    </contour>
  </outline>
</glyph>
<glyph name="uni0408" format="2">
  <advance width="358"/>
  <unicode hex="0408"/>
  <anchor x="239" y="852" name="Above"/>
  <anchor x="272" y="852" name="Yerik"/>
  <outline>
    <contour>
      <point x="208" y="32" type="curve"/>
      <point x="208" y="800" type="line"/>
      <point x="308" y="800" type="line"/>
      <point x="308" y="243" type="line"/>
      <point x="306" y="74"/>
      <point x="271" y="16"/>
      <point x="210" y="0" type="curve"/>
      <point x="204" y="0"/>
      <point x="198" y="0"/>
      <point x="192" y="0" type="curve" smooth="yes"/>
      <point x="104" y="0"/>
      <point x="64" y="114"/>
      <point x="53" y="213" type="curve" smooth="yes"/>
      <point x="50" y="241"/>
      <point x="50" y="259"/>
      <point x="50" y="284" type="curve"/>
      <point x="160" y="284" type="line"/>
      <point x="160" y="32" type="line"/>
      <point x="166" y="22"/>
      <point x="176" y="17"/>
      <point x="185" y="17" type="curve" smooth="yes"/>
      <point x="192" y="17"/>
      <point x="202" y="21"/>
    </contour>
  </outline>
</glyph>
<glyph name="uni040A" format="2">
  <advance width="520"/>
  <unicode hex="040A"/>
  <anchor x="267" y="852" name="Above"/>
  <anchor x="417" y="852" name="Yerik"/>
  <outline>
    <contour>
      <point x="150" y="0" type="line"/>
      <point x="50" y="0" type="line"/>
      <point x="50" y="800" type="line"/>
      <point x="150" y="800" type="line"/>
      <point x="150" y="459" type="line"/>
      <point x="160" y="447"/>
      <point x="172" y="435"/>
      <point x="187" y="421" type="curve" smooth="yes"/>
      <point x="195" y="413"/>
      <point x="202" y="406"/>
      <point x="210" y="400" type="curve"/>
      <point x="210" y="800" type="line"/>
      <point x="310" y="800" type="line"/>
      <point x="310" y="463" type="line"/>
      <point x="328" y="437"/>
      <point x="352" y="413"/>
      <point x="382" y="394" type="curve" smooth="yes"/>
      <point x="413" y="375"/>
      <point x="449" y="360"/>
      <point x="470" y="360" type="curve"/>
      <point x="470" y="0" type="line"/>
      <point x="310" y="0" type="line"/>
      <point x="210" y="0" type="line"/>
      <point x="210" y="374" type="line"/>
      <point x="198" y="383"/>
      <point x="186" y="394"/>
      <point x="173" y="407" type="curve" smooth="yes"/>
      <point x="164" y="415"/>
      <point x="157" y="422"/>
      <point x="150" y="429" type="curve"/>
    </contour>
    <contour>
      <point x="310" y="20" type="line"/>
      <point x="370" y="20" type="line"/>
      <point x="370" y="378" type="line"/>
      <point x="346" y="394"/>
      <point x="326" y="413"/>
      <point x="310" y="432" type="curve"/>
    </contour>
  </outline>
</glyph>
<glyph name="uni040B" format="2">
  <advance width="520"/>
  <unicode hex="040B"/>
  <anchor x="277" y="852" name="Above"/>
  <anchor x="418" y="852" name="Yerik"/>
  <outline>
    <contour>
      <point x="210" y="0" type="line"/>
      <point x="210" y="780" type="line"/>
      <point x="150" y="780" type="line"/>
      <point x="150" y="480" type="line"/>
      <point x="50" y="480" type="line"/>
      <point x="50" y="800" type="line"/>
      <point x="470" y="800" type="line"/>
      <point x="470" y="570" type="line"/>
      <point x="370" y="570" type="line"/>
      <point x="370" y="780" type="line"/>
      <point x="310" y="780" type="line"/>
      <point x="310" y="463" type="line"/>
      <point x="328" y="437"/>
      <point x="352" y="413"/>
      <point x="382" y="394" type="curve" smooth="yes"/>
      <point x="413" y="375"/>
      <point x="449" y="360"/>
      <point x="470" y="360" type="curve"/>
      <point x="470" y="0" type="line"/>
      <point x="370" y="0" type="line"/>
      <point x="370" y="378" type="line"/>
      <point x="346" y="394"/>
      <point x="326" y="413"/>
      <point x="310" y="432" type="curve"/>
      <point x="310" y="0" type="line"/>
    </contour>
  </outline>
</glyph>
<glyph name="uni040D" format="2">
  <advance width="360"/>
  <unicode hex="040D"/>
  <anchor x="189" y="1000" name="Yerik"/>
  <anchor x="188" y="1000" name="Above"/>
  <outline>
    <contour>
      <point x="252" y="903" type="line"/>
      <point x="252" y="864" type="line"/>
      <point x="245" y="864" type="line"/>
      <point x="80" y="935" type="line"/>
      <point x="80" y="980" type="line"/>
      <point x="87" y="980" type="line"/>
    </contour>
    <contour>
      <point x="150" y="400" type="line"/>
      <point x="170" y="417"/>
      <point x="194" y="441"/>
      <point x="210" y="459" type="curve"/>
      <point x="210" y="800" type="line"/>
      <point x="310" y="800" type="line"/>
      <point x="310" y="0" type="line"/>
      <point x="210" y="0" type="line"/>
      <point x="210" y="429" type="line"/>
      <point x="187" y="407" type="line" smooth="yes"/>
      <point x="173" y="394"/>
      <point x="161" y="383"/>
      <point x="150" y="374" type="curve"/>
      <point x="150" y="0" type="line"/>
      <point x="50" y="0" type="line"/>
      <point x="50" y="800" type="line"/>
      <point x="150" y="800" type="line"/>
    </contour>
  </outline>
</glyph>
<glyph name="afii10062" format="2">
  <advance width="350"/>
  <unicode hex="040E"/>
  <anchor x="190" y="1016" name="Yerik"/>
  <anchor x="190" y="1016" name="Above"/>
  <outline>
    <contour>
      <point x="245" y="960" type="curve"/>
      <point x="261" y="960" type="line"/>
      <point x="261" y="960"/>
      <point x="261" y="959"/>
      <point x="261" y="958" type="curve" smooth="yes"/>
      <point x="261" y="951"/>
      <point x="258" y="931"/>
      <point x="254" y="920" type="curve" smooth="yes"/>
      <point x="240" y="875"/>
      <point x="214" y="822"/>
      <point x="168" y="822" type="curve" smooth="yes"/>
      <point x="136" y="822"/>
      <point x="115" y="862"/>
      <point x="115" y="898" type="curve" smooth="yes"/>
      <point x="115" y="925"/>
      <point x="125" y="953"/>
      <point x="130" y="962" type="curve"/>
      <point x="146" y="962" type="line"/>
      <point x="142" y="952"/>
      <point x="137" y="938"/>
      <point x="137" y="921" type="curve" smooth="yes"/>
      <point x="137" y="900"/>
      <point x="157" y="882"/>
      <point x="177" y="882" type="curve" smooth="yes"/>
      <point x="218" y="882"/>
      <point x="244" y="927"/>
    </contour>
    <contour>
      <point x="326" y="800" type="line"/>
      <point x="319" y="784"/>
      <point x="312" y="769"/>
      <point x="308" y="749" type="curve" smooth="yes"/>
      <point x="304" y="729"/>
      <point x="301" y="700"/>
      <point x="300" y="687" type="curve"/>
      <point x="300" y="678" type="line"/>
      <point x="263" y="678" type="line" smooth="yes"/>
      <point x="242" y="678"/>
      <point x="220" y="669"/>
      <point x="217" y="621" type="curve" smooth="yes"/>
      <point x="198" y="328" type="line"/>
      <point x="196" y="94" type="line" smooth="yes"/>
      <point x="196" y="93"/>
      <point x="196" y="92"/>
      <point x="196" y="91" type="curve" smooth="yes"/>
      <point x="196" y="53"/>
      <point x="214" y="22"/>
      <point x="255" y="18" type="curve"/>
      <point x="255" y="0" type="line"/>
      <point x="93" y="0" type="line"/>
      <point x="93" y="18" type="line"/>
      <point x="137" y="21"/>
      <point x="175" y="50"/>
      <point x="176" y="95" type="curve" smooth="yes"/>
      <point x="177" y="291" type="line"/>
      <point x="83" y="291" type="line"/>
      <point x="27" y="800" type="line"/>
      <point x="132" y="800" type="line"/>
      <point x="179" y="368" type="line"/>
      <point x="196" y="627" type="line" smooth="yes"/>
      <point x="204" y="754"/>
      <point x="227" y="808"/>
      <point x="280" y="808" type="curve" smooth="yes"/>
      <point x="326" y="808" type="line"/>
    </contour>
  </outline>
</glyph>
<glyph name="afii10024" format="2">
  <advance width="520"/>
  <unicode hex="0416"/>
  <anchor x="420" y="852" name="Yerik"/>
  <anchor x="258" y="852" name="Above"/>
  <outline>
    <contour>
      <point x="210" y="454" type="line"/>
      <point x="194" y="435"/>
      <point x="174" y="419"/>
      <point x="150" y="407" type="curve"/>
      <point x="150" y="0" type="line"/>
      <point x="50" y="0" type="line"/>
      <point x="50" y="400" type="line"/>
      <point x="69" y="401"/>
      <point x="128" y="413"/>
      <point x="162" y="437" type="curve" smooth="yes"/>
      <point x="184" y="452"/>
      <point x="206" y="473"/>
      <point x="206" y="495" type="curve" smooth="yes"/>
      <point x="206" y="517"/>
      <point x="184" y="538"/>
      <point x="162" y="553" type="curve" smooth="yes"/>
      <point x="128" y="577"/>
      <point x="69" y="589"/>
      <point x="50" y="590" type="curve"/>
      <point x="50" y="800" type="line"/>
      <point x="150" y="800" type="line"/>
      <point x="150" y="582" type="line"/>
      <point x="174" y="570"/>
      <point x="194" y="556"/>
      <point x="210" y="535" type="curve"/>
      <point x="210" y="800" type="line"/>
      <point x="310" y="800" type="line"/>
      <point x="310" y="535" type="line"/>
      <point x="325" y="555"/>
      <point x="345" y="571"/>
      <point x="370" y="582" type="curve"/>
      <point x="370" y="800" type="line"/>
      <point x="470" y="800" type="line"/>
      <point x="470" y="590" type="line"/>
      <point x="451" y="589"/>
      <point x="392" y="577"/>
      <point x="358" y="553" type="curve" smooth="yes"/>
      <point x="336" y="538"/>
      <point x="314" y="517"/>
      <point x="314" y="495" type="curve" smooth="yes"/>
      <point x="314" y="473"/>
      <point x="336" y="452"/>
      <point x="358" y="437" type="curve" smooth="yes"/>
      <point x="392" y="413"/>
      <point x="451" y="401"/>
      <point x="470" y="400" type="curve"/>
      <point x="470" y="0" type="line"/>
      <point x="370" y="0" type="line"/>
      <point x="370" y="407" type="line"/>
      <point x="346" y="418"/>
      <point x="326" y="435"/>
      <point x="310" y="454" type="curve"/>
      <point x="310" y="0" type="line"/>
      <point x="210" y="0" type="line"/>
    </contour>
  </outline>
</glyph>
<glyph name="afii10035" format="2">
  <advance width="375"/>
  <unicode hex="0421"/>
  <anchor x="284" y="852" name="Yerik"/>
  <anchor x="188" y="852" name="Above"/>
  <outline>
    <contour>
      <point x="132" y="-8" type="curve" smooth="yes"/>
      <point x="81" y="-8"/>
      <point x="44" y="34"/>
      <point x="44" y="90" type="curve" smooth="yes"/>
      <point x="44" y="112"/>
      <point x="56" y="135"/>
      <point x="85" y="135" type="curve" smooth="yes"/>
      <point x="115" y="135"/>
      <point x="127" y="112"/>
      <point x="127" y="90" type="curve" smooth="yes"/>
      <point x="127" y="65"/>
      <point x="108" y="48"/>
      <point x="85" y="48" type="curve" smooth="yes"/>
      <point x="81" y="48"/>
      <point x="77" y="48"/>
      <point x="73" y="49" type="curve"/>
      <point x="79" y="37"/>
      <point x="87" y="26"/>
      <point x="101" y="26" type="curve" smooth="yes"/>
      <point x="135" y="26"/>
      <point x="142" y="52"/>
      <point x="142" y="72" type="curve" smooth="yes"/>
      <point x="142" y="113"/>
      <point x="116" y="177"/>
      <point x="99" y="228" type="curve" smooth="yes"/>
      <point x="78" y="293"/>
      <point x="50" y="400"/>
      <point x="50" y="494" type="curve" smooth="yes"/>
      <point x="50" y="601"/>
      <point x="89" y="808"/>
      <point x="189" y="808" type="curve" smooth="yes"/>
      <point x="292" y="808"/>
      <point x="324" y="610"/>
      <point x="328" y="519" type="curve"/>
      <point x="218" y="519" type="line"/>
      <point x="218" y="775" type="line"/>
      <point x="212" y="785"/>
      <point x="202" y="790"/>
      <point x="188" y="790" type="curve" smooth="yes"/>
      <point x="175" y="790"/>
      <point x="163" y="785"/>
      <point x="159" y="775" type="curve" smooth="yes"/>
      <point x="158" y="760"/>
      <point x="154" y="711"/>
      <point x="154" y="660" type="curve" smooth="yes"/>
      <point x="154" y="608"/>
      <point x="158" y="533"/>
      <point x="161" y="477" type="curve" smooth="yes"/>
      <point x="166" y="361"/>
      <point x="177" y="337"/>
      <point x="177" y="246" type="curve" smooth="yes"/>
      <point x="177" y="180"/>
      <point x="168" y="72"/>
      <point x="158" y="41" type="curve" smooth="yes"/>
      <point x="152" y="23"/>
      <point x="140" y="14"/>
      <point x="127" y="12" type="curve"/>
      <point x="132" y="12" type="line" smooth="yes"/>
      <point x="156" y="12"/>
      <point x="169" y="26"/>
      <point x="178" y="36" type="curve" smooth="yes"/>
      <point x="194" y="54"/>
      <point x="218" y="128"/>
      <point x="218" y="190" type="curve" smooth="yes"/>
      <point x="218" y="342" type="line"/>
      <point x="328" y="342" type="line"/>
      <point x="323" y="261"/>
      <point x="298" y="118"/>
      <point x="203" y="28" type="curve" smooth="yes"/>
      <point x="183" y="9"/>
      <point x="163" y="-8"/>
    </contour>
  </outline>
</glyph>
<glyph name="afii10038" format="2">
  <advance width="560"/>
  <unicode hex="0424"/>
  <anchor x="440" y="800" name="Yerik"/>
  <anchor x="283" y="852" name="Above"/>
  <outline>
    <contour>
      <point x="330" y="0" type="line"/>
      <point x="230" y="0" type="line"/>
      <point x="230" y="159" type="line"/>
      <point x="211" y="141"/>
      <point x="186" y="125"/>
      <point x="161" y="125" type="curve" smooth="yes"/>
      <point x="85" y="125"/>
      <point x="50" y="203"/>
      <point x="50" y="278" type="curve" smooth="yes"/>
      <point x="50" y="417"/>
      <point x="104" y="479"/>
      <point x="171" y="560" type="curve" smooth="yes"/>
      <point x="182" y="576"/>
      <point x="216" y="614"/>
      <point x="216" y="650" type="curve" smooth="yes"/>
      <point x="216" y="672"/>
      <point x="201" y="707"/>
      <point x="176" y="707" type="curve"/>
      <point x="168" y="703"/>
      <point x="167" y="685"/>
      <point x="167" y="672" type="curve" smooth="yes"/>
      <point x="167" y="644"/>
      <point x="171" y="617"/>
      <point x="173" y="597" type="curve"/>
      <point x="173" y="590" type="line"/>
      <point x="67" y="590" type="line"/>
      <point x="67" y="597" type="line"/>
      <point x="79" y="661"/>
      <point x="107" y="730"/>
      <point x="161" y="730" type="curve" smooth="yes"/>
      <point x="199" y="730"/>
      <point x="220" y="711"/>
      <point x="230" y="686" type="curve"/>
      <point x="230" y="800" type="line"/>
      <point x="330" y="800" type="line"/>
      <point x="330" y="686" type="line"/>
      <point x="339" y="711"/>
      <point x="361" y="730"/>
      <point x="399" y="730" type="curve" smooth="yes"/>
      <point x="453" y="730"/>
      <point x="481" y="661"/>
      <point x="493" y="597" type="curve"/>
      <point x="493" y="590" type="line"/>
      <point x="387" y="590" type="line"/>
      <point x="387" y="597" type="line"/>
      <point x="389" y="617"/>
      <point x="393" y="644"/>
      <point x="393" y="672" type="curve" smooth="yes"/>
      <point x="393" y="685"/>
      <point x="392" y="703"/>
      <point x="384" y="707" type="curve"/>
      <point x="359" y="707"/>
      <point x="344" y="672"/>
      <point x="344" y="650" type="curve" smooth="yes"/>
      <point x="344" y="614"/>
      <point x="378" y="576"/>
      <point x="389" y="560" type="curve" smooth="yes"/>
      <point x="456" y="479"/>
      <point x="510" y="417"/>
      <point x="510" y="278" type="curve" smooth="yes"/>
      <point x="510" y="203"/>
      <point x="475" y="125"/>
      <point x="399" y="125" type="curve" smooth="yes"/>
      <point x="373" y="125"/>
      <point x="348" y="141"/>
      <point x="330" y="159" type="curve"/>
    </contour>
    <contour>
      <point x="362" y="555" type="curve" smooth="yes"/>
      <point x="349" y="579"/>
      <point x="337" y="595"/>
      <point x="330" y="614" type="curve"/>
      <point x="330" y="187" type="line"/>
      <point x="344" y="172"/>
      <point x="359" y="159"/>
      <point x="375" y="159" type="curve" smooth="yes"/>
      <point x="400" y="159"/>
      <point x="400" y="244"/>
      <point x="400" y="296" type="curve" smooth="yes"/>
      <point x="400" y="373"/>
      <point x="392" y="439"/>
      <point x="382" y="494" type="curve" smooth="yes"/>
      <point x="379" y="512"/>
      <point x="369" y="539"/>
    </contour>
    <contour>
      <point x="185" y="159" type="curve" smooth="yes"/>
      <point x="200" y="159"/>
      <point x="216" y="172"/>
      <point x="230" y="187" type="curve"/>
      <point x="230" y="614" type="line"/>
      <point x="223" y="595"/>
      <point x="210" y="579"/>
      <point x="198" y="555" type="curve" smooth="yes"/>
      <point x="191" y="539"/>
      <point x="181" y="512"/>
      <point x="178" y="494" type="curve" smooth="yes"/>
      <point x="168" y="439"/>
      <point x="160" y="373"/>
      <point x="160" y="296" type="curve" smooth="yes"/>
      <point x="160" y="244"/>
      <point x="160" y="159"/>
    </contour>
  </outline>
</glyph>
<glyph name="afii10048" format="2">
  <advance width="512"/>
  <unicode hex="042E"/>
  <anchor x="414" y="852" name="Yerik"/>
  <anchor x="248" y="852" name="Above"/>
  <outline>
    <contour>
      <point x="150" y="0" type="line"/>
      <point x="50" y="0" type="line"/>
      <point x="50" y="800" type="line"/>
      <point x="150" y="800" type="line"/>
      <point x="150" y="402" type="line"/>
      <point x="198" y="430" type="line"/>
      <point x="198" y="556"/>
      <point x="251" y="652"/>
      <point x="300" y="730" type="curve" smooth="yes"/>
      <point x="318" y="760"/>
      <point x="337" y="788"/>
      <point x="342" y="808" type="curve"/>
      <point x="365" y="808" type="line"/>
      <point x="364" y="800"/>
      <point x="364" y="793"/>
      <point x="364" y="786" type="curve" smooth="yes"/>
      <point x="364" y="714"/>
      <point x="394" y="655"/>
      <point x="422" y="584" type="curve" smooth="yes"/>
      <point x="447" y="524"/>
      <point x="467" y="449"/>
      <point x="467" y="374" type="curve" smooth="yes"/>
      <point x="467" y="246"/>
      <point x="415" y="149"/>
      <point x="365" y="70" type="curve" smooth="yes"/>
      <point x="347" y="40"/>
      <point x="328" y="12"/>
      <point x="323" y="-8" type="curve"/>
      <point x="300" y="-8" type="line"/>
      <point x="301" y="0"/>
      <point x="301" y="7"/>
      <point x="301" y="14" type="curve" smooth="yes"/>
      <point x="301" y="86"/>
      <point x="271" y="145"/>
      <point x="243" y="216" type="curve" smooth="yes"/>
      <point x="220" y="271"/>
      <point x="201" y="338"/>
      <point x="198" y="406" type="curve"/>
      <point x="150" y="379" type="line"/>
    </contour>
    <contour>
      <point x="285" y="667" type="curve"/>
      <point x="269" y="639"/>
      <point x="261" y="619"/>
      <point x="261" y="573" type="curve" smooth="yes"/>
      <point x="261" y="514"/>
      <point x="285" y="434"/>
      <point x="307" y="362" type="curve" smooth="yes"/>
      <point x="327" y="288"/>
      <point x="364" y="209"/>
      <point x="379" y="132" type="curve"/>
      <point x="386" y="145"/>
      <point x="392" y="157"/>
      <point x="397" y="168" type="curve" smooth="yes"/>
      <point x="401" y="180"/>
      <point x="404" y="205"/>
      <point x="404" y="227" type="curve" smooth="yes"/>
      <point x="404" y="286"/>
      <point x="380" y="366"/>
      <point x="358" y="438" type="curve" smooth="yes"/>
      <point x="338" y="511"/>
      <point x="300" y="592"/>
    </contour>
  </outline>
</glyph>
<glyph name="afii10065" format="2">
  <advance width="360"/>
  <unicode hex="0430"/>
  <anchor x="268" y="852" name="Yerik"/>
  <anchor x="182" y="852" name="Above"/>
  <outline>
    <contour>
      <point x="50" y="610" type="line"/>
      <point x="107" y="627"/>
      <point x="168" y="665"/>
      <point x="210" y="704" type="curve"/>
      <point x="210" y="780" type="line"/>
      <point x="150" y="780" type="line"/>
      <point x="150" y="690" type="line"/>
      <point x="50" y="690" type="line"/>
      <point x="50" y="800" type="line"/>
      <point x="310" y="800" type="line"/>
      <point x="310" y="0" type="line"/>
      <point x="210" y="0" type="line"/>
      <point x="210" y="448" type="line"/>
      <point x="197" y="436"/>
      <point x="181" y="424"/>
      <point x="162" y="414" type="curve" smooth="yes"/>
      <point x="150" y="407" type="line"/>
      <point x="150" y="0" type="line"/>
      <point x="50" y="0" type="line"/>
      <point x="50" y="400" type="line"/>
      <point x="106" y="400"/>
      <point x="179" y="442"/>
      <point x="210" y="477" type="curve"/>
      <point x="210" y="511" type="line"/>
      <point x="175" y="479"/>
      <point x="102" y="443"/>
      <point x="50" y="443" type="curve"/>
    </contour>
    <contour>
      <point x="162" y="642" type="curve" smooth="yes"/>
      <point x="158" y="639"/>
      <point x="154" y="636"/>
      <point x="150" y="634" type="curve"/>
      <point x="150" y="494" type="line"/>
      <point x="176" y="507"/>
      <point x="195" y="523"/>
      <point x="210" y="540" type="curve"/>
      <point x="210" y="677" type="line"/>
      <point x="195" y="664"/>
      <point x="180" y="653"/>
    </contour>
  </outline>
</glyph>
<glyph name="afii10069" format="2">
  <advance width="394"/>
  <unicode hex="0434"/>
  <anchor x="272" y="852" name="Yerik"/>
  <anchor x="201" y="852" name="Above"/>
  <outline>
    <contour>
      <point x="167" y="620" type="line"/>
      <point x="67" y="620" type="line"/>
      <point x="67" y="800" type="line"/>
      <point x="327" y="800" type="line"/>
      <point x="327" y="20" type="line"/>
      <point x="374" y="20" type="line"/>
      <point x="374" y="10" type="line"/>
      <point x="281" y="-116" type="line"/>
      <point x="274" y="-116" type="line"/>
      <point x="274" y="0" type="line"/>
      <point x="120" y="0" type="line"/>
      <point x="120" y="-116" type="line"/>
      <point x="113" y="-116" type="line"/>
      <point x="20" y="10" type="line"/>
      <point x="20" y="20" type="line"/>
      <point x="67" y="20" type="line"/>
      <point x="67" y="400" type="line"/>
      <point x="88" y="400"/>
      <point x="124" y="415"/>
      <point x="155" y="434" type="curve" smooth="yes"/>
      <point x="185" y="453"/>
      <point x="208" y="477"/>
      <point x="227" y="503" type="curve"/>
      <point x="227" y="780" type="line"/>
      <point x="167" y="780" type="line"/>
    </contour>
    <contour>
      <point x="227" y="20" type="line"/>
      <point x="227" y="472" type="line"/>
      <point x="210" y="452"/>
      <point x="190" y="434"/>
      <point x="167" y="418" type="curve"/>
      <point x="167" y="20" type="line"/>
    </contour>
  </outline>
</glyph>
<glyph name="afii10073" format="2">
  <advance width="377"/>
  <unicode hex="0437"/>
  <anchor x="274" y="852" name="Yerik"/>
  <anchor x="189" y="852" name="Above"/>
  <outline>
    <contour>
      <point x="50" y="557" type="line"/>
      <point x="50" y="675"/>
      <point x="87" y="808"/>
      <point x="189" y="808" type="curve" smooth="yes"/>
      <point x="262" y="808"/>
      <point x="324" y="718"/>
      <point x="324" y="631" type="curve" smooth="yes"/>
      <point x="324" y="543"/>
      <point x="294" y="468"/>
      <point x="221" y="452" type="curve"/>
      <point x="288" y="428"/>
      <point x="327" y="337"/>
      <point x="327" y="236" type="curve" smooth="yes"/>
      <point x="327" y="117"/>
      <point x="281" y="-8"/>
      <point x="192" y="-8" type="curve" smooth="yes"/>
      <point x="104" y="-8"/>
      <point x="65" y="106"/>
      <point x="53" y="205" type="curve" smooth="yes"/>
      <point x="50" y="233"/>
      <point x="50" y="251"/>
      <point x="50" y="276" type="curve"/>
      <point x="160" y="276" type="line"/>
      <point x="160" y="24" type="line"/>
      <point x="166" y="14"/>
      <point x="176" y="9"/>
      <point x="190" y="9" type="curve" smooth="yes"/>
      <point x="203" y="9"/>
      <point x="213" y="14"/>
      <point x="219" y="24" type="curve"/>
      <point x="219" y="425" type="line"/>
      <point x="214" y="436"/>
      <point x="203" y="440"/>
      <point x="190" y="440" type="curve" smooth="yes"/>
      <point x="176" y="440"/>
      <point x="166" y="435"/>
      <point x="160" y="425" type="curve"/>
      <point x="160" y="348" type="line"/>
      <point x="50" y="348" type="line"/>
      <point x="50" y="367"/>
      <point x="53" y="400"/>
      <point x="69" y="418" type="curve" smooth="yes"/>
      <point x="101" y="454"/>
      <point x="137" y="458"/>
      <point x="185" y="458" type="curve" smooth="yes"/>
      <point x="193" y="458" type="line"/>
      <point x="210" y="465"/>
      <point x="219" y="477"/>
      <point x="219" y="496" type="curve" smooth="yes"/>
      <point x="219" y="775" type="line"/>
      <point x="214" y="786"/>
      <point x="203" y="790"/>
      <point x="190" y="790" type="curve" smooth="yes"/>
      <point x="176" y="790"/>
      <point x="166" y="785"/>
      <point x="160" y="775" type="curve"/>
      <point x="160" y="557" type="line"/>
    </contour>
  </outline>
</glyph>
<glyph name="afii10075" format="2">
  <advance width="360"/>
  <unicode hex="0439"/>
  <anchor x="188" y="1016" name="Yerik"/>
  <anchor x="189" y="1016" name="Above"/>
  <outline>
    <contour>
      <point x="210" y="429" type="line"/>
      <point x="193" y="412"/>
      <point x="167" y="388"/>
      <point x="150" y="374" type="curve"/>
      <point x="150" y="0" type="line"/>
      <point x="50" y="0" type="line"/>
      <point x="50" y="800" type="line"/>
      <point x="150" y="800" type="line"/>
      <point x="150" y="400" type="line"/>
      <point x="170" y="417"/>
      <point x="194" y="441"/>
      <point x="210" y="459" type="curve"/>
      <point x="210" y="800" type="line"/>
      <point x="310" y="800" type="line"/>
      <point x="310" y="0" type="line"/>
      <point x="210" y="0" type="line"/>
    </contour>
    <contour>
      <point x="245" y="960" type="curve"/>
      <point x="261" y="960" type="line"/>
      <point x="261" y="960"/>
      <point x="261" y="959"/>
      <point x="261" y="958" type="curve" smooth="yes"/>
      <point x="261" y="951"/>
      <point x="258" y="931"/>
      <point x="254" y="920" type="curve" smooth="yes"/>
      <point x="240" y="875"/>
      <point x="214" y="822"/>
      <point x="168" y="822" type="curve" smooth="yes"/>
      <point x="136" y="822"/>
      <point x="115" y="862"/>
      <point x="115" y="898" type="curve" smooth="yes"/>
      <point x="115" y="925"/>
      <point x="125" y="953"/>
      <point x="130" y="962" type="curve"/>
      <point x="146" y="962" type="line"/>
      <point x="142" y="952"/>
      <point x="137" y="938"/>
      <point x="137" y="921" type="curve" smooth="yes"/>
      <point x="137" y="900"/>
      <point x="157" y="882"/>
      <point x="177" y="882" type="curve" smooth="yes"/>
      <point x="218" y="882"/>
      <point x="244" y="927"/>
    </contour>
  </outline>
</glyph>
<glyph name="afii10076" format="2">
  <advance width="360"/>
  <unicode hex="043A"/>
  <anchor x="263" y="852" name="Yerik"/>
  <anchor x="180" y="852" name="Above"/>
  <outline>
    <contour>
      <point x="150" y="535" type="line"/>
      <point x="165" y="555"/>
      <point x="185" y="571"/>
      <point x="210" y="582" type="curve"/>
      <point x="210" y="800" type="line"/>
      <point x="310" y="800" type="line"/>
      <point x="310" y="590" type="line"/>
      <point x="291" y="589"/>
      <point x="232" y="577"/>
      <point x="198" y="553" type="curve" smooth="yes"/>
      <point x="176" y="538"/>
      <point x="154" y="517"/>
      <point x="154" y="495" type="curve" smooth="yes"/>
      <point x="154" y="473"/>
      <point x="176" y="452"/>
      <point x="198" y="437" type="curve" smooth="yes"/>
      <point x="232" y="413"/>
      <point x="291" y="401"/>
      <point x="310" y="400" type="curve"/>
      <point x="310" y="0" type="line"/>
      <point x="210" y="0" type="line"/>
      <point x="210" y="407" type="line"/>
      <point x="186" y="418"/>
      <point x="166" y="435"/>
      <point x="150" y="454" type="curve"/>
      <point x="150" y="0" type="line"/>
      <point x="50" y="0" type="line"/>
      <point x="50" y="800" type="line"/>
      <point x="150" y="800" type="line"/>
    </contour>
  </outline>
</glyph>
<glyph name="afii10077" format="2">
  <advance width="360"/>
  <unicode hex="043B"/>
  <anchor x="268" y="852" name="Yerik"/>
  <anchor x="180" y="852" name="Above"/>
  <outline>
    <contour>
      <point x="150" y="590" type="line"/>
      <point x="50" y="590" type="line"/>
      <point x="50" y="800" type="line"/>
      <point x="310" y="800" type="line"/>
      <point x="310" y="0" type="line"/>
      <point x="210" y="0" type="line"/>
      <point x="210" y="472" type="line"/>
      <point x="193" y="452"/>
      <point x="173" y="434"/>
      <point x="150" y="418" type="curve"/>
      <point x="150" y="0" type="line"/>
      <point x="50" y="0" type="line"/>
      <point x="50" y="400" type="line"/>
      <point x="71" y="400"/>
      <point x="107" y="415"/>
      <point x="138" y="434" type="curve" smooth="yes"/>
      <point x="168" y="453"/>
      <point x="191" y="477"/>
      <point x="210" y="503" type="curve"/>
      <point x="210" y="780" type="line"/>
      <point x="150" y="780" type="line"/>
    </contour>
  </outline>
</glyph>
<glyph name="afii10078" format="2">
  <advance width="520"/>
  <unicode hex="043C"/>
  <anchor x="422" y="852" name="Yerik"/>
  <anchor x="272" y="852" name="Above"/>
  <outline>
    <contour>
      <point x="370" y="449" type="line"/>
      <point x="353" y="432"/>
      <point x="327" y="408"/>
      <point x="310" y="394" type="curve"/>
      <point x="310" y="0" type="line"/>
      <point x="210" y="0" type="line"/>
      <point x="210" y="472" type="line"/>
      <point x="193" y="452"/>
      <point x="173" y="434"/>
      <point x="150" y="418" type="curve"/>
      <point x="150" y="0" type="line"/>
      <point x="50" y="0" type="line"/>
      <point x="50" y="400" type="line"/>
      <point x="71" y="400"/>
      <point x="107" y="415"/>
      <point x="138" y="434" type="curve" smooth="yes"/>
      <point x="168" y="453"/>
      <point x="191" y="477"/>
      <point x="210" y="503" type="curve"/>
      <point x="210" y="780" type="line"/>
      <point x="150" y="780" type="line"/>
      <point x="150" y="620" type="line"/>
      <point x="50" y="620" type="line"/>
      <point x="50" y="800" type="line"/>
      <point x="310" y="800" type="line"/>
      <point x="310" y="420" type="line"/>
      <point x="330" y="437"/>
      <point x="354" y="461"/>
      <point x="370" y="479" type="curve"/>
      <point x="370" y="800" type="line"/>
      <point x="470" y="800" type="line"/>
      <point x="470" y="0" type="line"/>
      <point x="370" y="0" type="line"/>
    </contour>
  </outline>
</glyph>
<glyph name="afii10079" format="2">
  <advance width="360"/>
  <unicode hex="043D"/>
  <anchor x="264" y="852" name="Yerik"/>
  <anchor x="183" y="852" name="Above"/>
  <outline>
    <contour>
      <point x="150" y="0" type="line"/>
      <point x="50" y="0" type="line"/>
      <point x="50" y="800" type="line"/>
      <point x="150" y="800" type="line"/>
      <point x="150" y="459" type="line"/>
      <point x="160" y="447"/>
      <point x="172" y="435"/>
      <point x="187" y="421" type="curve" smooth="yes"/>
      <point x="195" y="413"/>
      <point x="202" y="406"/>
      <point x="210" y="400" type="curve"/>
      <point x="210" y="800" type="line"/>
      <point x="310" y="800" type="line"/>
      <point x="310" y="0" type="line"/>
      <point x="210" y="0" type="line"/>
      <point x="210" y="374" type="line"/>
      <point x="192" y="388"/>
      <point x="167" y="412"/>
      <point x="150" y="429" type="curve"/>
    </contour>
  </outline>
</glyph>
<glyph name="afii10080" format="2">
  <advance width="359"/>
  <unicode hex="043E"/>
  <anchor x="271" y="852" name="Yerik"/>
  <anchor x="205" y="852" name="Above"/>
  <outline>
    <contour>
      <point x="314" y="374" type="curve" smooth="yes"/>
      <point x="314" y="246"/>
      <point x="262" y="149"/>
      <point x="212" y="70" type="curve" smooth="yes"/>
      <point x="194" y="40"/>
      <point x="175" y="12"/>
      <point x="170" y="-8" type="curve"/>
      <point x="147" y="-8" type="line"/>
      <point x="148" y="0"/>
      <point x="148" y="7"/>
      <point x="148" y="14" type="curve" smooth="yes"/>
      <point x="148" y="86"/>
      <point x="118" y="145"/>
      <point x="90" y="216" type="curve" smooth="yes"/>
      <point x="65" y="276"/>
      <point x="45" y="351"/>
      <point x="45" y="426" type="curve" smooth="yes"/>
      <point x="45" y="554"/>
      <point x="97" y="651"/>
      <point x="147" y="730" type="curve" smooth="yes"/>
      <point x="165" y="760"/>
      <point x="184" y="788"/>
      <point x="189" y="808" type="curve"/>
      <point x="212" y="808" type="line"/>
      <point x="211" y="800"/>
      <point x="211" y="793"/>
      <point x="211" y="786" type="curve" smooth="yes"/>
      <point x="211" y="714"/>
      <point x="241" y="655"/>
      <point x="269" y="584" type="curve" smooth="yes"/>
      <point x="294" y="524"/>
      <point x="314" y="449"/>
    </contour>
    <contour>
      <point x="132" y="667" type="curve"/>
      <point x="116" y="639"/>
      <point x="108" y="619"/>
      <point x="108" y="573" type="curve" smooth="yes"/>
      <point x="108" y="514"/>
      <point x="132" y="434"/>
      <point x="154" y="362" type="curve" smooth="yes"/>
      <point x="174" y="288"/>
      <point x="211" y="209"/>
      <point x="226" y="132" type="curve"/>
      <point x="233" y="145"/>
      <point x="239" y="157"/>
      <point x="244" y="168" type="curve" smooth="yes"/>
      <point x="248" y="180"/>
      <point x="251" y="205"/>
      <point x="251" y="227" type="curve" smooth="yes"/>
      <point x="251" y="286"/>
      <point x="227" y="366"/>
      <point x="205" y="438" type="curve" smooth="yes"/>
      <point x="192" y="486"/>
      <point x="170" y="538"/>
      <point x="155" y="584" type="curve" smooth="yes"/>
      <point x="145" y="614"/>
      <point x="137" y="647"/>
    </contour>
  </outline>
</glyph>
<glyph name="afii10082" format="2">
  <advance width="360"/>
  <unicode hex="0440"/>
  <anchor x="256" y="852" name="Yerik"/>
  <anchor x="183" y="852" name="Above"/>
  <outline>
    <contour>
      <point x="150" y="0" type="line"/>
      <point x="50" y="0" type="line"/>
      <point x="50" y="800" type="line"/>
      <point x="310" y="800" type="line"/>
      <point x="310" y="419" type="line"/>
      <point x="286" y="419"/>
      <point x="240" y="414"/>
      <point x="208" y="395" type="curve" smooth="yes"/>
      <point x="182" y="379"/>
      <point x="163" y="359"/>
      <point x="150" y="339" type="curve"/>
    </contour>
    <contour>
      <point x="198" y="412" type="curve"/>
      <point x="210" y="418" type="line"/>
      <point x="210" y="780" type="line"/>
      <point x="150" y="780" type="line"/>
      <point x="150" y="371" type="line"/>
      <point x="163" y="386"/>
      <point x="178" y="400"/>
    </contour>
  </outline>
</glyph>
<glyph name="afii10084" format="2">
  <advance width="520"/>
  <unicode hex="0442"/>
  <anchor x="419" y="852" name="Yerik"/>
  <anchor x="265" y="852" name="Above"/>
  <outline>
    <contour>
      <point x="210" y="0" type="line"/>
      <point x="210" y="780" type="line"/>
      <point x="150" y="780" type="line"/>
      <point x="150" y="480" type="line"/>
      <point x="50" y="480" type="line"/>
      <point x="50" y="800" type="line"/>
      <point x="470" y="800" type="line"/>
      <point x="470" y="570" type="line"/>
      <point x="370" y="570" type="line"/>
      <point x="370" y="780" type="line"/>
      <point x="310" y="780" type="line"/>
      <point x="310" y="0" type="line"/>
    </contour>
  </outline>
</glyph>
<glyph name="uni0443" format="2">
  <advance width="350"/>
  <unicode hex="0443"/>
  <anchor x="268" y="852" name="Yerik"/>
  <anchor x="184" y="852" name="Above"/>
  <outline>
    <contour>
      <point x="326" y="800" type="line"/>
      <point x="319" y="784"/>
      <point x="312" y="769"/>
      <point x="308" y="749" type="curve" smooth="yes"/>
      <point x="304" y="729"/>
      <point x="301" y="700"/>
      <point x="300" y="687" type="curve"/>
      <point x="300" y="678" type="line"/>
      <point x="263" y="678" type="line" smooth="yes"/>
      <point x="242" y="678"/>
      <point x="220" y="669"/>
      <point x="217" y="621" type="curve" smooth="yes"/>
      <point x="198" y="328" type="line"/>
      <point x="196" y="94" type="line" smooth="yes"/>
      <point x="196" y="93"/>
      <point x="196" y="92"/>
      <point x="196" y="91" type="curve" smooth="yes"/>
      <point x="196" y="53"/>
      <point x="214" y="22"/>
      <point x="255" y="18" type="curve"/>
      <point x="255" y="0" type="line"/>
      <point x="93" y="0" type="line"/>
      <point x="93" y="18" type="line"/>
      <point x="137" y="21"/>
      <point x="175" y="50"/>
      <point x="176" y="95" type="curve" smooth="yes"/>
      <point x="177" y="291" type="line"/>
      <point x="83" y="291" type="line"/>
      <point x="27" y="800" type="line"/>
      <point x="132" y="800" type="line"/>
      <point x="179" y="368" type="line"/>
      <point x="196" y="627" type="line" smooth="yes"/>
      <point x="204" y="754"/>
      <point x="227" y="808"/>
      <point x="280" y="808" type="curve" smooth="yes"/>
      <point x="326" y="808" type="line"/>
    </contour>
  </outline>
</glyph>
<glyph name="afii10087" format="2">
  <advance width="401"/>
  <unicode hex="0445"/>
  <anchor x="321" y="852" name="Yerik"/>
  <anchor x="220" y="852" name="Above"/>
  <outline>
    <contour>
      <point x="367" y="800" type="line"/>
      <point x="351" y="772"/>
      <point x="344" y="724"/>
      <point x="341" y="687" type="curve"/>
      <point x="341" y="678" type="line"/>
      <point x="301" y="678" type="line" smooth="yes"/>
      <point x="280" y="678"/>
      <point x="258" y="668"/>
      <point x="250" y="635" type="curve" smooth="yes"/>
      <point x="226" y="532" type="line"/>
      <point x="355" y="0" type="line"/>
      <point x="252" y="0" type="line"/>
      <point x="175" y="316" type="line"/>
      <point x="125" y="101" type="line" smooth="yes"/>
      <point x="124" y="95"/>
      <point x="123" y="89"/>
      <point x="123" y="83" type="curve" smooth="yes"/>
      <point x="123" y="44"/>
      <point x="152" y="20"/>
      <point x="152" y="20" type="curve"/>
      <point x="152" y="0" type="line"/>
      <point x="40" y="0" type="line"/>
      <point x="40" y="20" type="line"/>
      <point x="40" y="20"/>
      <point x="93" y="51"/>
      <point x="105" y="105" type="curve" smooth="yes"/>
      <point x="164" y="361" type="line"/>
      <point x="58" y="800" type="line"/>
      <point x="161" y="800" type="line"/>
      <point x="214" y="579" type="line"/>
      <point x="229" y="641" type="line" smooth="yes"/>
      <point x="249" y="726"/>
      <point x="268" y="808"/>
      <point x="337" y="808" type="curve" smooth="yes"/>
      <point x="367" y="808" type="line"/>
    </contour>
  </outline>
</glyph>
<glyph name="afii10088" format="2">
  <advance width="404"/>
  <unicode hex="0446"/>
  <anchor x="257" y="852" name="Yerik"/>
  <anchor x="185" y="852" name="Above"/>
  <outline>
    <contour>
      <point x="330" y="-133" type="curve" smooth="yes"/>
      <point x="309" y="-133"/>
      <point x="276" y="-129"/>
      <point x="259" y="-114" type="curve" smooth="yes"/>
      <point x="246" y="-102"/>
      <point x="240" y="-95"/>
      <point x="226" y="-83" type="curve" smooth="yes"/>
      <point x="216" y="-74"/>
      <point x="209" y="-66"/>
      <point x="196" y="-66" type="curve" smooth="yes"/>
      <point x="191" y="-66"/>
      <point x="188" y="-73"/>
      <point x="188" y="-83" type="curve" smooth="yes"/>
      <point x="188" y="-134" type="line"/>
      <point x="100" y="-134" type="line"/>
      <point x="100" y="-75" type="line" smooth="yes"/>
      <point x="100" y="-51"/>
      <point x="121" y="-22"/>
      <point x="147" y="-22" type="curve" smooth="yes"/>
      <point x="193" y="-22"/>
      <point x="213" y="-44"/>
      <point x="240" y="-68" type="curve" smooth="yes"/>
      <point x="249" y="-75"/>
      <point x="257" y="-85"/>
      <point x="266" y="-93" type="curve" smooth="yes"/>
      <point x="270" y="-96"/>
      <point x="274" y="-97"/>
      <point x="278" y="-97" type="curve" smooth="yes"/>
      <point x="285" y="-97"/>
      <point x="289" y="-91"/>
      <point x="289" y="-80" type="curve" smooth="yes"/>
      <point x="289" y="0" type="line"/>
      <point x="50" y="0" type="line"/>
      <point x="50" y="800" type="line"/>
      <point x="150" y="800" type="line"/>
      <point x="150" y="20" type="line"/>
      <point x="210" y="20" type="line"/>
      <point x="210" y="800" type="line"/>
      <point x="310" y="800" type="line"/>
      <point x="310" y="20" type="line"/>
      <point x="384" y="20" type="line"/>
      <point x="384" y="-60" type="line" smooth="yes"/>
      <point x="384" y="-103"/>
      <point x="354" y="-133"/>
    </contour>
  </outline>
</glyph>
<glyph name="afii10089" format="2">
  <advance width="360"/>
  <unicode hex="0447"/>
  <anchor x="262" y="852" name="Yerik"/>
  <anchor x="185" y="852" name="Above"/>
  <outline>
    <contour>
      <point x="310" y="0" type="line"/>
      <point x="210" y="0" type="line"/>
      <point x="210" y="339" type="line"/>
      <point x="196" y="359"/>
      <point x="177" y="379"/>
      <point x="152" y="395" type="curve" smooth="yes"/>
      <point x="120" y="414"/>
      <point x="74" y="419"/>
      <point x="50" y="419" type="curve"/>
      <point x="50" y="800" type="line"/>
      <point x="150" y="800" type="line"/>
      <point x="150" y="418" type="line"/>
      <point x="162" y="412" type="line"/>
      <point x="181" y="400"/>
      <point x="197" y="386"/>
      <point x="210" y="371" type="curve"/>
      <point x="210" y="800" type="line"/>
      <point x="310" y="800" type="line"/>
    </contour>
  </outline>
</glyph>
<glyph name="afii10090" format="2">
  <advance width="520"/>
  <unicode hex="0448"/>
  <anchor x="419" y="852" name="Yerik"/>
  <anchor x="264" y="852" name="Above"/>
  <outline>
    <contour>
      <point x="50" y="0" type="line"/>
      <point x="50" y="800" type="line"/>
      <point x="150" y="800" type="line"/>
      <point x="150" y="20" type="line"/>
      <point x="210" y="20" type="line"/>
      <point x="210" y="800" type="line"/>
      <point x="310" y="800" type="line"/>
      <point x="310" y="20" type="line"/>
      <point x="370" y="20" type="line"/>
      <point x="370" y="800" type="line"/>
      <point x="470" y="800" type="line"/>
      <point x="470" y="0" type="line"/>
    </contour>
  </outline>
</glyph>
<glyph name="afii10092" format="2">
  <advance width="394"/>
  <unicode hex="044A"/>
  <anchor x="310" y="852" name="Yerik"/>
  <anchor x="207" y="852" name="Above"/>
  <outline>
    <contour>
      <point x="245" y="405" type="line"/>
      <point x="261" y="373"/>
      <point x="302" y="347"/>
      <point x="344" y="347" type="curve"/>
      <point x="344" y="0" type="line"/>
      <point x="40" y="0" type="line"/>
      <point x="235" y="780" type="line"/>
      <point x="150" y="780" type="line"/>
      <point x="150" y="620" type="line"/>
      <point x="50" y="620" type="line"/>
      <point x="50" y="800" type="line"/>
      <point x="344" y="800" type="line"/>
    </contour>
    <contour>
      <point x="244" y="371" type="line"/>
      <point x="238" y="378" type="line"/>
      <point x="149" y="20" type="line"/>
      <point x="244" y="20" type="line"/>
    </contour>
  </outline>
</glyph>
<glyph name="afii10094" format="2">
  <advance width="360"/>
  <unicode hex="044C"/>
  <anchor x="263" y="852" name="Yerik"/>
  <anchor x="191" y="852" name="Above"/>
  <outline>
    <contour>
      <point x="310" y="0" type="line"/>
      <point x="50" y="0" type="line"/>
      <point x="50" y="800" type="line"/>
      <point x="150" y="800" type="line"/>
      <point x="150" y="463" type="line"/>
      <point x="168" y="437"/>
      <point x="192" y="413"/>
      <point x="222" y="394" type="curve" smooth="yes"/>
      <point x="253" y="375"/>
      <point x="289" y="360"/>
      <point x="310" y="360" type="curve"/>
    </contour>
    <contour>
      <point x="210" y="378" type="line"/>
      <point x="186" y="394"/>
      <point x="166" y="413"/>
      <point x="150" y="432" type="curve"/>
      <point x="150" y="20" type="line"/>
      <point x="210" y="20" type="line"/>
    </contour>
  </outline>
</glyph>
<glyph name="uni044D" format="2">
  <advance width="378"/>
  <unicode hex="044D"/>
  <anchor x="271" y="852" name="Yerik"/>
  <anchor x="189" y="852" name="Above"/>
  <outline>
    <contour>
      <point x="178" y="449" type="curve" smooth="yes"/>
      <point x="167" y="449"/>
      <point x="160" y="441"/>
      <point x="160" y="430" type="curve" smooth="yes"/>
      <point x="160" y="371" type="line"/>
      <point x="50" y="371" type="line"/>
      <point x="50" y="399"/>
      <point x="53" y="421"/>
      <point x="63" y="442" type="curve" smooth="yes"/>
      <point x="76" y="470"/>
      <point x="104" y="482"/>
      <point x="136" y="482" type="curve" smooth="yes"/>
      <point x="160" y="482"/>
      <point x="188" y="473"/>
      <point x="203" y="460" type="curve" smooth="yes"/>
      <point x="209" y="455"/>
      <point x="214" y="449"/>
      <point x="218" y="444" type="curve"/>
      <point x="219" y="455"/>
      <point x="220" y="466"/>
      <point x="220" y="477" type="curve" smooth="yes"/>
      <point x="222" y="527"/>
      <point x="224" y="594"/>
      <point x="224" y="644" type="curve" smooth="yes"/>
      <point x="224" y="689"/>
      <point x="221" y="762"/>
      <point x="219" y="775" type="curve" smooth="yes"/>
      <point x="215" y="785"/>
      <point x="203" y="790"/>
      <point x="190" y="790" type="curve" smooth="yes"/>
      <point x="176" y="790"/>
      <point x="166" y="785"/>
      <point x="160" y="775" type="curve"/>
      <point x="160" y="539" type="line"/>
      <point x="50" y="539" type="line"/>
      <point x="51" y="641"/>
      <point x="86" y="808"/>
      <point x="189" y="808" type="curve" smooth="yes"/>
      <point x="289" y="808"/>
      <point x="331" y="626"/>
      <point x="331" y="497" type="curve" smooth="yes"/>
      <point x="331" y="403"/>
      <point x="291" y="293"/>
      <point x="271" y="228" type="curve" smooth="yes"/>
      <point x="255" y="176"/>
      <point x="228" y="128"/>
      <point x="228" y="84" type="curve" smooth="yes"/>
      <point x="228" y="64"/>
      <point x="244" y="28"/>
      <point x="271" y="22" type="curve"/>
      <point x="282" y="29"/>
      <point x="290" y="38"/>
      <point x="295" y="49" type="curve"/>
      <point x="291" y="48"/>
      <point x="287" y="48"/>
      <point x="283" y="48" type="curve" smooth="yes"/>
      <point x="260" y="48"/>
      <point x="241" y="65"/>
      <point x="241" y="90" type="curve" smooth="yes"/>
      <point x="241" y="112"/>
      <point x="253" y="135"/>
      <point x="283" y="135" type="curve" smooth="yes"/>
      <point x="312" y="135"/>
      <point x="324" y="112"/>
      <point x="324" y="90" type="curve" smooth="yes"/>
      <point x="324" y="34"/>
      <point x="287" y="-8"/>
      <point x="236" y="-8" type="curve" smooth="yes"/>
      <point x="205" y="-8"/>
      <point x="179" y="7"/>
      <point x="159" y="26" type="curve" smooth="yes"/>
      <point x="64" y="116"/>
      <point x="50" y="230"/>
      <point x="50" y="312" type="curve"/>
      <point x="160" y="312" type="line"/>
      <point x="160" y="191" type="line" smooth="yes"/>
      <point x="160" y="129"/>
      <point x="168" y="52"/>
      <point x="184" y="34" type="curve" smooth="yes"/>
      <point x="193" y="24"/>
      <point x="212" y="12"/>
      <point x="236" y="12" type="curve" smooth="yes"/>
      <point x="246" y="12" type="line"/>
      <point x="233" y="20"/>
      <point x="218" y="33"/>
      <point x="211" y="55" type="curve" smooth="yes"/>
      <point x="202" y="81"/>
      <point x="200" y="130"/>
      <point x="200" y="161" type="curve" smooth="yes"/>
      <point x="200" y="243"/>
      <point x="211" y="320"/>
      <point x="216" y="412" type="curve"/>
      <point x="209" y="429"/>
      <point x="200" y="449"/>
    </contour>
  </outline>
</glyph>
<glyph name="afii10071" format="2">
  <advance width="378"/>
  <unicode hex="0451"/>
  <anchor x="161" y="992" name="Yerik"/>
  <anchor x="162" y="992" name="Above"/>
  <outline>
    <contour>
      <point x="133" y="945" type="line"/>
      <point x="170" y="862" type="line"/>
      <point x="170" y="854" type="line"/>
      <point x="127" y="854" type="line"/>
      <point x="90" y="937" type="line"/>
      <point x="90" y="945" type="line"/>
    </contour>
    <contour>
      <point x="223" y="945" type="line"/>
      <point x="260" y="862" type="line"/>
      <point x="260" y="854" type="line"/>
      <point x="217" y="854" type="line"/>
      <point x="180" y="937" type="line"/>
      <point x="180" y="945" type="line"/>
    </contour>
    <contour>
      <point x="203" y="449" type="curve" smooth="yes"/>
      <point x="181" y="449"/>
      <point x="172" y="429"/>
      <point x="165" y="412" type="curve"/>
      <point x="170" y="320"/>
      <point x="181" y="243"/>
      <point x="181" y="161" type="curve" smooth="yes"/>
      <point x="181" y="130"/>
      <point x="179" y="81"/>
      <point x="170" y="55" type="curve" smooth="yes"/>
      <point x="163" y="33"/>
      <point x="148" y="20"/>
      <point x="135" y="12" type="curve"/>
      <point x="145" y="12" type="line" smooth="yes"/>
      <point x="169" y="12"/>
      <point x="188" y="24"/>
      <point x="197" y="34" type="curve" smooth="yes"/>
      <point x="213" y="52"/>
      <point x="221" y="129"/>
      <point x="221" y="191" type="curve" smooth="yes"/>
      <point x="221" y="312" type="line"/>
      <point x="331" y="312" type="line"/>
      <point x="331" y="230"/>
      <point x="317" y="116"/>
      <point x="222" y="26" type="curve" smooth="yes"/>
      <point x="202" y="7"/>
      <point x="176" y="-8"/>
      <point x="145" y="-8" type="curve" smooth="yes"/>
      <point x="94" y="-8"/>
      <point x="57" y="34"/>
      <point x="57" y="90" type="curve" smooth="yes"/>
      <point x="57" y="112"/>
      <point x="69" y="135"/>
      <point x="98" y="135" type="curve" smooth="yes"/>
      <point x="128" y="135"/>
      <point x="140" y="112"/>
      <point x="140" y="90" type="curve" smooth="yes"/>
      <point x="140" y="65"/>
      <point x="121" y="48"/>
      <point x="98" y="48" type="curve" smooth="yes"/>
      <point x="94" y="48"/>
      <point x="90" y="48"/>
      <point x="86" y="49" type="curve"/>
      <point x="91" y="38"/>
      <point x="99" y="29"/>
      <point x="110" y="22" type="curve"/>
      <point x="137" y="28"/>
      <point x="153" y="64"/>
      <point x="153" y="84" type="curve" smooth="yes"/>
      <point x="153" y="128"/>
      <point x="126" y="176"/>
      <point x="110" y="228" type="curve" smooth="yes"/>
      <point x="90" y="293"/>
      <point x="50" y="403"/>
      <point x="50" y="497" type="curve" smooth="yes"/>
      <point x="50" y="626"/>
      <point x="92" y="808"/>
      <point x="192" y="808" type="curve" smooth="yes"/>
      <point x="295" y="808"/>
      <point x="330" y="641"/>
      <point x="331" y="539" type="curve"/>
      <point x="221" y="539" type="line"/>
      <point x="221" y="775" type="line"/>
      <point x="215" y="785"/>
      <point x="205" y="790"/>
      <point x="191" y="790" type="curve" smooth="yes"/>
      <point x="178" y="790"/>
      <point x="166" y="785"/>
      <point x="162" y="775" type="curve" smooth="yes"/>
      <point x="160" y="762"/>
      <point x="157" y="689"/>
      <point x="157" y="644" type="curve" smooth="yes"/>
      <point x="157" y="594"/>
      <point x="159" y="527"/>
      <point x="161" y="477" type="curve" smooth="yes"/>
      <point x="161" y="466"/>
      <point x="162" y="455"/>
      <point x="163" y="444" type="curve"/>
      <point x="167" y="449"/>
      <point x="172" y="455"/>
      <point x="178" y="460" type="curve" smooth="yes"/>
      <point x="193" y="473"/>
      <point x="221" y="482"/>
      <point x="245" y="482" type="curve" smooth="yes"/>
      <point x="277" y="482"/>
      <point x="305" y="470"/>
      <point x="318" y="442" type="curve" smooth="yes"/>
      <point x="328" y="421"/>
      <point x="331" y="399"/>
      <point x="331" y="371" type="curve"/>
      <point x="221" y="371" type="line"/>
      <point x="221" y="430" type="line" smooth="yes"/>
      <point x="221" y="441"/>
      <point x="214" y="449"/>
    </contour>
  </outline>
</glyph>
<glyph name="afii10100" format="2">
  <advance width="360"/>
  <unicode hex="0453"/>
  <anchor x="181" y="1101" name="Yerik"/>
  <anchor x="181" y="1101" name="Above"/>
  <outline>
    <contour>
      <point x="186" y="858" type="line"/>
      <point x="150" y="858" type="line"/>
      <point x="150" y="865" type="line"/>
      <point x="190" y="1040" type="line"/>
      <point x="232" y="1040" type="line"/>
      <point x="232" y="1033" type="line"/>
    </contour>
    <contour>
      <point x="210" y="590" type="line"/>
      <point x="210" y="780" type="line"/>
      <point x="150" y="780" type="line"/>
      <point x="150" y="0" type="line"/>
      <point x="50" y="0" type="line"/>
      <point x="50" y="800" type="line"/>
      <point x="310" y="800" type="line"/>
      <point x="310" y="590" type="line"/>
    </contour>
  </outline>
</glyph>
<glyph name="afii10102" format="2">
  <advance width="379"/>
  <unicode hex="0455"/>
  <anchor x="268" y="852" name="Yerik"/>
  <anchor x="191" y="852" name="Above"/>
  <outline>
    <contour>
      <point x="324" y="187" type="curve" smooth="yes"/>
      <point x="324" y="100"/>
      <point x="262" y="-8"/>
      <point x="189" y="-8" type="curve" smooth="yes"/>
      <point x="109" y="-8"/>
      <point x="68" y="79"/>
      <point x="55" y="167" type="curve" smooth="yes"/>
      <point x="51" y="193"/>
      <point x="50" y="262"/>
      <point x="50" y="293" type="curve"/>
      <point x="160" y="293" type="line"/>
      <point x="160" y="25" type="line"/>
      <point x="166" y="15"/>
      <point x="176" y="10"/>
      <point x="190" y="10" type="curve" smooth="yes"/>
      <point x="203" y="10"/>
      <point x="214" y="14"/>
      <point x="219" y="25" type="curve"/>
      <point x="219" y="358" type="line" smooth="yes"/>
      <point x="219" y="376"/>
      <point x="204" y="387"/>
      <point x="194" y="387" type="curve" smooth="yes"/>
      <point x="183" y="387"/>
      <point x="162" y="380"/>
      <point x="148" y="366" type="curve" smooth="yes"/>
      <point x="119" y="338" type="line" smooth="yes"/>
      <point x="117" y="336"/>
      <point x="114" y="335"/>
      <point x="112" y="335" type="curve" smooth="yes"/>
      <point x="106" y="335"/>
      <point x="102" y="340"/>
      <point x="102" y="345" type="curve" smooth="yes"/>
      <point x="102" y="347"/>
      <point x="103" y="350"/>
      <point x="105" y="352" type="curve" smooth="yes"/>
      <point x="186" y="428" type="line"/>
      <point x="185" y="428" type="line" smooth="yes"/>
      <point x="103" y="428"/>
      <point x="55" y="537"/>
      <point x="55" y="631" type="curve" smooth="yes"/>
      <point x="55" y="718"/>
      <point x="117" y="808"/>
      <point x="190" y="808" type="curve" smooth="yes"/>
      <point x="270" y="808"/>
      <point x="311" y="721"/>
      <point x="324" y="633" type="curve" smooth="yes"/>
      <point x="328" y="607"/>
      <point x="329" y="568"/>
      <point x="329" y="537" type="curve"/>
      <point x="219" y="537" type="line"/>
      <point x="219" y="775" type="line"/>
      <point x="213" y="785"/>
      <point x="203" y="790"/>
      <point x="189" y="790" type="curve" smooth="yes"/>
      <point x="176" y="790"/>
      <point x="165" y="786"/>
      <point x="160" y="775" type="curve"/>
      <point x="160" y="478" type="line" smooth="yes"/>
      <point x="160" y="460"/>
      <point x="175" y="449"/>
      <point x="185" y="449" type="curve" smooth="yes"/>
      <point x="196" y="449"/>
      <point x="216" y="456"/>
      <point x="230" y="470" type="curve" smooth="yes"/>
      <point x="253" y="491" type="line" smooth="yes"/>
      <point x="255" y="493"/>
      <point x="258" y="494"/>
      <point x="260" y="494" type="curve" smooth="yes"/>
      <point x="266" y="494"/>
      <point x="270" y="489"/>
      <point x="270" y="484" type="curve" smooth="yes"/>
      <point x="270" y="482"/>
      <point x="269" y="479"/>
      <point x="267" y="477" type="curve" smooth="yes"/>
      <point x="193" y="408" type="line"/>
      <point x="194" y="408" type="line" smooth="yes"/>
      <point x="276" y="408"/>
      <point x="324" y="281"/>
    </contour>
  </outline>
</glyph>
<glyph name="uni0461" format="2">
  <advance width="482"/>
  <unicode hex="0461"/>
  <anchor x="368" y="852" name="Yerik"/>
  <anchor x="252" y="852" name="Above"/>
  <outline>
    <contour>
      <point x="350" y="753" type="curve"/>
      <point x="403" y="808" type="line"/>
      <point x="409" y="808" type="line"/>
      <point x="428" y="734"/>
      <point x="442" y="603"/>
      <point x="442" y="484" type="curve" smooth="yes"/>
      <point x="442" y="261"/>
      <point x="375" y="99"/>
      <point x="318" y="-8" type="curve"/>
      <point x="312" y="-8" type="line"/>
      <point x="289" y="40"/>
      <point x="269" y="95"/>
      <point x="254" y="153" type="curve"/>
      <point x="236" y="120"/>
      <point x="195" y="47"/>
      <point x="170" y="-8" type="curve"/>
      <point x="164" y="-8" type="line"/>
      <point x="77" y="129"/>
      <point x="40" y="283"/>
      <point x="40" y="482" type="curve" smooth="yes"/>
      <point x="40" y="607"/>
      <point x="64" y="756"/>
      <point x="77" y="800" type="curve"/>
      <point x="173" y="800" type="line"/>
      <point x="161" y="763"/>
      <point x="139" y="562"/>
      <point x="139" y="482" type="curve" smooth="yes"/>
      <point x="139" y="323"/>
      <point x="167" y="209"/>
      <point x="209" y="114" type="curve"/>
      <point x="215" y="124"/>
      <point x="234" y="155"/>
      <point x="248" y="179" type="curve"/>
      <point x="224" y="283"/>
      <point x="212" y="399"/>
      <point x="212" y="516" type="curve" smooth="yes"/>
      <point x="212" y="628"/>
      <point x="236" y="743"/>
      <point x="248" y="800" type="curve"/>
      <point x="342" y="800" type="line"/>
      <point x="327" y="728"/>
      <point x="312" y="626"/>
      <point x="312" y="514" type="curve" smooth="yes"/>
      <point x="312" y="371"/>
      <point x="332" y="241"/>
      <point x="358" y="140" type="curve"/>
      <point x="390" y="205"/>
      <point x="417" y="359"/>
      <point x="417" y="474" type="curve" smooth="yes"/>
      <point x="417" y="589"/>
      <point x="382" y="682"/>
    </contour>
  </outline>
</glyph>
<glyph name="uni0462" format="2">
  <advance width="525"/>
  <unicode hex="0462"/>
  <anchor x="388" y="852" name="Yerik"/>
  <anchor x="253" y="852" name="Above"/>
  <outline>
    <contour>
      <point x="135" y="480" type="line"/>
      <point x="35" y="480" type="line"/>
      <point x="35" y="730" type="line"/>
      <point x="195" y="730" type="line"/>
      <point x="195" y="800" type="line"/>
      <point x="295" y="800" type="line"/>
      <point x="295" y="730" type="line"/>
      <point x="455" y="730" type="line"/>
      <point x="455" y="570" type="line"/>
      <point x="355" y="570" type="line"/>
      <point x="355" y="710" type="line"/>
      <point x="295" y="710" type="line"/>
      <point x="295" y="468" type="line"/>
      <point x="309" y="448"/>
      <point x="327" y="432"/>
      <point x="354" y="413" type="curve" smooth="yes"/>
      <point x="390" y="387"/>
      <point x="444" y="370"/>
      <point x="475" y="370" type="curve"/>
      <point x="475" y="0" type="line"/>
      <point x="195" y="0" type="line"/>
      <point x="195" y="710" type="line"/>
      <point x="135" y="710" type="line"/>
    </contour>
    <contour>
      <point x="375" y="377" type="line"/>
      <point x="346" y="392"/>
      <point x="314" y="417"/>
      <point x="295" y="437" type="curve"/>
      <point x="295" y="20" type="line"/>
      <point x="375" y="20" type="line"/>
    </contour>
  </outline>
</glyph>
<glyph name="uni0466" format="2">
  <advance width="544"/>
  <unicode hex="0466"/>
  <anchor x="428" y="852" name="Yerik"/>
  <anchor x="285" y="852" name="Above"/>
  <outline>
    <contour>
      <point x="356" y="424" type="curve"/>
      <point x="327" y="408"/>
      <point x="321" y="379"/>
      <point x="321" y="326" type="curve" smooth="yes"/>
      <point x="321" y="0" type="line"/>
      <point x="216" y="0" type="line"/>
      <point x="216" y="326" type="line" smooth="yes"/>
      <point x="216" y="356"/>
      <point x="212" y="392"/>
      <point x="204" y="403" type="curve" smooth="yes"/>
      <point x="194" y="416"/>
      <point x="181" y="427"/>
      <point x="167" y="430" type="curve"/>
      <point x="156" y="394"/>
      <point x="150" y="319"/>
      <point x="150" y="231" type="curve" smooth="yes"/>
      <point x="150" y="0" type="line"/>
      <point x="45" y="0" type="line"/>
      <point x="45" y="157" type="line" smooth="yes"/>
      <point x="45" y="206"/>
      <point x="57" y="274"/>
      <point x="69" y="312" type="curve" smooth="yes"/>
      <point x="78" y="341"/>
      <point x="105" y="384"/>
      <point x="111" y="393" type="curve" smooth="yes"/>
      <point x="120" y="407"/>
      <point x="134" y="423"/>
      <point x="154" y="456" type="curve" smooth="yes"/>
      <point x="171" y="484"/>
      <point x="187" y="514"/>
      <point x="204" y="553" type="curve" smooth="yes"/>
      <point x="232" y="620"/>
      <point x="244" y="680"/>
      <point x="246" y="757" type="curve" smooth="yes"/>
      <point x="245" y="771"/>
      <point x="244" y="786"/>
      <point x="244" y="800" type="curve"/>
      <point x="349" y="800" type="line"/>
      <point x="349" y="724"/>
      <point x="370" y="646"/>
      <point x="411" y="558" type="curve" smooth="yes"/>
      <point x="461" y="452"/>
      <point x="499" y="338"/>
      <point x="499" y="194" type="curve" smooth="yes"/>
      <point x="499" y="0" type="line"/>
      <point x="394" y="0" type="line"/>
      <point x="394" y="194" type="line" smooth="yes"/>
      <point x="394" y="280"/>
      <point x="379" y="355"/>
    </contour>
    <contour>
      <point x="349" y="443" type="curve"/>
      <point x="323" y="519"/>
      <point x="278" y="596"/>
      <point x="259" y="674" type="curve"/>
      <point x="252" y="630"/>
      <point x="241" y="589"/>
      <point x="222" y="545" type="curve" smooth="yes"/>
      <point x="206" y="508"/>
      <point x="191" y="476"/>
      <point x="175" y="448" type="curve"/>
      <point x="192" y="443"/>
      <point x="208" y="431"/>
      <point x="220" y="415" type="curve" smooth="yes"/>
      <point x="228" y="405"/>
      <point x="232" y="379"/>
      <point x="234" y="350" type="curve" smooth="yes"/>
      <point x="237" y="339"/>
      <point x="242" y="329"/>
      <point x="250" y="326" type="curve"/>
      <point x="287" y="326" type="line"/>
      <point x="295" y="329"/>
      <point x="299" y="339"/>
      <point x="302" y="350" type="curve" smooth="yes"/>
      <point x="305" y="379"/>
      <point x="309" y="405"/>
      <point x="317" y="415" type="curve" smooth="yes"/>
      <point x="325" y="427"/>
      <point x="337" y="436"/>
    </contour>
  </outline>
</glyph>
<glyph name="uni0469" format="2">
  <advance width="373"/>
  <unicode hex="0469"/>
  <outline>
    <contour>
      <point x="345" y="254" type="curve" smooth="yes"/>
      <point x="345" y="163"/>
      <point x="268" y="87"/>
      <point x="175" y="87" type="curve" smooth="yes"/>
      <point x="82" y="87"/>
      <point x="8" y="163"/>
      <point x="8" y="254" type="curve" smooth="yes"/>
      <point x="8" y="349"/>
      <point x="82" y="424"/>
      <point x="175" y="424" type="curve" smooth="yes"/>
      <point x="268" y="424"/>
      <point x="345" y="349"/>
    </contour>
    <contour>
      <point x="93" y="150" type="line"/>
      <point x="116" y="131"/>
      <point x="145" y="120"/>
      <point x="175" y="120" type="curve" smooth="yes"/>
      <point x="250" y="120"/>
      <point x="311" y="181"/>
      <point x="311" y="254" type="curve" smooth="yes"/>
      <point x="311" y="287"/>
      <point x="300" y="314"/>
      <point x="282" y="338" type="curve"/>
    </contour>
    <contour>
      <point x="257" y="361" type="line"/>
      <point x="236" y="379"/>
      <point x="207" y="390"/>
      <point x="175" y="390" type="curve" smooth="yes"/>
      <point x="102" y="390"/>
      <point x="41" y="329"/>
      <point x="41" y="254" type="curve" smooth="yes"/>
      <point x="41" y="224"/>
      <point x="52" y="197"/>
      <point x="68" y="173" type="curve"/>
    </contour>
  </outline>
</glyph>
<glyph name="uni046A" format="2">
  <advance width="554"/>
  <unicode hex="046A"/>
  <anchor x="277" y="852" name="Above"/>
  <anchor x="450" y="852" name="Yerik"/>
  <outline>
    <contour>
      <point x="272" y="493" type="curve"/>
      <point x="292" y="598"/>
      <point x="329" y="699"/>
      <point x="379" y="779" type="curve"/>
      <point x="149" y="779" type="line"/>
      <point x="220" y="714"/>
      <point x="248" y="602"/>
    </contour>
    <contour>
      <point x="72" y="799" type="curve"/>
      <point x="474" y="800" type="line"/>
      <point x="421" y="727"/>
      <point x="364" y="629"/>
      <point x="364" y="582" type="curve" smooth="yes"/>
      <point x="364" y="559"/>
      <point x="379" y="530"/>
      <point x="417" y="488" type="curve" smooth="yes"/>
      <point x="457" y="444"/>
      <point x="505" y="338"/>
      <point x="505" y="194" type="curve" smooth="yes"/>
      <point x="505" y="0" type="line"/>
      <point x="400" y="0" type="line"/>
      <point x="400" y="194" type="line" smooth="yes"/>
      <point x="400" y="280"/>
      <point x="385" y="415"/>
      <point x="362" y="484" type="curve"/>
      <point x="353" y="479"/>
      <point x="345" y="471"/>
      <point x="339" y="463" type="curve" smooth="yes"/>
      <point x="331" y="452"/>
      <point x="327" y="356"/>
      <point x="327" y="326" type="curve" smooth="yes"/>
      <point x="327" y="0" type="line"/>
      <point x="222" y="0" type="line"/>
      <point x="222" y="326" type="line" smooth="yes"/>
      <point x="222" y="356"/>
      <point x="218" y="452"/>
      <point x="210" y="463" type="curve" smooth="yes"/>
      <point x="200" y="476"/>
      <point x="198" y="483"/>
      <point x="184" y="486" type="curve"/>
      <point x="173" y="450"/>
      <point x="156" y="319"/>
      <point x="156" y="231" type="curve" smooth="yes"/>
      <point x="156" y="0" type="line"/>
      <point x="51" y="0" type="line"/>
      <point x="51" y="157" type="line" smooth="yes"/>
      <point x="51" y="186"/>
      <point x="50" y="222"/>
      <point x="50" y="255" type="curve" smooth="yes"/>
      <point x="50" y="276"/>
      <point x="50" y="296"/>
      <point x="52" y="312" type="curve" smooth="yes"/>
      <point x="55" y="341"/>
      <point x="58" y="371"/>
      <point x="67" y="392" type="curve" smooth="yes"/>
      <point x="78" y="417"/>
      <point x="83" y="444"/>
      <point x="119" y="490" type="curve" smooth="yes"/>
      <point x="144" y="522"/>
      <point x="188" y="539"/>
      <point x="188" y="574" type="curve" smooth="yes"/>
      <point x="188" y="575" type="line" smooth="yes"/>
      <point x="188" y="616"/>
      <point x="152" y="715"/>
    </contour>
  </outline>
</glyph>
<glyph name="uni046F" format="2">
  <advance width="374"/>
  <unicode hex="046F"/>
  <anchor x="286" y="958" name="Yerik"/>
  <anchor x="206" y="958" name="Above"/>
  <outline>
    <contour>
      <point x="324" y="-6" type="line"/>
      <point x="229" y="-6" type="line"/>
      <point x="229" y="41" type="line" smooth="yes"/>
      <point x="229" y="47"/>
      <point x="226" y="52"/>
      <point x="220" y="52" type="curve" smooth="yes"/>
      <point x="216" y="52"/>
      <point x="215" y="48"/>
      <point x="212" y="44" type="curve" smooth="yes"/>
      <point x="205" y="35"/>
      <point x="194" y="19"/>
      <point x="184" y="7" type="curve" smooth="yes"/>
      <point x="175" y="-3"/>
      <point x="163" y="-8"/>
      <point x="139" y="-8" type="curve" smooth="yes"/>
      <point x="82" y="-8"/>
      <point x="50" y="51"/>
      <point x="50" y="115" type="curve" smooth="yes"/>
      <point x="50" y="176"/>
      <point x="95" y="226"/>
      <point x="145" y="226" type="curve" smooth="yes"/>
      <point x="169" y="226"/>
      <point x="185" y="222"/>
      <point x="209" y="213" type="curve" smooth="yes"/>
      <point x="218" y="213"/>
      <point x="219" y="225"/>
      <point x="219" y="242" type="curve" smooth="yes"/>
      <point x="219" y="477" type="line"/>
      <point x="214" y="488"/>
      <point x="203" y="492"/>
      <point x="190" y="492" type="curve" smooth="yes"/>
      <point x="176" y="492"/>
      <point x="166" y="487"/>
      <point x="160" y="477" type="curve"/>
      <point x="160" y="283" type="line"/>
      <point x="50" y="283" type="line"/>
      <point x="50" y="307"/>
      <point x="50" y="339"/>
      <point x="53" y="365" type="curve" smooth="yes"/>
      <point x="64" y="457"/>
      <point x="109" y="510"/>
      <point x="189" y="510" type="curve" smooth="yes"/>
      <point x="197" y="510" type="line"/>
      <point x="211" y="517"/>
      <point x="219" y="529"/>
      <point x="219" y="546" type="curve" smooth="yes"/>
      <point x="219" y="775" type="line"/>
      <point x="214" y="786"/>
      <point x="203" y="790"/>
      <point x="190" y="790" type="curve" smooth="yes"/>
      <point x="176" y="790"/>
      <point x="166" y="785"/>
      <point x="160" y="775" type="curve"/>
      <point x="160" y="567" type="line"/>
      <point x="50" y="567" type="line"/>
      <point x="50" y="600" type="line" smooth="yes"/>
      <point x="50" y="618"/>
      <point x="50" y="637"/>
      <point x="52" y="653" type="curve" smooth="yes"/>
      <point x="62" y="731"/>
      <point x="98" y="791"/>
      <point x="160" y="805" type="curve"/>
      <point x="117" y="916" type="line"/>
      <point x="118" y="921" type="line"/>
      <point x="172" y="921" type="line"/>
      <point x="205" y="836" type="line"/>
      <point x="215" y="868"/>
      <point x="233" y="906"/>
      <point x="269" y="913" type="curve" smooth="yes"/>
      <point x="271" y="915"/>
      <point x="274" y="914"/>
      <point x="280" y="915" type="curve" smooth="yes"/>
      <point x="303" y="915"/>
      <point x="321" y="897"/>
      <point x="321" y="874" type="curve" smooth="yes"/>
      <point x="321" y="851"/>
      <point x="303" y="833"/>
      <point x="280" y="833" type="curve" smooth="yes"/>
      <point x="263" y="833"/>
      <point x="249" y="843"/>
      <point x="242" y="857" type="curve"/>
      <point x="239" y="855"/>
      <point x="235" y="853"/>
      <point x="232" y="850" type="curve" smooth="yes"/>
      <point x="225" y="837"/>
      <point x="221" y="819"/>
      <point x="217" y="805" type="curve"/>
      <point x="277" y="791"/>
      <point x="324" y="736"/>
      <point x="324" y="661" type="curve" smooth="yes"/>
      <point x="324" y="578"/>
      <point x="296" y="520"/>
      <point x="231" y="503" type="curve"/>
      <point x="284" y="485"/>
      <point x="324" y="431"/>
      <point x="324" y="333" type="curve" smooth="yes"/>
      <point x="324" y="239"/>
      <point x="291" y="193"/>
      <point x="234" y="174" type="curve" smooth="yes"/>
      <point x="232" y="173"/>
      <point x="231" y="173"/>
      <point x="229" y="174" type="curve" smooth="yes"/>
      <point x="217" y="183"/>
      <point x="187" y="201"/>
      <point x="172" y="201" type="curve" smooth="yes"/>
      <point x="165" y="199"/>
      <point x="160" y="192"/>
      <point x="160" y="182" type="curve" smooth="yes"/>
      <point x="160" y="37" type="line" smooth="yes"/>
      <point x="160" y="26"/>
      <point x="164" y="21"/>
      <point x="170" y="21" type="curve"/>
      <point x="172" y="25"/>
      <point x="189" y="45"/>
      <point x="202" y="64" type="curve" smooth="yes"/>
      <point x="218" y="88"/>
      <point x="237" y="108"/>
      <point x="267" y="108" type="curve" smooth="yes"/>
      <point x="310" y="108"/>
      <point x="324" y="79"/>
      <point x="324" y="44" type="curve" smooth="yes"/>
    </contour>
  </outline>
</glyph>
<glyph name="uni0470" format="2">
  <advance width="484"/>
  <unicode hex="0470"/>
  <anchor x="395" y="852" name="Yerik"/>
  <anchor x="238" y="963" name="Above"/>
  <outline>
    <contour>
      <point x="295" y="900" type="line"/>
      <point x="285" y="788"/>
      <point x="263" y="343"/>
      <point x="251" y="20" type="curve"/>
      <point x="278" y="20" type="line"/>
      <point x="283" y="154"/>
      <point x="298" y="525"/>
      <point x="306" y="654" type="curve" smooth="yes"/>
      <point x="311" y="730"/>
      <point x="335" y="775"/>
      <point x="385" y="798" type="curve" smooth="yes"/>
      <point x="408" y="808"/>
      <point x="444" y="809"/>
      <point x="459" y="809" type="curve"/>
      <point x="459" y="802" type="line"/>
      <point x="444" y="775"/>
      <point x="437" y="731"/>
      <point x="437" y="698" type="curve" smooth="yes"/>
      <point x="437" y="686"/>
      <point x="437" y="675"/>
      <point x="438" y="667" type="curve"/>
      <point x="438" y="660" type="line"/>
      <point x="420" y="665"/>
      <point x="405" y="668"/>
      <point x="393" y="668" type="curve" smooth="yes"/>
      <point x="367" y="668"/>
      <point x="354" y="656"/>
      <point x="349" y="634" type="curve" smooth="yes"/>
      <point x="335" y="565"/>
      <point x="307" y="174"/>
      <point x="298" y="0" type="curve"/>
      <point x="254" y="0" type="line"/>
      <point x="311" y="-68" type="line"/>
      <point x="311" y="-75" type="line"/>
      <point x="246" y="-154" type="line"/>
      <point x="237" y="-154" type="line"/>
      <point x="171" y="-75" type="line"/>
      <point x="171" y="-68" type="line"/>
      <point x="227" y="0" type="line"/>
      <point x="115" y="0" type="line"/>
      <point x="103" y="258"/>
      <point x="86" y="639"/>
      <point x="45" y="800" type="curve"/>
      <point x="157" y="800" type="line"/>
      <point x="184" y="652"/>
      <point x="199" y="274"/>
      <point x="207" y="20" type="curve"/>
      <point x="231" y="20" type="line"/>
      <point x="231" y="322"/>
      <point x="202" y="801"/>
      <point x="187" y="900" type="curve"/>
    </contour>
  </outline>
</glyph>
<glyph name="uni0472" format="2">
  <advance width="495"/>
  <unicode hex="0472"/>
  <anchor x="388" y="852" name="Yerik"/>
  <anchor x="242" y="852" name="Above"/>
  <outline>
    <contour>
      <point x="159" y="220" type="line"/>
      <point x="142" y="284"/>
      <point x="122" y="366"/>
      <point x="122" y="442" type="curve" smooth="yes"/>
      <point x="122" y="507"/>
      <point x="131" y="553"/>
      <point x="147" y="608" type="curve" smooth="yes"/>
      <point x="158" y="645"/>
      <point x="174" y="686"/>
      <point x="189" y="710" type="curve" smooth="yes"/>
      <point x="212" y="746"/>
      <point x="228" y="781"/>
      <point x="238" y="808" type="curve"/>
      <point x="253" y="808" type="line"/>
      <point x="256" y="783"/>
      <point x="255" y="768"/>
      <point x="261" y="745" type="curve" smooth="yes"/>
      <point x="294" y="619"/>
      <point x="356" y="497"/>
      <point x="356" y="338" type="curve" smooth="yes"/>
      <point x="356" y="292"/>
      <point x="351" y="256"/>
      <point x="343" y="220" type="curve"/>
      <point x="465" y="220" type="line"/>
      <point x="465" y="0" type="line"/>
      <point x="365" y="0" type="line"/>
      <point x="365" y="200" type="line"/>
      <point x="338" y="200" type="line"/>
      <point x="329" y="154"/>
      <point x="308" y="100"/>
      <point x="289" y="70" type="curve" smooth="yes"/>
      <point x="266" y="34"/>
      <point x="250" y="-1"/>
      <point x="240" y="-28" type="curve"/>
      <point x="225" y="-28" type="line"/>
      <point x="222" y="-3"/>
      <point x="223" y="12"/>
      <point x="217" y="35" type="curve" smooth="yes"/>
      <point x="201" y="97"/>
      <point x="183" y="143"/>
      <point x="165" y="200" type="curve"/>
      <point x="130" y="200" type="line"/>
      <point x="130" y="0" type="line"/>
      <point x="30" y="0" type="line"/>
      <point x="30" y="220" type="line"/>
    </contour>
    <contour>
      <point x="168" y="603" type="curve" smooth="yes"/>
      <point x="168" y="599"/>
      <point x="168" y="596"/>
      <point x="168" y="592" type="curve" smooth="yes"/>
      <point x="168" y="475"/>
      <point x="241" y="317"/>
      <point x="274" y="220" type="curve"/>
      <point x="308" y="220" type="line"/>
      <point x="295" y="340"/>
      <point x="237" y="462"/>
      <point x="202" y="564" type="curve" smooth="yes"/>
      <point x="193" y="589"/>
      <point x="184" y="619"/>
      <point x="180" y="645" type="curve"/>
      <point x="175" y="631"/>
      <point x="171" y="616"/>
    </contour>
    <contour>
      <point x="281" y="200" type="line"/>
      <point x="288" y="178"/>
      <point x="294" y="156"/>
      <point x="297" y="134" type="curve"/>
      <point x="303" y="149"/>
      <point x="307" y="163"/>
      <point x="310" y="177" type="curve"/>
      <point x="310" y="200" type="line"/>
    </contour>
  </outline>
</glyph>
<glyph name="uni0475" format="2">
  <advance width="393"/>
  <unicode hex="0475"/>
  <anchor x="325" y="852" name="Yerik"/>
  <anchor x="215" y="852" name="Above"/>
  <outline>
    <contour>
      <point x="336" y="808" type="curve" smooth="yes"/>
      <point x="368" y="808" type="line"/>
      <point x="368" y="800" type="line"/>
      <point x="353" y="777"/>
      <point x="348" y="746"/>
      <point x="348" y="718" type="curve" smooth="yes"/>
      <point x="348" y="706"/>
      <point x="349" y="695"/>
      <point x="350" y="687" type="curve"/>
      <point x="350" y="678" type="line"/>
      <point x="283" y="678" type="line" smooth="yes"/>
      <point x="262" y="678"/>
      <point x="248" y="663"/>
      <point x="247" y="635" type="curve" smooth="yes"/>
      <point x="216" y="0" type="line"/>
      <point x="105" y="0" type="line"/>
      <point x="45" y="800" type="line"/>
      <point x="145" y="800" type="line"/>
      <point x="199" y="73" type="line"/>
      <point x="227" y="641" type="line" smooth="yes"/>
      <point x="231" y="728"/>
      <point x="259" y="808"/>
    </contour>
  </outline>
</glyph>
<glyph name="uni0476" format="2">
  <advance width="393"/>
  <unicode hex="0476"/>
  <anchor x="182" y="1042" name="Yerik"/>
  <anchor x="184" y="1042" name="Above"/>
  <outline>
    <contour>
      <point x="368" y="800" type="line"/>
      <point x="353" y="777"/>
      <point x="348" y="746"/>
      <point x="348" y="718" type="curve" smooth="yes"/>
      <point x="348" y="706"/>
      <point x="349" y="695"/>
      <point x="350" y="687" type="curve"/>
      <point x="350" y="678" type="line"/>
      <point x="283" y="678" type="line" smooth="yes"/>
      <point x="262" y="678"/>
      <point x="248" y="663"/>
      <point x="247" y="635" type="curve" smooth="yes"/>
      <point x="216" y="0" type="line"/>
      <point x="105" y="0" type="line"/>
      <point x="45" y="800" type="line"/>
      <point x="145" y="800" type="line"/>
      <point x="199" y="73" type="line"/>
      <point x="227" y="641" type="line" smooth="yes"/>
      <point x="231" y="728"/>
      <point x="259" y="808"/>
      <point x="336" y="808" type="curve" smooth="yes"/>
      <point x="368" y="808" type="line"/>
    </contour>
    <contour>
      <point x="269" y="868" type="line"/>
      <point x="233" y="868" type="line"/>
      <point x="146" y="984" type="line"/>
      <point x="146" y="991" type="line"/>
      <point x="188" y="991" type="line"/>
      <point x="269" y="875" type="line"/>
    </contour>
    <contour>
      <point x="179" y="868" type="line"/>
      <point x="143" y="868" type="line"/>
      <point x="56" y="984" type="line"/>
      <point x="56" y="991" type="line"/>
      <point x="98" y="991" type="line"/>
      <point x="179" y="875" type="line"/>
    </contour>
  </outline>
</glyph>
<glyph name="uni0478" format="2">
  <advance width="672"/>
  <unicode hex="0478"/>
  <anchor x="605" y="852" name="Yerik"/>
  <anchor x="500" y="852" name="Above"/>
  <outline>
    <contour>
      <point x="314" y="374" type="curve" smooth="yes"/>
      <point x="314" y="246"/>
      <point x="262" y="149"/>
      <point x="212" y="70" type="curve" smooth="yes"/>
      <point x="194" y="40"/>
      <point x="175" y="12"/>
      <point x="170" y="-8" type="curve"/>
      <point x="147" y="-8" type="line"/>
      <point x="148" y="0"/>
      <point x="148" y="7"/>
      <point x="148" y="14" type="curve" smooth="yes"/>
      <point x="148" y="86"/>
      <point x="118" y="145"/>
      <point x="90" y="216" type="curve" smooth="yes"/>
      <point x="65" y="276"/>
      <point x="45" y="351"/>
      <point x="45" y="426" type="curve" smooth="yes"/>
      <point x="45" y="554"/>
      <point x="97" y="651"/>
      <point x="147" y="730" type="curve" smooth="yes"/>
      <point x="165" y="760"/>
      <point x="184" y="788"/>
      <point x="189" y="808" type="curve"/>
      <point x="212" y="808" type="line"/>
      <point x="211" y="800"/>
      <point x="211" y="793"/>
      <point x="211" y="786" type="curve" smooth="yes"/>
      <point x="211" y="714"/>
      <point x="241" y="655"/>
      <point x="269" y="584" type="curve" smooth="yes"/>
      <point x="294" y="524"/>
      <point x="314" y="449"/>
    </contour>
    <contour>
      <point x="647" y="800" type="line"/>
      <point x="640" y="784"/>
      <point x="633" y="769"/>
      <point x="629" y="749" type="curve" smooth="yes"/>
      <point x="625" y="729"/>
      <point x="622" y="700"/>
      <point x="621" y="687" type="curve"/>
      <point x="621" y="678" type="line"/>
      <point x="584" y="678" type="line" smooth="yes"/>
      <point x="563" y="678"/>
      <point x="541" y="669"/>
      <point x="538" y="621" type="curve" smooth="yes"/>
      <point x="519" y="328" type="line"/>
      <point x="517" y="94" type="line" smooth="yes"/>
      <point x="517" y="93"/>
      <point x="517" y="92"/>
      <point x="517" y="91" type="curve" smooth="yes"/>
      <point x="517" y="53"/>
      <point x="535" y="22"/>
      <point x="576" y="18" type="curve"/>
      <point x="576" y="0" type="line"/>
      <point x="414" y="0" type="line"/>
      <point x="414" y="18" type="line"/>
      <point x="458" y="21"/>
      <point x="496" y="50"/>
      <point x="497" y="95" type="curve" smooth="yes"/>
      <point x="498" y="291" type="line"/>
      <point x="404" y="291" type="line"/>
      <point x="348" y="800" type="line"/>
      <point x="453" y="800" type="line"/>
      <point x="500" y="368" type="line"/>
      <point x="517" y="627" type="line" smooth="yes"/>
      <point x="525" y="754"/>
      <point x="548" y="808"/>
      <point x="601" y="808" type="curve" smooth="yes"/>
      <point x="647" y="808" type="line"/>
    </contour>
    <contour>
      <point x="132" y="667" type="curve"/>
      <point x="116" y="639"/>
      <point x="108" y="619"/>
      <point x="108" y="573" type="curve" smooth="yes"/>
      <point x="108" y="514"/>
      <point x="132" y="434"/>
      <point x="154" y="362" type="curve" smooth="yes"/>
      <point x="174" y="288"/>
      <point x="211" y="209"/>
      <point x="226" y="132" type="curve"/>
      <point x="233" y="145"/>
      <point x="239" y="157"/>
      <point x="244" y="168" type="curve" smooth="yes"/>
      <point x="248" y="180"/>
      <point x="251" y="205"/>
      <point x="251" y="227" type="curve" smooth="yes"/>
      <point x="251" y="286"/>
      <point x="227" y="366"/>
      <point x="205" y="438" type="curve" smooth="yes"/>
      <point x="192" y="486"/>
      <point x="170" y="538"/>
      <point x="155" y="584" type="curve" smooth="yes"/>
      <point x="145" y="614"/>
      <point x="137" y="647"/>
    </contour>
  </outline>
</glyph>
<glyph name="uni047B" format="2">
  <advance width="518"/>
  <unicode hex="047B"/>
  <anchor x="395" y="852" name="Yerik"/>
  <anchor x="263" y="852" name="Above"/>
  <outline>
    <contour>
      <point x="259" y="818" type="curve" smooth="yes"/>
      <point x="273" y="818"/>
      <point x="286" y="812"/>
      <point x="295" y="802" type="curve"/>
      <point x="304" y="806"/>
      <point x="314" y="808"/>
      <point x="326" y="808" type="curve" smooth="yes"/>
      <point x="395" y="808"/>
      <point x="429" y="757"/>
      <point x="442" y="712" type="curve" smooth="yes"/>
      <point x="462" y="644"/>
      <point x="468" y="490"/>
      <point x="468" y="400" type="curve" smooth="yes"/>
      <point x="468" y="310"/>
      <point x="462" y="156"/>
      <point x="442" y="88" type="curve" smooth="yes"/>
      <point x="429" y="43"/>
      <point x="395" y="-8"/>
      <point x="326" y="-8" type="curve" smooth="yes"/>
      <point x="314" y="-8"/>
      <point x="305" y="-6"/>
      <point x="296" y="-2" type="curve"/>
      <point x="286" y="-12"/>
      <point x="273" y="-18"/>
      <point x="259" y="-18" type="curve" smooth="yes"/>
      <point x="245" y="-18"/>
      <point x="231" y="-12"/>
      <point x="222" y="-2" type="curve"/>
      <point x="213" y="-6"/>
      <point x="203" y="-8"/>
      <point x="192" y="-8" type="curve" smooth="yes"/>
      <point x="123" y="-8"/>
      <point x="89" y="43"/>
      <point x="76" y="88" type="curve" smooth="yes"/>
      <point x="56" y="156"/>
      <point x="50" y="310"/>
      <point x="50" y="400" type="curve" smooth="yes"/>
      <point x="50" y="490"/>
      <point x="56" y="644"/>
      <point x="76" y="712" type="curve" smooth="yes"/>
      <point x="89" y="757"/>
      <point x="123" y="808"/>
      <point x="192" y="808" type="curve" smooth="yes"/>
      <point x="203" y="808"/>
      <point x="213" y="806"/>
      <point x="222" y="802" type="curve"/>
      <point x="232" y="812"/>
      <point x="245" y="818"/>
    </contour>
    <contour>
      <point x="259" y="85" type="curve" smooth="yes"/>
      <point x="287" y="85"/>
      <point x="311" y="61"/>
      <point x="311" y="33" type="curve" smooth="yes"/>
      <point x="311" y="26"/>
      <point x="309" y="19"/>
      <point x="306" y="12" type="curve"/>
      <point x="312" y="10"/>
      <point x="317" y="10"/>
      <point x="321" y="10" type="curve" smooth="yes"/>
      <point x="335" y="10"/>
      <point x="359" y="20"/>
      <point x="359" y="57" type="curve" smooth="yes"/>
      <point x="359" y="743" type="line" smooth="yes"/>
      <point x="359" y="780"/>
      <point x="335" y="790"/>
      <point x="321" y="790" type="curve" smooth="yes"/>
      <point x="317" y="790"/>
      <point x="312" y="789"/>
      <point x="306" y="787" type="curve"/>
      <point x="309" y="781"/>
      <point x="311" y="773"/>
      <point x="311" y="766" type="curve" smooth="yes"/>
      <point x="311" y="738"/>
      <point x="287" y="715"/>
      <point x="259" y="715" type="curve" smooth="yes"/>
      <point x="231" y="715"/>
      <point x="207" y="738"/>
      <point x="207" y="766" type="curve" smooth="yes"/>
      <point x="207" y="773"/>
      <point x="208" y="781"/>
      <point x="211" y="787" type="curve"/>
      <point x="206" y="789"/>
      <point x="201" y="790"/>
      <point x="197" y="790" type="curve" smooth="yes"/>
      <point x="183" y="790"/>
      <point x="159" y="780"/>
      <point x="159" y="743" type="curve" smooth="yes"/>
      <point x="159" y="57" type="line" smooth="yes"/>
      <point x="159" y="20"/>
      <point x="183" y="10"/>
      <point x="197" y="10" type="curve" smooth="yes"/>
      <point x="201" y="10"/>
      <point x="206" y="10"/>
      <point x="211" y="12" type="curve"/>
      <point x="208" y="19"/>
      <point x="207" y="26"/>
      <point x="207" y="33" type="curve" smooth="yes"/>
      <point x="207" y="61"/>
      <point x="231" y="85"/>
    </contour>
  </outline>
</glyph>
<glyph name="uni047C" format="2">
  <advance width="554"/>
  <unicode hex="047C"/>
  <anchor x="450" y="986" name="Yerik"/>
  <anchor x="270" y="1042" name="Above"/>
  <outline>
    <contour>
      <point x="277" y="100" type="curve"/>
      <point x="264" y="45"/>
      <point x="235" y="-8"/>
      <point x="175" y="-8" type="curve" smooth="yes"/>
      <point x="129" y="-8"/>
      <point x="91" y="39"/>
      <point x="79" y="88" type="curve" smooth="yes"/>
      <point x="61" y="160"/>
      <point x="50" y="313"/>
      <point x="50" y="410" type="curve" smooth="yes"/>
      <point x="50" y="498"/>
      <point x="56" y="644"/>
      <point x="76" y="712" type="curve" smooth="yes"/>
      <point x="89" y="757"/>
      <point x="123" y="808"/>
      <point x="192" y="808" type="curve" smooth="yes"/>
      <point x="245" y="808"/>
      <point x="271" y="768"/>
      <point x="271" y="711" type="curve" smooth="yes"/>
      <point x="271" y="687"/>
      <point x="259" y="655"/>
      <point x="228" y="655" type="curve" smooth="yes"/>
      <point x="196" y="655"/>
      <point x="184" y="687"/>
      <point x="184" y="711" type="curve" smooth="yes"/>
      <point x="184" y="735"/>
      <point x="204" y="761"/>
      <point x="228" y="761" type="curve" smooth="yes"/>
      <point x="232" y="761"/>
      <point x="237" y="760"/>
      <point x="241" y="758" type="curve"/>
      <point x="233" y="782"/>
      <point x="209" y="790"/>
      <point x="197" y="790" type="curve" smooth="yes"/>
      <point x="183" y="790"/>
      <point x="159" y="780"/>
      <point x="159" y="743" type="curve" smooth="yes"/>
      <point x="159" y="136" type="line" smooth="yes"/>
      <point x="159" y="72"/>
      <point x="181" y="30"/>
      <point x="206" y="30" type="curve" smooth="yes"/>
      <point x="217" y="30"/>
      <point x="223" y="32"/>
      <point x="229" y="40" type="curve" smooth="yes"/>
      <point x="249" y="66"/>
      <point x="263" y="116"/>
      <point x="267" y="155" type="curve"/>
      <point x="233" y="160"/>
      <point x="214" y="190"/>
      <point x="214" y="227" type="curve" smooth="yes"/>
      <point x="214" y="263"/>
      <point x="233" y="294"/>
      <point x="267" y="299" type="curve"/>
      <point x="263" y="421"/>
      <point x="234" y="520"/>
      <point x="211" y="562" type="curve"/>
      <point x="215" y="570" type="line"/>
      <point x="231" y="566"/>
      <point x="249" y="563"/>
      <point x="277" y="563" type="curve" smooth="yes"/>
      <point x="305" y="563"/>
      <point x="323" y="566"/>
      <point x="339" y="570" type="curve"/>
      <point x="343" y="562" type="line"/>
      <point x="320" y="520"/>
      <point x="290" y="421"/>
      <point x="286" y="299" type="curve"/>
      <point x="320" y="294"/>
      <point x="340" y="263"/>
      <point x="340" y="227" type="curve" smooth="yes"/>
      <point x="340" y="190"/>
      <point x="321" y="160"/>
      <point x="287" y="155" type="curve"/>
      <point x="290" y="116"/>
      <point x="304" y="66"/>
      <point x="325" y="40" type="curve" smooth="yes"/>
      <point x="331" y="32"/>
      <point x="337" y="30"/>
      <point x="348" y="30" type="curve" smooth="yes"/>
      <point x="373" y="30"/>
      <point x="395" y="72"/>
      <point x="395" y="136" type="curve" smooth="yes"/>
      <point x="395" y="743" type="line" smooth="yes"/>
      <point x="395" y="780"/>
      <point x="371" y="790"/>
      <point x="357" y="790" type="curve" smooth="yes"/>
      <point x="345" y="790"/>
      <point x="320" y="782"/>
      <point x="312" y="758" type="curve"/>
      <point x="316" y="760"/>
      <point x="321" y="761"/>
      <point x="326" y="761" type="curve" smooth="yes"/>
      <point x="350" y="761"/>
      <point x="370" y="735"/>
      <point x="370" y="711" type="curve" smooth="yes"/>
      <point x="370" y="687"/>
      <point x="358" y="655"/>
      <point x="326" y="655" type="curve" smooth="yes"/>
      <point x="295" y="655"/>
      <point x="283" y="687"/>
      <point x="283" y="711" type="curve" smooth="yes"/>
      <point x="283" y="768"/>
      <point x="309" y="808"/>
      <point x="362" y="808" type="curve" smooth="yes"/>
      <point x="431" y="808"/>
      <point x="465" y="757"/>
      <point x="478" y="712" type="curve" smooth="yes"/>
      <point x="498" y="644"/>
      <point x="504" y="498"/>
      <point x="504" y="410" type="curve" smooth="yes"/>
      <point x="504" y="313"/>
      <point x="493" y="160"/>
      <point x="475" y="88" type="curve" smooth="yes"/>
      <point x="463" y="39"/>
      <point x="425" y="-8"/>
      <point x="379" y="-8" type="curve" smooth="yes"/>
      <point x="319" y="-8"/>
      <point x="290" y="45"/>
    </contour>
    <contour>
      <point x="123" y="846" type="line"/>
      <point x="121" y="850"/>
      <point x="117" y="859"/>
      <point x="117" y="868" type="curve" smooth="yes"/>
      <point x="117" y="890"/>
      <point x="142" y="931"/>
      <point x="161" y="941" type="curve" smooth="yes"/>
      <point x="211" y="967"/>
      <point x="266" y="981"/>
      <point x="312" y="987" type="curve" smooth="yes"/>
      <point x="319" y="988"/>
      <point x="328" y="988"/>
      <point x="333" y="984" type="curve" smooth="yes"/>
      <point x="386" y="943"/>
      <point x="464" y="866"/>
      <point x="496" y="845" type="curve" smooth="yes"/>
      <point x="499" y="839"/>
      <point x="499" y="833"/>
      <point x="498" y="827" type="curve"/>
      <point x="427" y="827" type="line"/>
      <point x="386" y="852"/>
      <point x="346" y="910"/>
      <point x="297" y="942" type="curve" smooth="yes"/>
      <point x="289" y="945"/>
      <point x="271" y="946"/>
      <point x="255" y="946" type="curve" smooth="yes"/>
      <point x="247" y="946"/>
      <point x="240" y="946"/>
      <point x="234" y="945" type="curve" smooth="yes"/>
      <point x="220" y="943"/>
      <point x="203" y="936"/>
      <point x="193" y="926" type="curve" smooth="yes"/>
      <point x="187" y="917"/>
      <point x="183" y="908"/>
      <point x="182" y="898" type="curve" smooth="yes"/>
      <point x="182" y="896"/>
      <point x="182" y="894"/>
      <point x="182" y="892" type="curve" smooth="yes"/>
      <point x="182" y="880"/>
      <point x="184" y="866"/>
      <point x="186" y="859" type="curve"/>
      <point x="186" y="853" type="line"/>
    </contour>
    <contour>
      <point x="297" y="825" type="line"/>
      <point x="302" y="834"/>
      <point x="305" y="843"/>
      <point x="305" y="855" type="curve" smooth="yes"/>
      <point x="305" y="872"/>
      <point x="289" y="892"/>
      <point x="268" y="892" type="curve" smooth="yes"/>
      <point x="246" y="892"/>
      <point x="234" y="874"/>
      <point x="234" y="858" type="curve" smooth="yes"/>
      <point x="234" y="844"/>
      <point x="240" y="831"/>
      <point x="243" y="825" type="curve"/>
      <point x="231" y="821" type="line"/>
      <point x="219" y="831"/>
      <point x="205" y="850"/>
      <point x="205" y="875" type="curve" smooth="yes"/>
      <point x="205" y="902"/>
      <point x="229" y="930"/>
      <point x="264" y="930" type="curve" smooth="yes"/>
      <point x="301" y="930"/>
      <point x="333" y="900"/>
      <point x="333" y="870" type="curve" smooth="yes"/>
      <point x="333" y="850"/>
      <point x="317" y="828"/>
      <point x="309" y="821" type="curve"/>
    </contour>
  </outline>
</glyph>
<glyph name="uni047E" format="2">
  <advance width="554"/>
  <unicode hex="047E"/>
  <anchor x="456" y="1018" name="Yerik"/>
  <anchor x="278" y="1018" name="Above"/>
  <outline>
    <contour>
      <point x="277" y="100" type="curve"/>
      <point x="264" y="45"/>
      <point x="235" y="-8"/>
      <point x="175" y="-8" type="curve" smooth="yes"/>
      <point x="129" y="-8"/>
      <point x="91" y="39"/>
      <point x="79" y="88" type="curve" smooth="yes"/>
      <point x="61" y="160"/>
      <point x="50" y="313"/>
      <point x="50" y="410" type="curve" smooth="yes"/>
      <point x="50" y="498"/>
      <point x="56" y="644"/>
      <point x="76" y="712" type="curve" smooth="yes"/>
      <point x="89" y="757"/>
      <point x="123" y="808"/>
      <point x="192" y="808" type="curve" smooth="yes"/>
      <point x="245" y="808"/>
      <point x="271" y="768"/>
      <point x="271" y="711" type="curve" smooth="yes"/>
      <point x="271" y="687"/>
      <point x="259" y="655"/>
      <point x="228" y="655" type="curve" smooth="yes"/>
      <point x="196" y="655"/>
      <point x="184" y="687"/>
      <point x="184" y="711" type="curve" smooth="yes"/>
      <point x="184" y="735"/>
      <point x="204" y="761"/>
      <point x="228" y="761" type="curve" smooth="yes"/>
      <point x="232" y="761"/>
      <point x="237" y="760"/>
      <point x="241" y="758" type="curve"/>
      <point x="233" y="782"/>
      <point x="209" y="790"/>
      <point x="197" y="790" type="curve" smooth="yes"/>
      <point x="183" y="790"/>
      <point x="159" y="780"/>
      <point x="159" y="743" type="curve" smooth="yes"/>
      <point x="159" y="136" type="line" smooth="yes"/>
      <point x="159" y="72"/>
      <point x="181" y="30"/>
      <point x="206" y="30" type="curve" smooth="yes"/>
      <point x="217" y="30"/>
      <point x="223" y="32"/>
      <point x="229" y="40" type="curve" smooth="yes"/>
      <point x="249" y="66"/>
      <point x="263" y="116"/>
      <point x="267" y="155" type="curve"/>
      <point x="233" y="160"/>
      <point x="214" y="190"/>
      <point x="214" y="227" type="curve" smooth="yes"/>
      <point x="214" y="263"/>
      <point x="233" y="294"/>
      <point x="267" y="299" type="curve"/>
      <point x="263" y="421"/>
      <point x="234" y="520"/>
      <point x="211" y="562" type="curve"/>
      <point x="215" y="570" type="line"/>
      <point x="231" y="566"/>
      <point x="249" y="563"/>
      <point x="277" y="563" type="curve" smooth="yes"/>
      <point x="305" y="563"/>
      <point x="323" y="566"/>
      <point x="339" y="570" type="curve"/>
      <point x="343" y="562" type="line"/>
      <point x="320" y="520"/>
      <point x="290" y="421"/>
      <point x="286" y="299" type="curve"/>
      <point x="320" y="294"/>
      <point x="340" y="263"/>
      <point x="340" y="227" type="curve" smooth="yes"/>
      <point x="340" y="190"/>
      <point x="321" y="160"/>
      <point x="287" y="155" type="curve"/>
      <point x="290" y="116"/>
      <point x="304" y="66"/>
      <point x="325" y="40" type="curve" smooth="yes"/>
      <point x="331" y="32"/>
      <point x="337" y="30"/>
      <point x="348" y="30" type="curve" smooth="yes"/>
      <point x="373" y="30"/>
      <point x="395" y="72"/>
      <point x="395" y="136" type="curve" smooth="yes"/>
      <point x="395" y="743" type="line" smooth="yes"/>
      <point x="395" y="780"/>
      <point x="371" y="790"/>
      <point x="357" y="790" type="curve" smooth="yes"/>
      <point x="345" y="790"/>
      <point x="320" y="782"/>
      <point x="312" y="758" type="curve"/>
      <point x="316" y="760"/>
      <point x="321" y="761"/>
      <point x="326" y="761" type="curve" smooth="yes"/>
      <point x="350" y="761"/>
      <point x="370" y="735"/>
      <point x="370" y="711" type="curve" smooth="yes"/>
      <point x="370" y="687"/>
      <point x="358" y="655"/>
      <point x="326" y="655" type="curve" smooth="yes"/>
      <point x="295" y="655"/>
      <point x="283" y="687"/>
      <point x="283" y="711" type="curve" smooth="yes"/>
      <point x="283" y="714" type="line"/>
      <point x="284" y="769"/>
      <point x="310" y="808"/>
      <point x="362" y="808" type="curve" smooth="yes"/>
      <point x="431" y="808"/>
      <point x="465" y="757"/>
      <point x="478" y="712" type="curve" smooth="yes"/>
      <point x="498" y="644"/>
      <point x="504" y="498"/>
      <point x="504" y="410" type="curve" smooth="yes"/>
      <point x="504" y="313"/>
      <point x="493" y="160"/>
      <point x="475" y="88" type="curve" smooth="yes"/>
      <point x="463" y="39"/>
      <point x="425" y="-8"/>
      <point x="379" y="-8" type="curve" smooth="yes"/>
      <point x="319" y="-8"/>
      <point x="290" y="45"/>
    </contour>
    <contour>
      <point x="522" y="942" type="line"/>
      <point x="486" y="942"/>
      <point x="468" y="931"/>
      <point x="447" y="913" type="curve" smooth="yes"/>
      <point x="425" y="894"/>
      <point x="408" y="869"/>
      <point x="400" y="846" type="curve"/>
      <point x="383" y="846" type="line"/>
      <point x="383" y="942" type="line"/>
      <point x="327" y="942" type="line"/>
      <point x="327" y="845" type="line"/>
      <point x="227" y="845" type="line"/>
      <point x="227" y="942" type="line"/>
      <point x="171" y="942" type="line"/>
      <point x="171" y="846" type="line"/>
      <point x="154" y="846" type="line"/>
      <point x="146" y="869"/>
      <point x="129" y="894"/>
      <point x="107" y="913" type="curve" smooth="yes"/>
      <point x="86" y="931"/>
      <point x="68" y="942"/>
      <point x="32" y="942" type="curve"/>
      <point x="32" y="962" type="line"/>
      <point x="522" y="962" type="line"/>
    </contour>
  </outline>
</glyph>
<glyph name="uni0482" format="2">
  <advance width="218"/>
  <unicode hex="0482"/>
  <outline>
    <contour>
      <point x="203" y="135" type="curve"/>
      <point x="184" y="100" type="line"/>
      <point x="137" y="124" type="line"/>
      <point x="133" y="114"/>
      <point x="127" y="101"/>
      <point x="123" y="90" type="curve"/>
      <point x="174" y="67" type="line"/>
      <point x="151" y="32" type="line"/>
      <point x="138" y="38"/>
      <point x="125" y="43"/>
      <point x="107" y="53" type="curve"/>
      <point x="93" y="27"/>
      <point x="85" y="6"/>
      <point x="81" y="-8" type="curve"/>
      <point x="40" y="6" type="line"/>
      <point x="46" y="19"/>
      <point x="55" y="43"/>
      <point x="69" y="73" type="curve"/>
      <point x="48" y="82"/>
      <point x="28" y="92"/>
      <point x="15" y="98" type="curve"/>
      <point x="38" y="134" type="line"/>
      <point x="50" y="129"/>
      <point x="67" y="118"/>
      <point x="86" y="111" type="curve"/>
      <point x="90" y="120"/>
      <point x="95" y="131"/>
      <point x="100" y="143" type="curve"/>
      <point x="79" y="154"/>
      <point x="59" y="163"/>
      <point x="48" y="170" type="curve"/>
      <point x="67" y="206" type="line"/>
      <point x="79" y="199"/>
      <point x="98" y="190"/>
      <point x="116" y="181" type="curve"/>
      <point x="131" y="208"/>
      <point x="141" y="229"/>
      <point x="145" y="245" type="curve"/>
      <point x="185" y="229" type="line"/>
      <point x="179" y="214"/>
      <point x="168" y="193"/>
      <point x="154" y="161" type="curve"/>
      <point x="175" y="152"/>
      <point x="189" y="144"/>
    </contour>
  </outline>
</glyph>
<glyph name="uni0483" format="2">
  <advance width="0"/>
  <unicode hex="0483"/>
  <anchor x="-170" y="632" name="_Above"/>
  <outline>
    <contour>
      <point x="-107" y="791" type="line"/>
      <point x="-37" y="791" type="line"/>
      <point x="-37" y="723" type="line"/>
      <point x="-15" y="723" type="line"/>
      <point x="-15" y="703" type="line"/>
      <point x="-267" y="703" type="line"/>
      <point x="-267" y="635" type="line"/>
      <point x="-337" y="635" type="line"/>
      <point x="-337" y="703" type="line"/>
      <point x="-367" y="703" type="line"/>
      <point x="-367" y="723" type="line"/>
      <point x="-107" y="723" type="line"/>
    </contour>
  </outline>
</glyph>
<glyph name="uni0486" format="2">
  <advance width="0"/>
  <unicode hex="0486"/>
  <anchor x="-95" y="851" name="Stack"/>
  <anchor x="-94" y="614" name="_Stack"/>
  <anchor x="-94" y="614" name="_Above"/>
  <outline>
    <contour>
      <point x="-67" y="623" type="line"/>
      <point x="-56" y="635"/>
      <point x="-54" y="650"/>
      <point x="-54" y="668" type="curve" smooth="yes"/>
      <point x="-54" y="693"/>
      <point x="-71" y="716"/>
      <point x="-96" y="716" type="curve" smooth="yes"/>
      <point x="-122" y="716"/>
      <point x="-141" y="696"/>
      <point x="-141" y="671" type="curve" smooth="yes"/>
      <point x="-141" y="650"/>
      <point x="-132" y="630"/>
      <point x="-127" y="621" type="curve"/>
      <point x="-142" y="612" type="line"/>
      <point x="-163" y="626"/>
      <point x="-183" y="656"/>
      <point x="-183" y="693" type="curve" smooth="yes"/>
      <point x="-183" y="734"/>
      <point x="-151" y="778"/>
      <point x="-99" y="778" type="curve" smooth="yes"/>
      <point x="-38" y="778"/>
      <point x="-12" y="736"/>
      <point x="-12" y="692" type="curve" smooth="yes"/>
      <point x="-12" y="654"/>
      <point x="-32" y="632"/>
      <point x="-54" y="614" type="curve"/>
    </contour>
  </outline>
</glyph>
<glyph name="uni0487" format="2">
  <advance width="0"/>
  <unicode hex="0487"/>
  <anchor x="-201" y="867" name="Stack"/>
  <anchor x="-200" y="666" name="_Stack"/>
  <anchor x="-200" y="666" name="_Above"/>
  <outline>
    <contour>
      <point x="-357" y="664" type="line"/>
      <point x="-359" y="668"/>
      <point x="-363" y="677"/>
      <point x="-363" y="686" type="curve" smooth="yes"/>
      <point x="-363" y="699"/>
      <point x="-355" y="723"/>
      <point x="-346" y="738" type="curve" smooth="yes"/>
      <point x="-340" y="748"/>
      <point x="-335" y="753"/>
      <point x="-325" y="758" type="curve" smooth="yes"/>
      <point x="-273" y="783"/>
      <point x="-234" y="795"/>
      <point x="-188" y="805" type="curve" smooth="yes"/>
      <point x="-181" y="806"/>
      <point x="-172" y="806"/>
      <point x="-167" y="802" type="curve" smooth="yes"/>
      <point x="-114" y="761"/>
      <point x="-6" y="684"/>
      <point x="26" y="663" type="curve" smooth="yes"/>
      <point x="29" y="657"/>
      <point x="29" y="651"/>
      <point x="28" y="645" type="curve"/>
      <point x="-43" y="645" type="line"/>
      <point x="-85" y="669"/>
      <point x="-154" y="728"/>
      <point x="-203" y="760" type="curve" smooth="yes"/>
      <point x="-215" y="764"/>
      <point x="-231" y="765"/>
      <point x="-248" y="765" type="curve" smooth="yes"/>
      <point x="-265" y="765"/>
      <point x="-287" y="756"/>
      <point x="-296" y="745" type="curve" smooth="yes"/>
      <point x="-300" y="736"/>
      <point x="-300" y="727"/>
      <point x="-300" y="717" type="curve" smooth="yes"/>
      <point x="-300" y="701"/>
      <point x="-294" y="688"/>
      <point x="-294" y="677" type="curve" smooth="yes"/>
      <point x="-294" y="671" type="line"/>
    </contour>
  </outline>
</glyph>
<glyph name="endash" format="2">
  <advance width="315"/>
  <unicode hex="2013"/>
  <outline>
    <contour>
      <point x="280" y="380" type="line"/>
      <point x="35" y="380" type="line"/>
      <point x="35" y="420" type="line"/>
      <point x="280" y="420" type="line"/>
    </contour>
  </outline>
</glyph>
<glyph name="emdash" format="2">
  <advance width="475"/>
  <unicode hex="2014"/>
  <outline>
    <contour>
      <point x="440" y="380" type="line"/>
      <point x="35" y="380" type="line"/>
      <point x="35" y="420" type="line"/>
      <point x="440" y="420" type="line"/>
    </contour>
  </outline>
</glyph>
<glyph name="quoteleft" format="2">
  <advance width="162"/>
  <unicode hex="2018"/>
  <outline>
    <contour>
      <point x="143" y="793" type="line"/>
      <point x="93" y="576" type="line"/>
      <point x="21" y="576" type="line"/>
      <point x="21" y="583" type="line"/>
      <point x="87" y="800" type="line"/>
      <point x="143" y="800" type="line"/>
    </contour>
  </outline>
</glyph>
<glyph name="quotesinglbase" format="2">
  <advance width="162"/>
  <unicode hex="201A"/>
  <outline>
    <contour>
      <point x="142" y="217" type="line"/>
      <point x="76" y="0" type="line"/>
      <point x="20" y="0" type="line"/>
      <point x="20" y="7" type="line"/>
      <point x="70" y="224" type="line"/>
      <point x="142" y="224" type="line"/>
    </contour>
  </outline>
</glyph>
<glyph name="quotedblleft" format="2">
  <advance width="262"/>
  <unicode hex="201C"/>
  <outline>
    <contour>
      <point x="143" y="793" type="line"/>
      <point x="93" y="576" type="line"/>
      <point x="21" y="576" type="line"/>
      <point x="21" y="583" type="line"/>
      <point x="87" y="800" type="line"/>
      <point x="143" y="800" type="line"/>
    </contour>
    <contour>
      <point x="243" y="793" type="line"/>
      <point x="193" y="576" type="line"/>
      <point x="121" y="576" type="line"/>
      <point x="121" y="583" type="line"/>
      <point x="187" y="800" type="line"/>
      <point x="243" y="800" type="line"/>
    </contour>
  </outline>
</glyph>
<glyph name="quotedblbase" format="2">
  <advance width="262"/>
  <unicode hex="201E"/>
  <outline>
    <contour>
      <point x="242" y="217" type="line"/>
      <point x="176" y="0" type="line"/>
      <point x="120" y="0" type="line"/>
      <point x="120" y="7" type="line"/>
      <point x="170" y="224" type="line"/>
      <point x="242" y="224" type="line"/>
    </contour>
    <contour>
      <point x="142" y="217" type="line"/>
      <point x="76" y="0" type="line"/>
      <point x="20" y="0" type="line"/>
      <point x="20" y="7" type="line"/>
      <point x="70" y="224" type="line"/>
      <point x="142" y="224" type="line"/>
    </contour>
  </outline>
</glyph>
<glyph name="uni2DE1" format="2">
  <advance width="1"/>
  <unicode hex="2DE1"/>
  <anchor x="-149" y="923" name="Stack"/>
  <anchor x="-148" y="655" name="_Stack"/>
  <anchor x="-148" y="656" name="_Above"/>
  <outline>
    <contour>
      <point x="-77" y="657" type="curve" smooth="yes"/>
      <point x="-213" y="657" type="line" smooth="yes"/>
      <point x="-221" y="657"/>
      <point x="-222" y="671"/>
      <point x="-213" y="671" type="curve" smooth="yes"/>
      <point x="-208" y="671" type="line"/>
      <point x="-203" y="694"/>
      <point x="-202" y="740"/>
      <point x="-202" y="765" type="curve"/>
      <point x="-211" y="765" type="line" smooth="yes"/>
      <point x="-219" y="765"/>
      <point x="-220" y="779"/>
      <point x="-211" y="779" type="curve" smooth="yes"/>
      <point x="-97" y="779" type="line" smooth="yes"/>
      <point x="-90" y="779"/>
      <point x="-90" y="765"/>
      <point x="-97" y="765" type="curve" smooth="yes"/>
      <point x="-106" y="765" type="line"/>
      <point x="-105" y="754"/>
      <point x="-105" y="731"/>
      <point x="-102" y="711" type="curve" smooth="yes"/>
      <point x="-100" y="697"/>
      <point x="-95" y="679"/>
      <point x="-93" y="671" type="curve"/>
      <point x="-77" y="671" type="line" smooth="yes"/>
      <point x="-72" y="671"/>
      <point x="-71" y="657"/>
    </contour>
    <contour>
      <point x="-140" y="671" type="line"/>
      <point x="-142" y="679"/>
      <point x="-144" y="696"/>
      <point x="-144" y="708" type="curve" smooth="yes"/>
      <point x="-144" y="729"/>
      <point x="-145" y="754"/>
      <point x="-145" y="765" type="curve"/>
      <point x="-160" y="765" type="line"/>
      <point x="-160" y="754"/>
      <point x="-160" y="732"/>
      <point x="-161" y="713" type="curve" smooth="yes"/>
      <point x="-161" y="699"/>
      <point x="-162" y="680"/>
      <point x="-162" y="671" type="curve"/>
    </contour>
  </outline>
</glyph>
<glyph name="uni2DE2" format="2">
  <advance width="1"/>
  <unicode hex="2DE2"/>
  <anchor x="-164" y="655" name="_Stack"/>
  <anchor x="-165" y="923" name="Stack"/>
  <anchor x="-164" y="656" name="_Above"/>
  <outline>
    <contour>
      <point x="-118" y="765" type="line"/>
      <point x="-129" y="746" type="line"/>
      <point x="-141" y="746" type="line"/>
      <point x="-160" y="765" type="line"/>
      <point x="-183" y="765" type="line"/>
      <point x="-183" y="659" type="line"/>
      <point x="-227" y="659" type="line"/>
      <point x="-227" y="781" type="line"/>
      <point x="-118" y="781" type="line"/>
    </contour>
  </outline>
</glyph>
<glyph name="uni2DE3" format="2">
  <advance width="1"/>
  <unicode hex="2DE3"/>
  <anchor x="-148" y="655" name="_Stack"/>
  <anchor x="-149" y="923" name="Stack"/>
  <anchor x="-148" y="656" name="_Above"/>
  <outline>
    <contour>
      <point x="65" y="732" type="line"/>
      <point x="0" y="666" type="line"/>
      <point x="-10" y="666" type="line"/>
      <point x="-10" y="724" type="line"/>
      <point x="-294" y="724" type="line"/>
      <point x="-294" y="666" type="line"/>
      <point x="-304" y="666" type="line"/>
      <point x="-369" y="732" type="line"/>
      <point x="-369" y="744" type="line"/>
      <point x="-238" y="744" type="line"/>
      <point x="-167" y="840" type="line"/>
      <point x="-184" y="861" type="line"/>
      <point x="-201" y="863" type="line"/>
      <point x="-256" y="792" type="line"/>
      <point x="-318" y="792" type="line"/>
      <point x="-318" y="802" type="line"/>
      <point x="-251" y="889" type="line"/>
      <point x="-123" y="870" type="line"/>
      <point x="-22" y="744" type="line"/>
      <point x="65" y="744" type="line"/>
    </contour>
    <contour>
      <point x="-154" y="824" type="line"/>
      <point x="-214" y="744" type="line"/>
      <point x="-90" y="744" type="line"/>
    </contour>
  </outline>
</glyph>
<glyph name="uni2DE4" format="2">
  <advance width="1"/>
  <unicode hex="2DE4"/>
  <anchor x="-148" y="655" name="_Stack"/>
  <anchor x="-149" y="923" name="Stack"/>
  <anchor x="-148" y="656" name="_Above"/>
  <outline>
    <contour>
      <point x="-152" y="713" type="curve"/>
      <point x="-173" y="697"/>
      <point x="-202" y="683"/>
      <point x="-224" y="674" type="curve" smooth="yes"/>
      <point x="-229" y="672"/>
      <point x="-234" y="671"/>
      <point x="-238" y="671" type="curve" smooth="yes"/>
      <point x="-245" y="671"/>
      <point x="-249" y="675"/>
      <point x="-249" y="679" type="curve" smooth="yes"/>
      <point x="-249" y="682"/>
      <point x="-247" y="685"/>
      <point x="-243" y="687" type="curve" smooth="yes"/>
      <point x="-215" y="699"/>
      <point x="-193" y="716"/>
      <point x="-176" y="735" type="curve"/>
      <point x="-203" y="755"/>
      <point x="-232" y="794"/>
      <point x="-279" y="801" type="curve"/>
      <point x="-257" y="811"/>
      <point x="-246" y="830"/>
      <point x="-226" y="849" type="curve"/>
      <point x="-195" y="848"/>
      <point x="-185" y="828"/>
      <point x="-157" y="826" type="curve" smooth="yes"/>
      <point x="-155" y="826"/>
      <point x="-154" y="826"/>
      <point x="-153" y="826" type="curve" smooth="yes"/>
      <point x="-128" y="826"/>
      <point x="-106" y="834"/>
      <point x="-81" y="850" type="curve" smooth="yes"/>
      <point x="-78" y="853"/>
      <point x="-73" y="851"/>
      <point x="-73" y="848" type="curve" smooth="yes"/>
      <point x="-71" y="834"/>
      <point x="-72" y="825"/>
      <point x="-61" y="816" type="curve"/>
      <point x="-40" y="827"/>
      <point x="-6" y="840"/>
      <point x="27" y="840" type="curve" smooth="yes"/>
      <point x="39" y="840"/>
      <point x="50" y="839"/>
      <point x="61" y="835" type="curve" smooth="yes"/>
      <point x="80" y="828"/>
      <point x="89" y="813"/>
      <point x="89" y="797" type="curve" smooth="yes"/>
      <point x="89" y="785"/>
      <point x="62" y="768"/>
      <point x="40" y="768" type="curve" smooth="yes"/>
      <point x="31" y="768"/>
      <point x="22" y="771"/>
      <point x="17" y="778" type="curve" smooth="yes"/>
      <point x="7" y="791"/>
      <point x="-6" y="796"/>
      <point x="-20" y="796" type="curve" smooth="yes"/>
      <point x="-49" y="796"/>
      <point x="-83" y="774"/>
      <point x="-104" y="755" type="curve"/>
      <point x="-92" y="713"/>
      <point x="-63" y="693"/>
      <point x="-40" y="676" type="curve" smooth="yes"/>
      <point x="-34" y="672"/>
      <point x="-32" y="669"/>
      <point x="-32" y="666" type="curve" smooth="yes"/>
      <point x="-32" y="662"/>
      <point x="-39" y="660"/>
      <point x="-47" y="660" type="curve" smooth="yes"/>
      <point x="-50" y="660"/>
      <point x="-54" y="660"/>
      <point x="-57" y="661" type="curve" smooth="yes"/>
      <point x="-93" y="671"/>
      <point x="-124" y="690"/>
    </contour>
  </outline>
</glyph>
<glyph name="uni2DE5" format="2">
  <advance width="1"/>
  <unicode hex="2DE5"/>
  <anchor x="-148" y="655" name="_Stack"/>
  <anchor x="-149" y="923" name="Stack"/>
  <anchor x="-148" y="656" name="_Above"/>
  <outline>
    <contour>
      <point x="-286" y="716" type="curve" smooth="yes"/>
      <point x="-286" y="707"/>
      <point x="-271" y="706"/>
      <point x="-262" y="706" type="curve" smooth="yes"/>
      <point x="-260" y="706"/>
      <point x="-259" y="706"/>
      <point x="-258" y="706" type="curve" smooth="yes"/>
      <point x="-251" y="706"/>
      <point x="-246" y="690"/>
      <point x="-259" y="690" type="curve" smooth="yes"/>
      <point x="-262" y="690"/>
      <point x="-266" y="689"/>
      <point x="-270" y="689" type="curve" smooth="yes"/>
      <point x="-290" y="689"/>
      <point x="-312" y="694"/>
      <point x="-312" y="712" type="curve" smooth="yes"/>
      <point x="-309" y="726"/>
      <point x="-293" y="751"/>
      <point x="-269" y="770" type="curve"/>
      <point x="-271" y="773"/>
      <point x="-272" y="777"/>
      <point x="-272" y="781" type="curve" smooth="yes"/>
      <point x="-272" y="793"/>
      <point x="-264" y="806"/>
      <point x="-253" y="813" type="curve" smooth="yes"/>
      <point x="-247" y="816"/>
      <point x="-241" y="817"/>
      <point x="-235" y="817" type="curve" smooth="yes"/>
      <point x="-225" y="817"/>
      <point x="-216" y="814"/>
      <point x="-209" y="809" type="curve"/>
      <point x="-183" y="824"/>
      <point x="-151" y="836"/>
      <point x="-117" y="836" type="curve" smooth="yes"/>
      <point x="-99" y="836"/>
      <point x="-69" y="827"/>
      <point x="-65" y="816" type="curve" smooth="yes"/>
      <point x="-59" y="799"/>
      <point x="-54" y="785"/>
      <point x="-42" y="768" type="curve" smooth="yes"/>
      <point x="-38" y="765"/>
      <point x="-31" y="762"/>
      <point x="-22" y="762" type="curve" smooth="yes"/>
      <point x="-14" y="763"/>
      <point x="-6" y="763"/>
      <point x="3" y="763" type="curve" smooth="yes"/>
      <point x="38" y="763"/>
      <point x="76" y="756"/>
      <point x="76" y="724" type="curve" smooth="yes"/>
      <point x="76" y="720"/>
      <point x="75" y="715"/>
      <point x="74" y="710" type="curve" smooth="yes"/>
      <point x="67" y="684"/>
      <point x="41" y="660"/>
      <point x="-15" y="658" type="curve" smooth="yes"/>
      <point x="-17" y="658"/>
      <point x="-19" y="658"/>
      <point x="-21" y="658" type="curve" smooth="yes"/>
      <point x="-47" y="658"/>
      <point x="-68" y="664"/>
      <point x="-84" y="675" type="curve" smooth="yes"/>
      <point x="-89" y="678"/>
      <point x="-91" y="682"/>
      <point x="-91" y="685" type="curve" smooth="yes"/>
      <point x="-91" y="689"/>
      <point x="-87" y="692"/>
      <point x="-81" y="692" type="curve" smooth="yes"/>
      <point x="-77" y="692"/>
      <point x="-73" y="691"/>
      <point x="-67" y="688" type="curve" smooth="yes"/>
      <point x="-60" y="685"/>
      <point x="-51" y="674"/>
      <point x="-40" y="674" type="curve" smooth="yes"/>
      <point x="-36" y="674"/>
      <point x="-32" y="674"/>
      <point x="-29" y="674" type="curve" smooth="yes"/>
      <point x="12" y="674"/>
      <point x="41" y="685"/>
      <point x="41" y="712" type="curve" smooth="yes"/>
      <point x="41" y="726"/>
      <point x="13" y="727"/>
      <point x="-21" y="727" type="curve" smooth="yes"/>
      <point x="-39" y="727"/>
      <point x="-58" y="726"/>
      <point x="-73" y="726" type="curve" smooth="yes"/>
      <point x="-78" y="726"/>
      <point x="-82" y="729"/>
      <point x="-84" y="731" type="curve" smooth="yes"/>
      <point x="-103" y="752"/>
      <point x="-116" y="779"/>
      <point x="-121" y="811" type="curve" smooth="yes"/>
      <point x="-123" y="813"/>
      <point x="-127" y="815"/>
      <point x="-129" y="815" type="curve" smooth="yes"/>
      <point x="-152" y="815"/>
      <point x="-174" y="805"/>
      <point x="-197" y="794" type="curve"/>
      <point x="-197" y="792"/>
      <point x="-196" y="790"/>
      <point x="-196" y="788" type="curve" smooth="yes"/>
      <point x="-196" y="777"/>
      <point x="-203" y="762"/>
      <point x="-217" y="755" type="curve" smooth="yes"/>
      <point x="-224" y="751"/>
      <point x="-231" y="750"/>
      <point x="-237" y="750" type="curve" smooth="yes"/>
      <point x="-245" y="750"/>
      <point x="-251" y="752"/>
      <point x="-258" y="755" type="curve"/>
      <point x="-277" y="738"/>
      <point x="-287" y="726"/>
      <point x="-287" y="719" type="curve" smooth="yes"/>
      <point x="-287" y="718"/>
      <point x="-286" y="717"/>
    </contour>
  </outline>
</glyph>
<glyph name="uni2DE9" format="2">
  <advance width="1"/>
  <unicode hex="2DE9"/>
  <anchor x="-235" y="653" name="_Stack"/>
  <anchor x="-236" y="921" name="Stack"/>
  <anchor x="-235" y="654" name="_Above"/>
  <outline>
    <contour>
      <point x="-297" y="768" type="line"/>
      <point x="-252" y="768" type="line"/>
      <point x="-252" y="725" type="line"/>
      <point x="-219" y="725" type="line"/>
      <point x="-219" y="770" type="line"/>
      <point x="-176" y="770" type="line"/>
      <point x="-176" y="654" type="line"/>
      <point x="-219" y="654" type="line"/>
      <point x="-219" y="704" type="line"/>
      <point x="-252" y="704" type="line"/>
      <point x="-252" y="654" type="line"/>
      <point x="-297" y="654" type="line"/>
    </contour>
  </outline>
</glyph>
<glyph name="uni2DEA" format="2">
  <advance width="1"/>
  <unicode hex="2DEA"/>
  <anchor x="-227" y="655" name="_Stack"/>
  <anchor x="-227" y="923" name="Stack"/>
  <anchor x="-227" y="656" name="_Above"/>
  <outline>
    <contour>
      <point x="-227" y="676" type="curve" smooth="yes"/>
      <point x="-213" y="676"/>
      <point x="-203" y="688"/>
      <point x="-203" y="708" type="curve" smooth="yes"/>
      <point x="-203" y="736" type="line" smooth="yes"/>
      <point x="-203" y="754"/>
      <point x="-213" y="768"/>
      <point x="-227" y="768" type="curve" smooth="yes"/>
      <point x="-241" y="768"/>
      <point x="-251" y="754"/>
      <point x="-251" y="736" type="curve" smooth="yes"/>
      <point x="-251" y="708" type="line" smooth="yes"/>
      <point x="-251" y="688"/>
      <point x="-241" y="676"/>
    </contour>
    <contour>
      <point x="-227" y="784" type="curve" smooth="yes"/>
      <point x="-189" y="784"/>
      <point x="-157" y="762"/>
      <point x="-157" y="722" type="curve" smooth="yes"/>
      <point x="-157" y="682"/>
      <point x="-186" y="661"/>
      <point x="-227" y="661" type="curve" smooth="yes"/>
      <point x="-268" y="661"/>
      <point x="-297" y="682"/>
      <point x="-297" y="722" type="curve" smooth="yes"/>
      <point x="-297" y="762"/>
      <point x="-265" y="784"/>
    </contour>
  </outline>
</glyph>
<glyph name="uni2DED" format="2">
  <advance width="1"/>
  <unicode hex="2DED"/>
  <anchor x="-238" y="639" name="_Stack"/>
  <anchor x="-239" y="907" name="Stack"/>
  <anchor x="-238" y="640" name="_Above"/>
  <outline>
    <contour>
      <point x="-242" y="669" type="curve"/>
      <point x="-240" y="669"/>
      <point x="-238" y="669"/>
      <point x="-237" y="669" type="curve" smooth="yes"/>
      <point x="-227" y="669"/>
      <point x="-222" y="672"/>
      <point x="-212" y="678" type="curve" smooth="yes"/>
      <point x="-208" y="680"/>
      <point x="-204" y="666"/>
      <point x="-205" y="664" type="curve" smooth="yes"/>
      <point x="-216" y="645"/>
      <point x="-249" y="643"/>
      <point x="-278" y="643" type="curve" smooth="yes"/>
      <point x="-282" y="643"/>
      <point x="-283" y="646"/>
      <point x="-283" y="650" type="curve" smooth="yes"/>
      <point x="-283" y="655"/>
      <point x="-283" y="662"/>
      <point x="-283" y="669" type="curve" smooth="yes"/>
      <point x="-283" y="687"/>
      <point x="-287" y="702"/>
      <point x="-287" y="721" type="curve" smooth="yes"/>
      <point x="-287" y="751"/>
      <point x="-252" y="764"/>
      <point x="-230" y="766" type="curve" smooth="yes"/>
      <point x="-224" y="767"/>
      <point x="-210" y="765"/>
      <point x="-208" y="763" type="curve" smooth="yes"/>
      <point x="-207" y="759"/>
      <point x="-207" y="748"/>
      <point x="-208" y="742" type="curve"/>
      <point x="-211" y="742"/>
      <point x="-214" y="743"/>
      <point x="-217" y="743" type="curve" smooth="yes"/>
      <point x="-238" y="743"/>
      <point x="-245" y="729"/>
      <point x="-245" y="709" type="curve" smooth="yes"/>
      <point x="-245" y="694"/>
      <point x="-242" y="681"/>
    </contour>
  </outline>
</glyph>
<glyph name="uni2DEE" format="2">
  <advance width="0"/>
  <unicode hex="2DEE"/>
  <anchor x="-148" y="655" name="_Stack"/>
  <anchor x="-149" y="923" name="Stack"/>
  <anchor x="-148" y="656" name="_Above"/>
  <outline>
    <contour>
      <point x="98" y="755" type="line"/>
      <point x="62" y="755"/>
      <point x="44" y="744"/>
      <point x="23" y="726" type="curve" smooth="yes"/>
      <point x="1" y="707"/>
      <point x="-16" y="682"/>
      <point x="-24" y="659" type="curve"/>
      <point x="-41" y="659" type="line"/>
      <point x="-41" y="755" type="line"/>
      <point x="-97" y="755" type="line"/>
      <point x="-97" y="658" type="line"/>
      <point x="-197" y="658" type="line"/>
      <point x="-197" y="755" type="line"/>
      <point x="-253" y="755" type="line"/>
      <point x="-253" y="659" type="line"/>
      <point x="-270" y="659" type="line"/>
      <point x="-278" y="682"/>
      <point x="-295" y="707"/>
      <point x="-317" y="726" type="curve" smooth="yes"/>
      <point x="-338" y="744"/>
      <point x="-356" y="755"/>
      <point x="-392" y="755" type="curve"/>
      <point x="-392" y="775" type="line"/>
      <point x="98" y="775" type="line"/>
    </contour>
  </outline>
</glyph>
<glyph name="uni2DEF" format="2">
  <advance width="1"/>
  <unicode hex="2DEF"/>
  <anchor x="-148" y="655" name="_Stack"/>
  <anchor x="-149" y="923" name="Stack"/>
  <anchor x="-148" y="656" name="_Above"/>
  <outline>
    <contour>
      <point x="-116" y="772" type="curve"/>
      <point x="-73" y="806"/>
      <point x="-45" y="834"/>
      <point x="26" y="838" type="curve" smooth="yes"/>
      <point x="49" y="838"/>
      <point x="66" y="836"/>
      <point x="76" y="832" type="curve" smooth="yes"/>
      <point x="78" y="830"/>
      <point x="81" y="828"/>
      <point x="79" y="826" type="curve" smooth="yes"/>
      <point x="69" y="817"/>
      <point x="56" y="811"/>
      <point x="50" y="799" type="curve" smooth="yes"/>
      <point x="43" y="787"/>
      <point x="40" y="774"/>
      <point x="39" y="761" type="curve" smooth="yes"/>
      <point x="39" y="759"/>
      <point x="34" y="757"/>
      <point x="32" y="759" type="curve" smooth="yes"/>
      <point x="18" y="769"/>
      <point x="-10" y="784"/>
      <point x="-27" y="789" type="curve" smooth="yes"/>
      <point x="-29" y="790"/>
      <point x="-36" y="790"/>
      <point x="-39" y="789" type="curve" smooth="yes"/>
      <point x="-55" y="782"/>
      <point x="-76" y="770"/>
      <point x="-99" y="755" type="curve"/>
      <point x="-69" y="726"/>
      <point x="-34" y="696"/>
      <point x="0" y="668" type="curve" smooth="yes"/>
      <point x="2" y="667"/>
      <point x="2" y="664"/>
      <point x="-1" y="664" type="curve" smooth="yes"/>
      <point x="-72" y="664" type="line"/>
      <point x="-84" y="666"/>
      <point x="-91" y="671"/>
      <point x="-97" y="677" type="curve" smooth="yes"/>
      <point x="-114" y="694"/>
      <point x="-128" y="708"/>
      <point x="-148" y="724" type="curve"/>
      <point x="-177" y="703"/>
      <point x="-205" y="679"/>
      <point x="-224" y="664" type="curve"/>
      <point x="-255" y="664" type="line"/>
      <point x="-258" y="665"/>
      <point x="-258" y="671"/>
      <point x="-256" y="671" type="curve" smooth="yes"/>
      <point x="-226" y="693"/>
      <point x="-199" y="713"/>
      <point x="-165" y="737" type="curve"/>
      <point x="-188" y="756"/>
      <point x="-219" y="782"/>
      <point x="-241" y="795" type="curve"/>
      <point x="-251" y="796"/>
      <point x="-275" y="799"/>
      <point x="-284" y="801" type="curve" smooth="yes"/>
      <point x="-286" y="801"/>
      <point x="-289" y="799"/>
      <point x="-289" y="797" type="curve" smooth="yes"/>
      <point x="-289" y="793"/>
      <point x="-288" y="790"/>
      <point x="-288" y="786" type="curve" smooth="yes"/>
      <point x="-288" y="767"/>
      <point x="-292" y="745"/>
      <point x="-299" y="734" type="curve"/>
      <point x="-313" y="731"/>
      <point x="-333" y="728"/>
      <point x="-346" y="728" type="curve" smooth="yes"/>
      <point x="-348" y="728"/>
      <point x="-348" y="731"/>
      <point x="-348" y="732" type="curve" smooth="yes"/>
      <point x="-337" y="757"/>
      <point x="-329" y="790"/>
      <point x="-319" y="815" type="curve" smooth="yes"/>
      <point x="-318" y="818"/>
      <point x="-313" y="820"/>
      <point x="-308" y="820" type="curve" smooth="yes"/>
      <point x="-296" y="819"/>
      <point x="-284" y="819"/>
      <point x="-271" y="819" type="curve" smooth="yes"/>
      <point x="-240" y="819"/>
      <point x="-208" y="821"/>
      <point x="-179" y="822" type="curve" smooth="yes"/>
      <point x="-176" y="822"/>
      <point x="-173" y="820"/>
      <point x="-171" y="820" type="curve" smooth="yes"/>
      <point x="-152" y="803"/>
      <point x="-135" y="789"/>
    </contour>
  </outline>
</glyph>
<glyph name="uni2DF1" format="2">
  <advance width="1"/>
  <unicode hex="2DF1"/>
  <anchor x="-188" y="655" name="_Stack"/>
  <anchor x="-189" y="923" name="Stack"/>
  <anchor x="-188" y="656" name="_Above"/>
  <outline>
    <contour>
      <point x="-291" y="770" type="curve"/>
      <point x="-244" y="770" type="line"/>
      <point x="-244" y="756"/>
      <point x="-244" y="743"/>
      <point x="-235" y="735" type="curve" smooth="yes"/>
      <point x="-226" y="727"/>
      <point x="-211" y="726"/>
      <point x="-211" y="726" type="curve"/>
      <point x="-211" y="772" type="line"/>
      <point x="-168" y="772" type="line"/>
      <point x="-168" y="656" type="line"/>
      <point x="-211" y="656" type="line"/>
      <point x="-211" y="705" type="line"/>
      <point x="-211" y="705"/>
      <point x="-240" y="706"/>
      <point x="-257" y="709" type="curve" smooth="yes"/>
      <point x="-282" y="713"/>
      <point x="-291" y="734"/>
    </contour>
  </outline>
</glyph>
<glyph name="uni2E2F" format="2">
  <advance width="250"/>
  <unicode hex="2E2F"/>
  <outline>
    <contour>
      <point x="177" y="682" type="line"/>
      <point x="66" y="624" type="line"/>
      <point x="56" y="642" type="line"/>
      <point x="110" y="670" type="line"/>
      <point x="77" y="782" type="line"/>
      <point x="184" y="837" type="line"/>
      <point x="194" y="819" type="line"/>
      <point x="145" y="793" type="line"/>
    </contour>
  </outline>
</glyph>
<glyph name="uniA64A" format="2">
  <advance width="370"/>
  <unicode hex="A64A"/>
  <anchor x="298" y="852" name="Yerik"/>
  <anchor x="204" y="852" name="Above"/>
  <outline>
    <contour>
      <point x="343" y="800" type="line"/>
      <point x="326" y="774"/>
      <point x="320" y="723"/>
      <point x="317" y="687" type="curve"/>
      <point x="317" y="678" type="line"/>
      <point x="271" y="678" type="line" smooth="yes"/>
      <point x="250" y="678"/>
      <point x="223" y="666"/>
      <point x="221" y="621" type="curve" smooth="yes"/>
      <point x="197" y="154" type="line"/>
      <point x="208" y="166"/>
      <point x="225" y="171"/>
      <point x="245" y="171" type="curve" smooth="yes"/>
      <point x="290" y="171"/>
      <point x="315" y="132"/>
      <point x="315" y="79" type="curve" smooth="yes"/>
      <point x="315" y="24"/>
      <point x="266" y="-8"/>
      <point x="223" y="-8" type="curve" smooth="yes"/>
      <point x="206" y="-8"/>
      <point x="188" y="0"/>
      <point x="181" y="7" type="curve"/>
      <point x="174" y="0"/>
      <point x="156" y="-8"/>
      <point x="139" y="-8" type="curve" smooth="yes"/>
      <point x="96" y="-8"/>
      <point x="47" y="24"/>
      <point x="47" y="79" type="curve" smooth="yes"/>
      <point x="47" y="132"/>
      <point x="81" y="171"/>
      <point x="126" y="171" type="curve" smooth="yes"/>
      <point x="146" y="171"/>
      <point x="166" y="166"/>
      <point x="177" y="155" type="curve"/>
      <point x="182" y="250" type="line"/>
      <point x="84" y="250" type="line"/>
      <point x="50" y="800" type="line"/>
      <point x="155" y="800" type="line"/>
      <point x="185" y="314" type="line"/>
      <point x="200" y="627" type="line" smooth="yes"/>
      <point x="206" y="753"/>
      <point x="243" y="808"/>
      <point x="288" y="808" type="curve" smooth="yes"/>
      <point x="343" y="808" type="line"/>
    </contour>
    <contour>
      <point x="123" y="59" type="line"/>
      <point x="155" y="68"/>
      <point x="174" y="82"/>
      <point x="176" y="126" type="curve"/>
      <point x="176" y="136" type="line"/>
      <point x="165" y="148"/>
      <point x="150" y="153"/>
      <point x="135" y="153" type="curve" smooth="yes"/>
      <point x="119" y="153"/>
      <point x="103" y="139"/>
      <point x="103" y="118" type="curve" smooth="yes"/>
      <point x="103" y="51" type="line" smooth="yes"/>
      <point x="103" y="28"/>
      <point x="118" y="10"/>
      <point x="137" y="10" type="curve" smooth="yes"/>
      <point x="155" y="10"/>
      <point x="170" y="17"/>
      <point x="181" y="28" type="curve"/>
      <point x="192" y="17"/>
      <point x="207" y="10"/>
      <point x="225" y="10" type="curve" smooth="yes"/>
      <point x="244" y="10"/>
      <point x="259" y="28"/>
      <point x="259" y="51" type="curve" smooth="yes"/>
      <point x="259" y="118" type="line" smooth="yes"/>
      <point x="259" y="139"/>
      <point x="247" y="153"/>
      <point x="231" y="153" type="curve" smooth="yes"/>
      <point x="214" y="153"/>
      <point x="206" y="148"/>
      <point x="196" y="133" type="curve"/>
      <point x="196" y="111" type="line" smooth="yes"/>
      <point x="196" y="82"/>
      <point x="203" y="68"/>
      <point x="235" y="59" type="curve"/>
      <point x="235" y="41" type="line"/>
      <point x="123" y="41" type="line"/>
    </contour>
  </outline>
</glyph>
<glyph name="uniA657" format="2">
  <advance width="520"/>
  <unicode hex="A657"/>
  <anchor x="416" y="852" name="Yerik"/>
  <anchor x="258" y="852" name="Above"/>
  <outline>
    <contour>
      <point x="210" y="390" type="line"/>
      <point x="266" y="390"/>
      <point x="339" y="432"/>
      <point x="370" y="467" type="curve"/>
      <point x="370" y="491" type="line"/>
      <point x="335" y="459"/>
      <point x="262" y="423"/>
      <point x="210" y="423" type="curve"/>
      <point x="210" y="580" type="line"/>
      <point x="260" y="595"/>
      <point x="315" y="626"/>
      <point x="355" y="660" type="curve"/>
      <point x="150" y="660" type="line"/>
      <point x="150" y="0" type="line"/>
      <point x="50" y="0" type="line"/>
      <point x="50" y="800" type="line"/>
      <point x="150" y="800" type="line"/>
      <point x="150" y="680" type="line"/>
      <point x="370" y="680" type="line"/>
      <point x="370" y="780" type="line"/>
      <point x="310" y="780" type="line"/>
      <point x="310" y="690" type="line"/>
      <point x="210" y="690" type="line"/>
      <point x="210" y="800" type="line"/>
      <point x="470" y="800" type="line"/>
      <point x="470" y="0" type="line"/>
      <point x="370" y="0" type="line"/>
      <point x="370" y="438" type="line"/>
      <point x="357" y="426"/>
      <point x="341" y="414"/>
      <point x="322" y="404" type="curve" smooth="yes"/>
      <point x="310" y="397" type="line"/>
      <point x="310" y="0" type="line"/>
      <point x="210" y="0" type="line"/>
    </contour>
    <contour>
      <point x="322" y="612" type="curve" smooth="yes"/>
      <point x="318" y="609"/>
      <point x="314" y="606"/>
      <point x="310" y="604" type="curve"/>
      <point x="310" y="474" type="line"/>
      <point x="336" y="487"/>
      <point x="355" y="503"/>
      <point x="370" y="520" type="curve"/>
      <point x="370" y="647" type="line"/>
      <point x="355" y="634"/>
      <point x="340" y="623"/>
    </contour>
  </outline>
</glyph>
<glyph name="uniA67C" format="2">
  <advance width="0"/>
  <unicode hex="A67C"/>
  <anchor x="-153" y="820" name="Stack"/>
  <anchor x="-152" y="658" name="_Stack"/>
  <anchor x="-148" y="656" name="_Above"/>
  <outline>
    <contour>
      <point x="-148" y="660" type="curve" smooth="yes"/>
      <point x="-206" y="660"/>
      <point x="-245" y="682"/>
      <point x="-245" y="730" type="curve" smooth="yes"/>
      <point x="-245" y="755" type="line"/>
      <point x="-180" y="755" type="line"/>
      <point x="-180" y="730" type="line" smooth="yes"/>
      <point x="-180" y="702"/>
      <point x="-175" y="680"/>
      <point x="-148" y="680" type="curve" smooth="yes"/>
      <point x="-120" y="680"/>
      <point x="-115" y="702"/>
      <point x="-115" y="730" type="curve" smooth="yes"/>
      <point x="-115" y="755" type="line"/>
      <point x="-51" y="755" type="line"/>
      <point x="-51" y="730" type="line" smooth="yes"/>
      <point x="-51" y="682"/>
      <point x="-90" y="660"/>
    </contour>
  </outline>
</glyph>
<glyph name="uniA67E" format="2">
  <advance width="234"/>
  <unicode hex="A67E"/>
  <outline>
    <contour>
      <point x="117" y="705" type="curve" smooth="yes"/>
      <point x="59" y="705"/>
      <point x="20" y="727"/>
      <point x="20" y="775" type="curve" smooth="yes"/>
      <point x="20" y="800" type="line"/>
      <point x="85" y="800" type="line"/>
      <point x="85" y="775" type="line" smooth="yes"/>
      <point x="85" y="747"/>
      <point x="90" y="725"/>
      <point x="117" y="725" type="curve" smooth="yes"/>
      <point x="145" y="725"/>
      <point x="150" y="747"/>
      <point x="150" y="775" type="curve" smooth="yes"/>
      <point x="150" y="800" type="line"/>
      <point x="214" y="800" type="line"/>
      <point x="214" y="775" type="line" smooth="yes"/>
      <point x="214" y="727"/>
      <point x="175" y="705"/>
    </contour>
  </outline>
</glyph>
<glyph name="uniE000" format="2">
  <advance width="1"/>
  <unicode hex="E000"/>
  <anchor x="-148" y="882" name="Stack"/>
  <anchor x="-147" y="657" name="_Stack"/>
  <anchor x="-148" y="656" name="_Above"/>
  <outline>
    <contour>
      <point x="-116" y="667" type="line"/>
      <point x="-105" y="679"/>
      <point x="-103" y="694"/>
      <point x="-103" y="712" type="curve" smooth="yes"/>
      <point x="-103" y="737"/>
      <point x="-120" y="760"/>
      <point x="-145" y="760" type="curve" smooth="yes"/>
      <point x="-171" y="760"/>
      <point x="-190" y="740"/>
      <point x="-190" y="715" type="curve" smooth="yes"/>
      <point x="-190" y="694"/>
      <point x="-181" y="674"/>
      <point x="-176" y="665" type="curve"/>
      <point x="-191" y="656" type="line"/>
      <point x="-212" y="670"/>
      <point x="-232" y="700"/>
      <point x="-232" y="737" type="curve" smooth="yes"/>
      <point x="-232" y="778"/>
      <point x="-200" y="822"/>
      <point x="-148" y="822" type="curve" smooth="yes"/>
      <point x="-87" y="822"/>
      <point x="-61" y="780"/>
      <point x="-61" y="736" type="curve" smooth="yes"/>
      <point x="-61" y="698"/>
      <point x="-81" y="676"/>
      <point x="-103" y="658" type="curve"/>
    </contour>
  </outline>
</glyph>
<glyph name="uniE002" format="2">
  <advance width="1"/>
  <unicode hex="E002"/>
  <anchor x="-150" y="901" name="Stack"/>
  <anchor x="-149" y="656" name="_Stack"/>
  <anchor x="-148" y="656" name="_Above"/>
  <outline>
    <contour>
      <point x="-175" y="665" type="line"/>
      <point x="-165" y="676"/>
      <point x="-165" y="698"/>
      <point x="-165" y="715" type="curve" smooth="yes"/>
      <point x="-165" y="737"/>
      <point x="-179" y="760"/>
      <point x="-203" y="760" type="curve" smooth="yes"/>
      <point x="-226" y="760"/>
      <point x="-240" y="736"/>
      <point x="-240" y="714" type="curve" smooth="yes"/>
      <point x="-240" y="695"/>
      <point x="-232" y="671"/>
      <point x="-227" y="663" type="curve"/>
      <point x="-241" y="655" type="line"/>
      <point x="-260" y="668"/>
      <point x="-278" y="700"/>
      <point x="-278" y="733" type="curve" smooth="yes"/>
      <point x="-278" y="770"/>
      <point x="-252" y="815"/>
      <point x="-206" y="815" type="curve" smooth="yes"/>
      <point x="-151" y="815"/>
      <point x="-129" y="772"/>
      <point x="-129" y="733" type="curve" smooth="yes"/>
      <point x="-129" y="698"/>
      <point x="-144" y="674"/>
      <point x="-162" y="657" type="curve"/>
    </contour>
    <contour>
      <point x="-73" y="657" type="line"/>
      <point x="-109" y="657" type="line"/>
      <point x="-109" y="664" type="line"/>
      <point x="-77" y="839" type="line"/>
      <point x="-35" y="839" type="line"/>
      <point x="-35" y="832" type="line"/>
    </contour>
  </outline>
</glyph>
<glyph name="uniE004" format="2">
  <advance width="1"/>
  <unicode hex="E004"/>
  <anchor x="-150" y="904" name="Stack"/>
  <anchor x="-149" y="656" name="_Stack"/>
  <anchor x="-148" y="656" name="_Above"/>
  <outline>
    <contour>
      <point x="-61" y="658" type="line"/>
      <point x="-97" y="658" type="line"/>
      <point x="-155" y="833" type="line"/>
      <point x="-155" y="840" type="line"/>
      <point x="-113" y="840" type="line"/>
      <point x="-61" y="665" type="line"/>
    </contour>
    <contour>
      <point x="-153" y="734" type="curve" smooth="yes"/>
      <point x="-153" y="699"/>
      <point x="-168" y="675"/>
      <point x="-186" y="658" type="curve"/>
      <point x="-199" y="666" type="line"/>
      <point x="-189" y="677"/>
      <point x="-189" y="699"/>
      <point x="-189" y="716" type="curve" smooth="yes"/>
      <point x="-189" y="738"/>
      <point x="-203" y="761"/>
      <point x="-227" y="761" type="curve" smooth="yes"/>
      <point x="-250" y="761"/>
      <point x="-264" y="737"/>
      <point x="-264" y="715" type="curve" smooth="yes"/>
      <point x="-264" y="696"/>
      <point x="-256" y="672"/>
      <point x="-251" y="664" type="curve"/>
      <point x="-265" y="656" type="line"/>
      <point x="-284" y="669"/>
      <point x="-302" y="701"/>
      <point x="-302" y="734" type="curve" smooth="yes"/>
      <point x="-302" y="771"/>
      <point x="-276" y="816"/>
      <point x="-230" y="816" type="curve" smooth="yes"/>
      <point x="-175" y="816"/>
      <point x="-153" y="773"/>
    </contour>
  </outline>
</glyph>
<glyph name="uniE005" format="2">
  <advance width="0"/>
  <unicode hex="E005"/>
  <anchor x="-150" y="894" name="Stack"/>
  <anchor x="-149" y="656" name="_Stack"/>
  <anchor x="-148" y="656" name="_Above"/>
  <outline>
    <contour>
      <point x="-294" y="676" type="line"/>
      <point x="-296" y="680"/>
      <point x="-300" y="689"/>
      <point x="-300" y="698" type="curve" smooth="yes"/>
      <point x="-300" y="720"/>
      <point x="-275" y="761"/>
      <point x="-256" y="771" type="curve" smooth="yes"/>
      <point x="-206" y="797"/>
      <point x="-151" y="811"/>
      <point x="-105" y="817" type="curve" smooth="yes"/>
      <point x="-98" y="818"/>
      <point x="-89" y="818"/>
      <point x="-84" y="814" type="curve" smooth="yes"/>
      <point x="-31" y="773"/>
      <point x="47" y="696"/>
      <point x="79" y="675" type="curve" smooth="yes"/>
      <point x="82" y="669"/>
      <point x="82" y="663"/>
      <point x="81" y="657" type="curve"/>
      <point x="10" y="657" type="line"/>
      <point x="-31" y="682"/>
      <point x="-71" y="740"/>
      <point x="-120" y="772" type="curve" smooth="yes"/>
      <point x="-128" y="775"/>
      <point x="-146" y="776"/>
      <point x="-162" y="776" type="curve" smooth="yes"/>
      <point x="-170" y="776"/>
      <point x="-177" y="776"/>
      <point x="-183" y="775" type="curve" smooth="yes"/>
      <point x="-197" y="773"/>
      <point x="-214" y="766"/>
      <point x="-224" y="756" type="curve" smooth="yes"/>
      <point x="-230" y="747"/>
      <point x="-234" y="738"/>
      <point x="-235" y="728" type="curve" smooth="yes"/>
      <point x="-235" y="726"/>
      <point x="-235" y="724"/>
      <point x="-235" y="722" type="curve" smooth="yes"/>
      <point x="-235" y="710"/>
      <point x="-233" y="696"/>
      <point x="-231" y="689" type="curve"/>
      <point x="-231" y="683" type="line"/>
    </contour>
    <contour>
      <point x="-120" y="655" type="line"/>
      <point x="-115" y="664"/>
      <point x="-112" y="673"/>
      <point x="-112" y="685" type="curve" smooth="yes"/>
      <point x="-112" y="702"/>
      <point x="-128" y="722"/>
      <point x="-149" y="722" type="curve" smooth="yes"/>
      <point x="-171" y="722"/>
      <point x="-183" y="704"/>
      <point x="-183" y="688" type="curve" smooth="yes"/>
      <point x="-183" y="674"/>
      <point x="-177" y="661"/>
      <point x="-174" y="655" type="curve"/>
      <point x="-186" y="651" type="line"/>
      <point x="-198" y="661"/>
      <point x="-212" y="680"/>
      <point x="-212" y="705" type="curve" smooth="yes"/>
      <point x="-212" y="732"/>
      <point x="-188" y="760"/>
      <point x="-153" y="760" type="curve" smooth="yes"/>
      <point x="-116" y="760"/>
      <point x="-84" y="730"/>
      <point x="-84" y="700" type="curve" smooth="yes"/>
      <point x="-84" y="680"/>
      <point x="-100" y="658"/>
      <point x="-108" y="651" type="curve"/>
    </contour>
  </outline>
</glyph>
<glyph name="uni2DE10487" format="2">
  <advance width="1"/>
  <unicode hex="F4E1"/>
  <anchor x="-149" y="923" name="Stack"/>
  <anchor x="-148" y="655" name="_Stack"/>
  <anchor x="-148" y="656" name="_Above"/>
  <outline>
    <contour>
      <point x="-77" y="657" type="curve" smooth="yes"/>
      <point x="-213" y="657" type="line" smooth="yes"/>
      <point x="-221" y="657"/>
      <point x="-222" y="671"/>
      <point x="-213" y="671" type="curve" smooth="yes"/>
      <point x="-208" y="671" type="line"/>
      <point x="-203" y="694"/>
      <point x="-202" y="740"/>
      <point x="-202" y="765" type="curve"/>
      <point x="-211" y="765" type="line" smooth="yes"/>
      <point x="-219" y="765"/>
      <point x="-220" y="779"/>
      <point x="-211" y="779" type="curve" smooth="yes"/>
      <point x="-97" y="779" type="line" smooth="yes"/>
      <point x="-90" y="779"/>
      <point x="-90" y="765"/>
      <point x="-97" y="765" type="curve" smooth="yes"/>
      <point x="-106" y="765" type="line"/>
      <point x="-105" y="754"/>
      <point x="-105" y="731"/>
      <point x="-102" y="711" type="curve" smooth="yes"/>
      <point x="-100" y="697"/>
      <point x="-95" y="679"/>
      <point x="-93" y="671" type="curve"/>
      <point x="-77" y="671" type="line" smooth="yes"/>
      <point x="-72" y="671"/>
      <point x="-71" y="657"/>
    </contour>
    <contour>
      <point x="-140" y="671" type="line"/>
      <point x="-142" y="679"/>
      <point x="-144" y="696"/>
      <point x="-144" y="708" type="curve" smooth="yes"/>
      <point x="-144" y="729"/>
      <point x="-145" y="754"/>
      <point x="-145" y="765" type="curve"/>
      <point x="-160" y="765" type="line"/>
      <point x="-160" y="754"/>
      <point x="-160" y="732"/>
      <point x="-161" y="713" type="curve" smooth="yes"/>
      <point x="-161" y="699"/>
      <point x="-162" y="680"/>
      <point x="-162" y="671" type="curve"/>
    </contour>
    <contour>
      <point x="-284" y="716" type="line"/>
      <point x="-286" y="720"/>
      <point x="-290" y="729"/>
      <point x="-290" y="738" type="curve" smooth="yes"/>
      <point x="-290" y="751"/>
      <point x="-282" y="775"/>
      <point x="-273" y="790" type="curve" smooth="yes"/>
      <point x="-267" y="800"/>
      <point x="-262" y="805"/>
      <point x="-252" y="810" type="curve" smooth="yes"/>
      <point x="-200" y="835"/>
      <point x="-161" y="847"/>
      <point x="-115" y="857" type="curve" smooth="yes"/>
      <point x="-108" y="858"/>
      <point x="-99" y="858"/>
      <point x="-94" y="854" type="curve" smooth="yes"/>
      <point x="-41" y="813"/>
      <point x="67" y="736"/>
      <point x="99" y="715" type="curve" smooth="yes"/>
      <point x="102" y="709"/>
      <point x="102" y="703"/>
      <point x="101" y="697" type="curve"/>
      <point x="30" y="697" type="line"/>
      <point x="-12" y="721"/>
      <point x="-81" y="780"/>
      <point x="-130" y="812" type="curve" smooth="yes"/>
      <point x="-142" y="816"/>
      <point x="-158" y="817"/>
      <point x="-175" y="817" type="curve" smooth="yes"/>
      <point x="-192" y="817"/>
      <point x="-214" y="808"/>
      <point x="-223" y="797" type="curve" smooth="yes"/>
      <point x="-227" y="788"/>
      <point x="-227" y="779"/>
      <point x="-227" y="769" type="curve" smooth="yes"/>
      <point x="-227" y="753"/>
      <point x="-221" y="740"/>
      <point x="-221" y="729" type="curve" smooth="yes"/>
      <point x="-221" y="723" type="line"/>
    </contour>
  </outline>
</glyph>
<glyph name="uni2DE20487" format="2">
  <advance width="1"/>
  <unicode hex="F4E2"/>
  <anchor x="-198" y="655" name="_Stack"/>
  <anchor x="-199" y="923" name="Stack"/>
  <anchor x="-198" y="656" name="_Above"/>
  <outline>
    <contour>
      <point x="-118" y="765" type="line"/>
      <point x="-129" y="746" type="line"/>
      <point x="-141" y="746" type="line"/>
      <point x="-160" y="765" type="line"/>
      <point x="-183" y="765" type="line"/>
      <point x="-183" y="659" type="line"/>
      <point x="-227" y="659" type="line"/>
      <point x="-227" y="781" type="line"/>
      <point x="-118" y="781" type="line"/>
    </contour>
    <contour>
      <point x="-304" y="718" type="line"/>
      <point x="-306" y="722"/>
      <point x="-310" y="731"/>
      <point x="-310" y="740" type="curve" smooth="yes"/>
      <point x="-310" y="753"/>
      <point x="-302" y="777"/>
      <point x="-293" y="792" type="curve" smooth="yes"/>
      <point x="-287" y="802"/>
      <point x="-282" y="807"/>
      <point x="-272" y="812" type="curve" smooth="yes"/>
      <point x="-220" y="837"/>
      <point x="-181" y="849"/>
      <point x="-135" y="859" type="curve" smooth="yes"/>
      <point x="-128" y="860"/>
      <point x="-119" y="860"/>
      <point x="-114" y="856" type="curve" smooth="yes"/>
      <point x="-61" y="815"/>
      <point x="47" y="738"/>
      <point x="79" y="717" type="curve" smooth="yes"/>
      <point x="82" y="711"/>
      <point x="82" y="705"/>
      <point x="81" y="699" type="curve"/>
      <point x="10" y="699" type="line"/>
      <point x="-32" y="723"/>
      <point x="-101" y="782"/>
      <point x="-150" y="814" type="curve" smooth="yes"/>
      <point x="-162" y="818"/>
      <point x="-178" y="819"/>
      <point x="-195" y="819" type="curve" smooth="yes"/>
      <point x="-212" y="819"/>
      <point x="-234" y="810"/>
      <point x="-243" y="799" type="curve" smooth="yes"/>
      <point x="-247" y="790"/>
      <point x="-247" y="781"/>
      <point x="-247" y="771" type="curve" smooth="yes"/>
      <point x="-247" y="755"/>
      <point x="-241" y="742"/>
      <point x="-241" y="731" type="curve" smooth="yes"/>
      <point x="-241" y="725" type="line"/>
    </contour>
  </outline>
</glyph>
<glyph name="uni2DE90487" format="2">
  <advance width="1"/>
  <unicode hex="F4E9"/>
  <anchor x="-235" y="652" name="_Stack"/>
  <anchor x="-236" y="920" name="Stack"/>
  <anchor x="-235" y="653" name="_Above"/>
  <outline>
    <contour>
      <point x="-297" y="768" type="line"/>
      <point x="-252" y="768" type="line"/>
      <point x="-252" y="725" type="line"/>
      <point x="-219" y="725" type="line"/>
      <point x="-219" y="770" type="line"/>
      <point x="-176" y="770" type="line"/>
      <point x="-176" y="654" type="line"/>
      <point x="-219" y="654" type="line"/>
      <point x="-219" y="704" type="line"/>
      <point x="-252" y="704" type="line"/>
      <point x="-252" y="654" type="line"/>
      <point x="-297" y="654" type="line"/>
    </contour>
    <contour>
      <point x="-372" y="713" type="line"/>
      <point x="-374" y="717"/>
      <point x="-378" y="726"/>
      <point x="-378" y="735" type="curve" smooth="yes"/>
      <point x="-378" y="748"/>
      <point x="-370" y="772"/>
      <point x="-361" y="787" type="curve" smooth="yes"/>
      <point x="-355" y="797"/>
      <point x="-350" y="802"/>
      <point x="-340" y="807" type="curve" smooth="yes"/>
      <point x="-288" y="832"/>
      <point x="-249" y="844"/>
      <point x="-203" y="854" type="curve" smooth="yes"/>
      <point x="-196" y="855"/>
      <point x="-187" y="855"/>
      <point x="-182" y="851" type="curve" smooth="yes"/>
      <point x="-129" y="810"/>
      <point x="-21" y="733"/>
      <point x="11" y="712" type="curve" smooth="yes"/>
      <point x="14" y="706"/>
      <point x="14" y="700"/>
      <point x="13" y="694" type="curve"/>
      <point x="-58" y="694" type="line"/>
      <point x="-100" y="718"/>
      <point x="-169" y="777"/>
      <point x="-218" y="809" type="curve" smooth="yes"/>
      <point x="-230" y="813"/>
      <point x="-246" y="814"/>
      <point x="-263" y="814" type="curve" smooth="yes"/>
      <point x="-280" y="814"/>
      <point x="-302" y="805"/>
      <point x="-311" y="794" type="curve" smooth="yes"/>
      <point x="-315" y="785"/>
      <point x="-315" y="776"/>
      <point x="-315" y="766" type="curve" smooth="yes"/>
      <point x="-315" y="750"/>
      <point x="-309" y="737"/>
      <point x="-309" y="726" type="curve" smooth="yes"/>
      <point x="-309" y="720" type="line"/>
    </contour>
  </outline>
</glyph>
<glyph name="uni2DEA0487" format="2">
  <advance width="1"/>
  <unicode hex="F4EA"/>
  <anchor x="-229" y="658" name="_Stack"/>
  <anchor x="-230" y="926" name="Stack"/>
  <anchor x="-229" y="659" name="_Above"/>
  <outline>
    <contour>
      <point x="-227" y="676" type="curve" smooth="yes"/>
      <point x="-213" y="676"/>
      <point x="-203" y="688"/>
      <point x="-203" y="708" type="curve" smooth="yes"/>
      <point x="-203" y="736" type="line" smooth="yes"/>
      <point x="-203" y="754"/>
      <point x="-213" y="768"/>
      <point x="-227" y="768" type="curve" smooth="yes"/>
      <point x="-241" y="768"/>
      <point x="-251" y="754"/>
      <point x="-251" y="736" type="curve" smooth="yes"/>
      <point x="-251" y="708" type="line" smooth="yes"/>
      <point x="-251" y="688"/>
      <point x="-241" y="676"/>
    </contour>
    <contour>
      <point x="-227" y="784" type="curve" smooth="yes"/>
      <point x="-189" y="784"/>
      <point x="-157" y="762"/>
      <point x="-157" y="722" type="curve" smooth="yes"/>
      <point x="-157" y="682"/>
      <point x="-186" y="661"/>
      <point x="-227" y="661" type="curve" smooth="yes"/>
      <point x="-268" y="661"/>
      <point x="-297" y="682"/>
      <point x="-297" y="722" type="curve" smooth="yes"/>
      <point x="-297" y="762"/>
      <point x="-265" y="784"/>
    </contour>
    <contour>
      <point x="-376" y="721" type="line"/>
      <point x="-378" y="725"/>
      <point x="-382" y="734"/>
      <point x="-382" y="743" type="curve" smooth="yes"/>
      <point x="-382" y="756"/>
      <point x="-374" y="780"/>
      <point x="-365" y="795" type="curve" smooth="yes"/>
      <point x="-359" y="805"/>
      <point x="-354" y="810"/>
      <point x="-344" y="815" type="curve" smooth="yes"/>
      <point x="-292" y="840"/>
      <point x="-253" y="852"/>
      <point x="-207" y="862" type="curve" smooth="yes"/>
      <point x="-200" y="863"/>
      <point x="-191" y="863"/>
      <point x="-186" y="859" type="curve" smooth="yes"/>
      <point x="-133" y="818"/>
      <point x="-25" y="741"/>
      <point x="7" y="720" type="curve" smooth="yes"/>
      <point x="10" y="714"/>
      <point x="10" y="708"/>
      <point x="9" y="702" type="curve"/>
      <point x="-62" y="702" type="line"/>
      <point x="-104" y="726"/>
      <point x="-173" y="785"/>
      <point x="-222" y="817" type="curve" smooth="yes"/>
      <point x="-234" y="821"/>
      <point x="-250" y="822"/>
      <point x="-267" y="822" type="curve" smooth="yes"/>
      <point x="-284" y="822"/>
      <point x="-306" y="813"/>
      <point x="-315" y="802" type="curve" smooth="yes"/>
      <point x="-319" y="793"/>
      <point x="-319" y="784"/>
      <point x="-319" y="774" type="curve" smooth="yes"/>
      <point x="-319" y="758"/>
      <point x="-313" y="745"/>
      <point x="-313" y="734" type="curve" smooth="yes"/>
      <point x="-313" y="728" type="line"/>
    </contour>
  </outline>
</glyph>
<glyph name="uni2DEC0487" format="2">
  <advance width="1"/>
  <unicode hex="F4EC"/>
  <anchor x="-211" y="658" name="_Stack"/>
  <anchor x="-212" y="926" name="Stack"/>
  <anchor x="-211" y="659" name="_Above"/>
  <outline>
    <contour>
      <point x="-285" y="662" type="curve"/>
      <point x="-283" y="669"/>
      <point x="-281" y="674"/>
      <point x="-281" y="688" type="curve" smooth="yes"/>
      <point x="-281" y="744" type="line" smooth="yes"/>
      <point x="-281" y="764"/>
      <point x="-247" y="787"/>
      <point x="-214" y="787" type="curve" smooth="yes"/>
      <point x="-182" y="787"/>
      <point x="-147" y="768"/>
      <point x="-147" y="745" type="curve" smooth="yes"/>
      <point x="-147" y="724"/>
      <point x="-166" y="712"/>
      <point x="-201" y="712" type="curve" smooth="yes"/>
      <point x="-209" y="712"/>
      <point x="-231" y="714"/>
      <point x="-237" y="719" type="curve"/>
      <point x="-237" y="679" type="line" smooth="yes"/>
      <point x="-237" y="667"/>
      <point x="-285" y="662"/>
    </contour>
    <contour>
      <point x="-235" y="749" type="curve" smooth="yes"/>
      <point x="-235" y="741"/>
      <point x="-227" y="728"/>
      <point x="-214" y="728" type="curve" smooth="yes"/>
      <point x="-200" y="728"/>
      <point x="-190" y="737"/>
      <point x="-190" y="750" type="curve" smooth="yes"/>
      <point x="-190" y="760"/>
      <point x="-199" y="772"/>
      <point x="-214" y="772" type="curve" smooth="yes"/>
      <point x="-228" y="772"/>
      <point x="-235" y="759"/>
    </contour>
    <contour>
      <point x="-361" y="724" type="line"/>
      <point x="-363" y="728"/>
      <point x="-367" y="737"/>
      <point x="-367" y="746" type="curve" smooth="yes"/>
      <point x="-367" y="759"/>
      <point x="-359" y="783"/>
      <point x="-350" y="798" type="curve" smooth="yes"/>
      <point x="-344" y="808"/>
      <point x="-339" y="813"/>
      <point x="-329" y="818" type="curve" smooth="yes"/>
      <point x="-277" y="843"/>
      <point x="-238" y="855"/>
      <point x="-192" y="865" type="curve" smooth="yes"/>
      <point x="-185" y="866"/>
      <point x="-176" y="866"/>
      <point x="-171" y="862" type="curve" smooth="yes"/>
      <point x="-118" y="821"/>
      <point x="-10" y="744"/>
      <point x="22" y="723" type="curve" smooth="yes"/>
      <point x="25" y="717"/>
      <point x="25" y="711"/>
      <point x="24" y="705" type="curve"/>
      <point x="-47" y="705" type="line"/>
      <point x="-89" y="729"/>
      <point x="-158" y="788"/>
      <point x="-207" y="820" type="curve" smooth="yes"/>
      <point x="-219" y="824"/>
      <point x="-235" y="825"/>
      <point x="-252" y="825" type="curve" smooth="yes"/>
      <point x="-269" y="825"/>
      <point x="-291" y="816"/>
      <point x="-300" y="805" type="curve" smooth="yes"/>
      <point x="-304" y="796"/>
      <point x="-304" y="787"/>
      <point x="-304" y="777" type="curve" smooth="yes"/>
      <point x="-304" y="761"/>
      <point x="-298" y="748"/>
      <point x="-298" y="737" type="curve" smooth="yes"/>
      <point x="-298" y="731" type="line"/>
    </contour>
  </outline>
</glyph>
<glyph name="uni2DED0487" format="2">
  <advance width="1"/>
  <unicode hex="F4ED"/>
  <anchor x="-244" y="640" name="_Stack"/>
  <anchor x="-245" y="908" name="Stack"/>
  <anchor x="-244" y="641" name="_Above"/>
  <outline>
    <contour>
      <point x="-242" y="669" type="curve"/>
      <point x="-240" y="669"/>
      <point x="-238" y="669"/>
      <point x="-237" y="669" type="curve" smooth="yes"/>
      <point x="-227" y="669"/>
      <point x="-222" y="672"/>
      <point x="-212" y="678" type="curve" smooth="yes"/>
      <point x="-208" y="680"/>
      <point x="-204" y="666"/>
      <point x="-205" y="664" type="curve" smooth="yes"/>
      <point x="-216" y="645"/>
      <point x="-249" y="643"/>
      <point x="-278" y="643" type="curve" smooth="yes"/>
      <point x="-282" y="643"/>
      <point x="-283" y="646"/>
      <point x="-283" y="650" type="curve" smooth="yes"/>
      <point x="-283" y="655"/>
      <point x="-283" y="662"/>
      <point x="-283" y="669" type="curve" smooth="yes"/>
      <point x="-283" y="687"/>
      <point x="-287" y="702"/>
      <point x="-287" y="721" type="curve" smooth="yes"/>
      <point x="-287" y="751"/>
      <point x="-252" y="764"/>
      <point x="-230" y="766" type="curve" smooth="yes"/>
      <point x="-224" y="767"/>
      <point x="-210" y="765"/>
      <point x="-208" y="763" type="curve" smooth="yes"/>
      <point x="-207" y="759"/>
      <point x="-207" y="748"/>
      <point x="-208" y="742" type="curve"/>
      <point x="-211" y="742"/>
      <point x="-214" y="743"/>
      <point x="-217" y="743" type="curve" smooth="yes"/>
      <point x="-238" y="743"/>
      <point x="-245" y="729"/>
      <point x="-245" y="709" type="curve" smooth="yes"/>
      <point x="-245" y="694"/>
      <point x="-242" y="681"/>
    </contour>
    <contour>
      <point x="-379" y="703" type="line"/>
      <point x="-381" y="707"/>
      <point x="-385" y="716"/>
      <point x="-385" y="725" type="curve" smooth="yes"/>
      <point x="-385" y="738"/>
      <point x="-377" y="762"/>
      <point x="-368" y="777" type="curve" smooth="yes"/>
      <point x="-362" y="787"/>
      <point x="-357" y="792"/>
      <point x="-347" y="797" type="curve" smooth="yes"/>
      <point x="-295" y="822"/>
      <point x="-256" y="834"/>
      <point x="-210" y="844" type="curve" smooth="yes"/>
      <point x="-203" y="845"/>
      <point x="-194" y="845"/>
      <point x="-189" y="841" type="curve" smooth="yes"/>
      <point x="-136" y="800"/>
      <point x="-28" y="723"/>
      <point x="4" y="702" type="curve" smooth="yes"/>
      <point x="7" y="696"/>
      <point x="7" y="690"/>
      <point x="6" y="684" type="curve"/>
      <point x="-65" y="684" type="line"/>
      <point x="-107" y="708"/>
      <point x="-176" y="767"/>
      <point x="-225" y="799" type="curve" smooth="yes"/>
      <point x="-237" y="803"/>
      <point x="-253" y="804"/>
      <point x="-270" y="804" type="curve" smooth="yes"/>
      <point x="-287" y="804"/>
      <point x="-309" y="795"/>
      <point x="-318" y="784" type="curve" smooth="yes"/>
      <point x="-322" y="775"/>
      <point x="-322" y="766"/>
      <point x="-322" y="756" type="curve" smooth="yes"/>
      <point x="-322" y="740"/>
      <point x="-316" y="727"/>
      <point x="-316" y="716" type="curve" smooth="yes"/>
      <point x="-316" y="710" type="line"/>
    </contour>
  </outline>
</glyph>
<glyph name="uni2DF10487" format="2">
  <advance width="1"/>
  <unicode hex="F4F1"/>
  <anchor x="-219" y="655" name="_Stack"/>
  <anchor x="-220" y="923" name="Stack"/>
  <anchor x="-219" y="656" name="_Above"/>
  <outline>
    <contour>
      <point x="-291" y="770" type="curve"/>
      <point x="-244" y="770" type="line"/>
      <point x="-244" y="756"/>
      <point x="-244" y="743"/>
      <point x="-235" y="735" type="curve" smooth="yes"/>
      <point x="-226" y="727"/>
      <point x="-211" y="726"/>
      <point x="-211" y="726" type="curve"/>
      <point x="-211" y="772" type="line"/>
      <point x="-168" y="772" type="line"/>
      <point x="-168" y="656" type="line"/>
      <point x="-211" y="656" type="line"/>
      <point x="-211" y="705" type="line"/>
      <point x="-211" y="705"/>
      <point x="-240" y="706"/>
      <point x="-257" y="709" type="curve" smooth="yes"/>
      <point x="-282" y="713"/>
      <point x="-291" y="734"/>
    </contour>
    <contour>
      <point x="-364" y="715" type="line"/>
      <point x="-366" y="719"/>
      <point x="-370" y="728"/>
      <point x="-370" y="737" type="curve" smooth="yes"/>
      <point x="-370" y="750"/>
      <point x="-362" y="774"/>
      <point x="-353" y="789" type="curve" smooth="yes"/>
      <point x="-347" y="799"/>
      <point x="-342" y="804"/>
      <point x="-332" y="809" type="curve" smooth="yes"/>
      <point x="-280" y="834"/>
      <point x="-241" y="846"/>
      <point x="-195" y="856" type="curve" smooth="yes"/>
      <point x="-188" y="857"/>
      <point x="-179" y="857"/>
      <point x="-174" y="853" type="curve" smooth="yes"/>
      <point x="-121" y="812"/>
      <point x="-13" y="735"/>
      <point x="19" y="714" type="curve" smooth="yes"/>
      <point x="22" y="708"/>
      <point x="22" y="702"/>
      <point x="21" y="696" type="curve"/>
      <point x="-50" y="696" type="line"/>
      <point x="-92" y="720"/>
      <point x="-161" y="779"/>
      <point x="-210" y="811" type="curve" smooth="yes"/>
      <point x="-222" y="815"/>
      <point x="-238" y="816"/>
      <point x="-255" y="816" type="curve" smooth="yes"/>
      <point x="-272" y="816"/>
      <point x="-294" y="807"/>
      <point x="-303" y="796" type="curve" smooth="yes"/>
      <point x="-307" y="787"/>
      <point x="-307" y="778"/>
      <point x="-307" y="768" type="curve" smooth="yes"/>
      <point x="-307" y="752"/>
      <point x="-301" y="739"/>
      <point x="-301" y="728" type="curve" smooth="yes"/>
      <point x="-301" y="722" type="line"/>
    </contour>
  </outline>
</glyph>
<glyph name=".notdef" format="2">
  <advance width="360"/>
  <outline>
    <contour>
      <point x="310" y="0" type="line"/>
      <point x="50" y="0" type="line"/>
      <point x="50" y="800" type="line"/>
      <point x="310" y="800" type="line"/>
    </contour>
    <contour>
      <point x="190" y="401" type="line"/>
      <point x="290" y="40" type="line"/>
      <point x="290" y="762" type="line"/>
    </contour>
    <contour>
      <point x="169" y="401" type="line"/>
      <point x="70" y="762" type="line"/>
      <point x="70" y="40" type="line"/>
    </contour>
    <contour>
      <point x="180" y="362" type="line"/>
      <point x="86" y="20" type="line"/>
      <point x="274" y="20" type="line"/>
    </contour>
    <contour>
      <point x="86" y="780" type="line"/>
      <point x="180" y="440" type="line"/>
      <point x="273" y="780" type="line"/>
    </contour>
  </outline>
</glyph>
